<svg width="283" height="87" viewBox="0 0 283 87" fill="none" xmlns="http://www.w3.org/2000/svg">
<g clip-path="url(#clip0_101_65)">
<rect width="282.849" height="87" rx="36.9452" fill="#FFF422"/>
<rect x="-13.1094" y="23.8354" width="39.726" height="39.726" rx="19.863" fill="#DAD114"/>
<rect x="198.63" y="65.5479" width="32.1781" height="32.1781" rx="16.089" fill="#DAD114"/>
<rect x="79.8496" y="-16.2876" width="32.1781" height="32.1781" rx="16.089" fill="#DAD114"/>
<rect x="227.63" y="-8.34229" width="38.137" height="38.137" rx="19.0685" fill="#DAD114"/>
<path d="M97.6272 51.3451H100.13V60.2437H95.6806V55.7944H84.9745V60.2437H80.5252V51.3451C81.5448 51.3451 82.3327 50.8075 82.8889 49.7322C83.4636 48.657 83.788 46.9329 83.8621 44.5599L84.1124 37.1629H97.6272V51.3451ZM92.8998 51.3451V41.6122H88.4505L88.3115 44.5599C88.2002 47.5261 87.6997 49.7879 86.8098 51.3451H92.8998ZM119.053 55.7944H113.991L113.074 53.0414H106.594L105.677 55.7944H100.699L107.762 37.1629H112.156L119.053 55.7944ZM107.901 49.1483H111.767L109.848 43.3364L107.901 49.1483ZM121.025 56.0725C120.413 56.0725 119.894 56.0262 119.468 55.9335V51.2061C119.653 51.2988 119.922 51.3451 120.274 51.3451C120.719 51.3451 121.08 51.2339 121.358 51.0114C121.637 50.789 121.85 50.3811 121.998 49.7879C122.165 49.1946 122.267 48.3511 122.304 47.2573L122.665 37.1629H136.431V55.7944H131.703V41.6122H126.976L126.781 47.2573C126.707 49.4264 126.457 51.1505 126.03 52.4296C125.622 53.7088 125.011 54.6358 124.195 55.2105C123.379 55.7852 122.323 56.0725 121.025 56.0725ZM146.62 42.8358C147.974 42.8358 149.179 43.1139 150.235 43.67C151.311 44.2262 152.154 44.9956 152.766 45.9781C153.378 46.9607 153.684 48.073 153.684 49.3151C153.684 50.5387 153.378 51.6417 152.766 52.6243C152.173 53.6069 151.348 54.3855 150.291 54.9602C149.253 55.5164 148.085 55.7944 146.787 55.7944H140.336V37.1629H145.063V42.8358H146.62ZM146.62 51.4842C147.325 51.4842 147.89 51.2895 148.317 50.9002C148.743 50.4923 148.956 49.964 148.956 49.3151C148.956 48.6663 148.734 48.1472 148.289 47.7579C147.862 47.35 147.306 47.1461 146.62 47.1461H145.063V51.4842H146.62ZM181.5 55.7944H156.195V37.1629H160.922V51.3451H166.484V37.1629H171.211V51.3451H176.773V37.1629H181.5V55.7944ZM190.116 48.4253V51.4007H196.511V55.7944H185.388V37.1629H196.372V41.5566H190.116V44.254H194.621V48.4253H190.116Z" fill="#150E2E"/>
</g>
<defs>
<clipPath id="clip0_101_65">
<rect width="282.849" height="87" rx="36.9452" fill="white"/>
</clipPath>
</defs>
</svg>
