<svg width="96" height="96" viewBox="0 0 96 96" fill="none" xmlns="http://www.w3.org/2000/svg">
<rect x="2.97381" y="2.97381" width="89.9469" height="89.9469" rx="44.9734" fill="#150E2E"/>
<rect x="2.97381" y="2.97381" width="89.9469" height="89.9469" rx="44.9734" stroke="#FFF422" stroke-width="5.9469"/>
<path d="M20.998 45.7239C19.0512 45.7239 17.4729 47.3021 17.4729 49.249C17.4729 51.1959 19.0512 52.7742 20.998 52.7742V49.249V45.7239ZM77.6296 51.7417C79.0063 50.365 79.0063 48.133 77.6296 46.7564L55.1957 24.3225C53.8191 22.9459 51.5871 22.9459 50.2104 24.3225C48.8338 25.6992 48.8338 27.9312 50.2104 29.3078L70.1516 49.249L50.2104 69.1902C48.8338 70.5669 48.8338 72.7989 50.2104 74.1755C51.5871 75.5522 53.8191 75.5522 55.1957 74.1755L77.6296 51.7417ZM20.998 49.249V52.7742H75.1369V49.249V45.7239H20.998V49.249Z" fill="#F64A22"/>
</svg>
