<svg width="95" height="96" viewBox="0 0 95 96" fill="none" xmlns="http://www.w3.org/2000/svg">
<path d="M79.6096 34.7506L50.7677 13.7194L10.3437 24.1705L39.3139 45.5377L79.6096 34.7506Z" fill="#FEDE56"/>
<path d="M36.1479 87.2834L39.3143 45.5375L79.61 34.7503L73.5901 76.028C73.5901 76.028 74.5397 70.8902 68.694 72.1073C62.8436 73.3265 56.8603 80.3406 56.8603 80.3406L36.1431 87.2856L36.1479 87.2834Z" fill="#B68310"/>
<path d="M14.1711 60.2577L36.5252 87.1459L39.3156 45.5406L10.7667 24.0181L14.1711 60.2577Z" fill="#F59E0F"/>
<path d="M45.1269 35.85C45.1269 35.85 35.3094 42.3108 33.5151 33.7299C33.5151 33.7299 35.1826 30.6839 40.8879 32.3223C46.5932 33.9606 45.1317 35.8478 45.1317 35.8478L45.1269 35.85Z" fill="#F8AB18"/>
<path d="M40.7711 26.8849C40.7711 26.8849 41.797 31.3519 51.187 30.9172C60.577 30.4825 59.784 26.9936 59.784 26.9936C59.784 26.9936 57.4188 21.8389 50.1654 22.3701C42.9119 22.9013 40.2355 25.6203 40.7663 26.887L40.7711 26.8849Z" fill="#F49513"/>
<path d="M55.8555 55.5873C55.8555 55.5873 49.5789 49.5029 60.7644 44.3193C71.95 39.1357 70.7079 46.74 70.7079 46.74C70.7079 46.74 69.8043 51.6079 64.3769 54.073C58.9496 56.538 55.8555 55.5873 55.8555 55.5873Z" fill="#F6A219"/>
<path d="M22.2496 49.9775C22.2496 49.9775 19.6631 52.0882 15.6243 40.3892C11.5854 28.6903 15.0069 28.8156 15.0069 28.8156C15.0069 28.8156 18.7513 27.9263 21.9698 37.2552C25.1884 46.5841 22.2496 49.9775 22.2496 49.9775Z" fill="#F4960B"/>
<path d="M28.4263 48.4438C28.4263 48.4438 27.56 43.2155 29.6616 43.9012C31.7632 44.587 32.6024 48.0376 32.6024 48.0376C32.6024 48.0376 33.4848 52.494 31.7643 51.5379C30.0438 50.5818 28.4215 48.446 28.4215 48.446L28.4263 48.4438Z" fill="#DF9C14"/>
</svg>
