<svg width="90" height="86" viewBox="0 0 90 86" fill="none" xmlns="http://www.w3.org/2000/svg">
<path d="M44.7731 84.1637L80.2538 61.9012L86.4782 13.3029L50.5755 35.559L44.7731 84.1637Z" fill="#FFB923"/>
<path d="M6.47058 13.9212L50.5764 35.5588L44.774 84.1635L2.42165 59.6209C2.42165 59.6209 7.60596 62.8939 8.82665 55.9944C10.0471 49.0888 5.0115 39.5137 5.0115 39.5137L6.47031 13.915L6.47058 13.9212Z" fill="#FEDE56"/>
<path d="M45.4907 1.75083L6.45494 14.3928L50.5713 35.5594L86.4596 13.8302L45.4907 1.75083Z" fill="#F6A117"/>
<path d="M58.5963 46.1113C58.5963 46.1113 55.834 32.5997 65.9652 34.3832C65.9652 34.3832 68.5576 37.527 64.2868 43.0296C60.0161 48.5322 58.5966 46.1175 58.5966 46.1175L58.5963 46.1113Z" fill="#F8AB18"/>
<path d="M70.2639 45.2709C70.2639 45.2709 64.9498 44.4425 61.3325 54.8629C57.7151 65.2833 61.8619 65.9394 61.8619 65.9394C61.8619 65.9394 68.5089 65.6081 71.0902 57.4735C73.6715 49.3389 71.8751 45.2382 70.2636 45.2647L70.2639 45.2709Z" fill="#F49513"/>
<path d="M32.4199 49.2028C32.4199 49.2028 41.7839 45.0148 42.5586 59.4606C43.3332 73.9065 35.589 69.2401 35.589 69.2401C35.589 69.2401 30.6786 66.1348 30.3573 59.1473C30.036 52.1599 32.4199 49.2028 32.4199 49.2028Z" fill="#F6A219"/>
<path d="M53.1731 15.0307C53.1731 15.0307 52.0002 11.293 66.5067 11.9893C81.0131 12.6856 79.386 16.3589 79.386 16.3589C79.386 16.3589 78.7236 20.8261 67.1568 20.2686C55.5901 19.7112 53.1731 15.0307 53.1731 15.0307Z" fill="#F4960B"/>
<path d="M52.1538 22.43C52.1538 22.43 58.2278 23.7639 56.565 25.755C54.9022 27.7461 50.777 27.1572 50.777 27.1572C50.777 27.1572 45.5369 26.177 47.3283 24.719C49.1196 23.2609 52.1535 22.4238 52.1535 22.4238L52.1538 22.43Z" fill="#DF9C14"/>
</svg>
