<svg width="64" height="67" viewBox="0 0 64 67" fill="none" xmlns="http://www.w3.org/2000/svg">
<path d="M0 32.075L16.101 60.388L53.646 66.8589L37.564 38.2189L0 32.075Z" fill="#F6A117"/>
<path d="M55.858 4.683L37.564 38.219L0 32.076L20.492 0C20.492 0 17.775 3.917 23.094 5.097C28.417 6.278 36.026 2.688 36.026 2.688L55.863 4.683H55.858Z" fill="#FEDE56"/>
<path d="M64.0014 35.4099L55.4934 4.65894L37.5654 38.2189L53.2384 66.8309L64.0014 35.4099Z" fill="#FFB923"/>
<path d="M29.0961 44.0961C29.0961 44.0961 39.6861 42.4051 37.9591 50.2151C37.9591 50.2151 35.4301 52.1231 31.2991 48.6201C27.1681 45.1171 29.0911 44.0961 29.0911 44.0961H29.0961Z" fill="#F8AB18"/>
<path d="M29.3551 53.19C29.3551 53.19 30.1781 49.09 22.2041 45.929C14.2311 42.768 13.5811 45.968 13.5811 45.968C13.5811 45.968 13.6151 51.143 19.8481 53.422C26.0801 55.701 29.3261 54.443 29.3601 53.19H29.3551Z" fill="#F49513"/>
<path d="M27.5762 23.658C27.5762 23.658 30.5142 31.073 19.2662 31.189C8.01719 31.305 11.9032 25.445 11.9032 25.445C11.9032 25.445 14.4812 21.735 19.9202 21.721C25.3592 21.706 27.5762 23.658 27.5762 23.658Z" fill="#F6A219"/>
<path d="M53.4252 40.9261C53.4252 40.9261 56.3682 40.1411 55.3392 51.3871C54.3102 62.6331 51.5112 61.2461 51.5112 61.2461C51.5112 61.2461 48.0622 60.5811 48.8852 51.6141C49.7072 42.6471 53.4252 40.9261 53.4252 40.9261Z" fill="#F4960B"/>
<path d="M47.712 39.887C47.712 39.887 46.471 44.561 44.98 43.202C43.49 41.843 44.086 38.658 44.086 38.658C44.086 38.658 45.024 34.62 46.096 36.061C47.169 37.502 47.717 39.887 47.717 39.887H47.712Z" fill="#DF9C14"/>
</svg>
