<svg width="509" height="579" viewBox="0 0 509 579" fill="none" xmlns="http://www.w3.org/2000/svg">
<path d="M210.216 530.761L275.661 431.166L311.477 451.631L252.857 557.234L240 569.247L207.159 549.733L210.216 530.761Z" fill="#E1E2E6" stroke="black" stroke-width="1.47247"/>
<path d="M253.571 17.2068L294.536 14.7232L307.37 107.092L304.525 196.362L263.878 197.853L259.297 200.215L243.232 112.826L247.288 28.3155L253.571 17.2068Z" fill="#E55534"/>
<path d="M253.571 17.2068L294.536 14.7232L307.37 107.092M253.571 17.2068L249.775 109.452M253.571 17.2068L247.288 28.3155L243.232 112.826M307.37 107.092L249.775 109.452M307.37 107.092L304.525 196.362L263.878 197.853M249.775 109.452L243.232 112.826M249.775 109.452L263.878 197.853M243.232 112.826L259.297 200.215L263.878 197.853" stroke="black" stroke-width="1.47247"/>
<path d="M340.825 468.391L343.56 463.253L296.375 428.77L279.367 424.7L275.65 430.344L340.825 468.391Z" fill="#F64A22" stroke="black" stroke-width="1.47247"/>
<path d="M297.941 196.444L303.339 432.635C296.832 428.37 286.623 425.653 282.333 424.828L267.646 196.326L297.941 196.444Z" fill="#D9D9D9" stroke="black" stroke-width="1.47247"/>
</svg>
