<svg width="355" height="253" viewBox="0 0 355 253" fill="none" xmlns="http://www.w3.org/2000/svg">
<g clip-path="url(#clip0_105_2242)">
<path d="M0.000488281 243.365V-0.310547H25.8536H336.911V18.0996H345.529V106.623L333.46 107.5V162.722L345.529 163.6V253H0.000488281V243.365Z" fill="#99A6B4"/>
<path d="M26.7067 245.098L25.8525 2.30005H319.675V245.098H26.7067Z" fill="#B8CEE4"/>
<path d="M311.056 121.084H34.4614V228.456H311.056V121.084Z" fill="#9AA6B4"/>
<path d="M311.056 11.9653H34.4614V106.631H311.056V11.9653Z" fill="#9AA6B4"/>
<path d="M206.334 81.4788V107.061H261.59C261.59 107.061 272.527 101.209 272.527 95.7873C272.527 90.3652 271.086 85.1644 260.437 81.4788H206.334Z" fill="#9E8432"/>
<path d="M261.59 94.2722C261.59 94.2722 261.302 81.4788 246.049 81.4788H261.302C261.302 81.4788 277.256 88.7182 272.527 95.7873C267.799 102.856 261.59 107.061 261.59 107.061H246.049C246.049 107.061 264.68 102.112 261.59 94.2679V94.2722Z" fill="#D4945A"/>
<path d="M345.528 106.622L333.46 162.722H355V106.622H345.528Z" fill="#9E8432"/>
<path d="M333.46 107.5V162.722H355V106.622L333.46 107.5Z" fill="#D4E9FA"/>
<path d="M336.622 11.8965H352.987V67.1182L334.897 67.9957L336.622 11.8965Z" fill="#D1E3F2"/>
</g>
<defs>
<clipPath id="clip0_105_2242">
<rect width="355" height="253" fill="white"/>
</clipPath>
</defs>
</svg>
