<svg width="237" height="130" viewBox="0 0 237 130" fill="none" xmlns="http://www.w3.org/2000/svg">
<path d="M41.5053 56.6606C41.3278 55.4532 36.6043 33.4796 74.8359 30.0547C74.8359 30.0547 105.063 32.6055 100.98 53.7213C96.896 74.837 84.1497 76.679 76.4708 77.2066C68.7919 77.7343 44.4459 76.679 41.5053 56.6606Z" fill="#ECE7E4"/>
<path d="M95.4756 71.4156L80.7097 77.3007C80.7097 77.3007 99.6812 71.8947 97.8872 52.3749C96.0933 32.855 74.625 30.288 74.625 30.288C74.625 30.288 87.4712 30.0387 96.4336 38.002C105.396 45.9654 104.438 62.9117 95.4756 71.4156Z" fill="#E1D4C6"/>
<path d="M74.871 26.6059C74.6935 25.3985 69.97 3.42488 108.202 0C108.202 0 138.429 2.55086 134.345 23.6666C130.262 44.7824 117.515 46.6243 109.837 47.1519C102.158 47.6796 77.8116 46.6243 74.871 26.6059Z" fill="#ECE7E4"/>
<path d="M128.841 41.3609L114.075 47.246C114.075 47.246 133.046 41.84 131.252 22.3202C129.459 2.80032 107.99 0.233287 107.99 0.233287C107.99 0.233287 120.836 -0.0159662 129.799 7.94736C138.761 15.9107 137.803 32.857 128.841 41.3609Z" fill="#E1D4C6"/>
<path d="M91.5541 57.2739C91.3766 56.0664 86.6531 34.0928 124.885 30.668C124.885 30.668 155.112 33.2188 151.028 54.3346C146.945 75.4503 134.198 77.2922 126.52 77.8199C118.841 78.3475 94.4947 77.2923 91.5541 57.2739Z" fill="#ECE7E4"/>
<path d="M145.524 72.0289L130.758 77.914C130.758 77.914 149.73 72.508 147.936 52.9881C146.142 33.4683 124.673 30.9013 124.673 30.9013C124.673 30.9013 137.52 30.652 146.482 38.6153C155.444 46.5786 154.486 63.525 145.524 72.0289Z" fill="#E1D4C6"/>
<path d="M134.579 38.2094C134.401 37.002 129.678 15.0284 167.909 11.6035C167.909 11.6035 198.136 14.1544 194.053 35.2701C189.969 56.3859 177.223 58.2278 169.544 58.7554C161.865 59.2831 137.519 58.2278 134.579 38.2094Z" fill="#ECE7E4"/>
<path d="M188.548 52.9625L173.782 58.8476C173.782 58.8476 192.754 53.4416 190.96 33.9217C189.166 14.4019 167.698 11.8348 167.698 11.8348C167.698 11.8348 180.544 11.5856 189.506 19.5489C198.469 27.5122 197.511 44.4586 188.548 52.9625Z" fill="#E1D4C6"/>
<path d="M7.41 123.304C6.19667 123.304 5.07867 123.027 4.056 122.472C3.05067 121.9 2.25333 121.129 1.664 120.158C1.07467 119.17 0.78 118.095 0.78 116.934C0.78 115.755 1.066 114.681 1.638 113.71C2.22733 112.739 3.03333 111.977 4.056 111.422C5.07867 110.85 6.20533 110.564 7.436 110.564C8.476 110.564 9.45533 110.772 10.374 111.188C11.31 111.604 12.0987 112.202 12.74 112.982L9.932 115.738C9.568 115.253 9.18667 114.906 8.788 114.698C8.38933 114.473 7.93867 114.36 7.436 114.36C6.69067 114.36 6.07533 114.594 5.59 115.062C5.122 115.53 4.888 116.145 4.888 116.908C4.888 117.688 5.122 118.321 5.59 118.806C6.058 119.274 6.67333 119.508 7.436 119.508C7.93867 119.508 8.398 119.395 8.814 119.17C9.24733 118.927 9.66333 118.555 10.062 118.052L12.87 120.86C12.2287 121.623 11.4227 122.221 10.452 122.654C9.49867 123.087 8.48467 123.304 7.41 123.304ZM20.2999 114.386C21.9466 114.386 23.1946 114.776 24.0439 115.556C24.9106 116.319 25.3439 117.35 25.3439 118.65C25.3439 119.933 24.9106 120.964 24.0439 121.744C23.1772 122.524 21.9292 122.914 20.2999 122.914H14.5539V110.954H18.6099V114.386H20.2999ZM26.4879 122.914V110.954H30.5439V122.914H26.4879ZM19.8579 119.664C20.2912 119.664 20.6379 119.56 20.8979 119.352C21.1579 119.144 21.2879 118.867 21.2879 118.52C21.2879 118.173 21.1579 117.896 20.8979 117.688C20.6379 117.48 20.2912 117.376 19.8579 117.376H18.6099V119.664H19.8579ZM40.0038 110.954H44.0598V122.914H40.0038V119.638C39.4665 119.777 38.8512 119.846 38.1578 119.846C36.3378 119.846 34.9772 119.395 34.0758 118.494C33.1918 117.593 32.7498 116.223 32.7498 114.386V110.954H36.8058V114.36C36.8058 114.932 36.9618 115.383 37.2738 115.712C37.5858 116.041 38.0365 116.206 38.6258 116.206C39.1112 116.206 39.5705 116.154 40.0038 116.05V110.954ZM52.1077 118.026L54.1877 110.954H58.3477L51.5097 129.414H47.4017L49.7157 123.2L45.3477 110.954H49.6637L52.1077 118.026ZM73.9828 116.804L78.2468 122.914H73.5668L69.9268 117.324V122.914H66.0268V117.324L62.3868 122.914H57.7068L61.9708 116.804L58.0188 110.954H62.4648L66.0268 116.518V110.954H69.9268V116.518L73.4888 110.954H77.9348L73.9828 116.804ZM86.7886 114.984V110.954H90.8446V122.914H86.7886V118.624H83.3306V122.914H79.2746V110.954H83.3306V114.984H86.7886ZM99.1886 114.386C100.835 114.386 102.083 114.776 102.933 115.556C103.799 116.319 104.233 117.35 104.233 118.65C104.233 119.933 103.799 120.964 102.933 121.744C102.066 122.524 100.818 122.914 99.1886 122.914H93.4426V110.954H97.4986V114.386H99.1886ZM105.377 122.914V110.954H109.433V122.914H105.377ZM98.7466 119.664C99.1799 119.664 99.5266 119.56 99.7866 119.352C100.047 119.144 100.177 118.867 100.177 118.52C100.177 118.173 100.047 117.896 99.7866 117.688C99.5266 117.48 99.1799 117.376 98.7466 117.376H97.4986V119.664H98.7466ZM116.085 116.882L121.389 110.694H123.989V122.914H119.933V116.986L114.629 123.174H112.029V110.954H116.085V116.882ZM118.217 109.55C116.951 109.55 115.929 109.16 115.149 108.38C114.369 107.583 113.979 106.534 113.979 105.234H117.047C117.047 105.719 117.151 106.101 117.359 106.378C117.567 106.655 117.853 106.794 118.217 106.794C118.581 106.794 118.867 106.655 119.075 106.378C119.283 106.101 119.387 105.719 119.387 105.234H122.455C122.455 106.534 122.065 107.583 121.285 108.38C120.505 109.16 119.482 109.55 118.217 109.55ZM148.41 116.934C148.41 118.113 148.133 119.187 147.578 120.158C147.024 121.111 146.261 121.874 145.29 122.446C144.32 123.001 143.236 123.287 142.04 123.304V129.414H138.14V123.304C136.944 123.287 135.861 123.001 134.89 122.446C133.92 121.874 133.157 121.111 132.602 120.158C132.048 119.187 131.77 118.113 131.77 116.934C131.77 115.755 132.039 114.689 132.576 113.736C133.131 112.765 133.894 112.003 134.864 111.448C135.835 110.876 136.927 110.581 138.14 110.564V104.454H142.04V110.564C143.254 110.581 144.346 110.876 145.316 111.448C146.287 112.003 147.041 112.765 147.578 113.736C148.133 114.689 148.41 115.755 148.41 116.934ZM135.878 116.934C135.878 117.749 136.078 118.407 136.476 118.91C136.892 119.395 137.447 119.655 138.14 119.69V114.178C137.412 114.23 136.849 114.507 136.45 115.01C136.069 115.513 135.878 116.154 135.878 116.934ZM142.04 119.69C142.734 119.655 143.28 119.395 143.678 118.91C144.094 118.407 144.302 117.749 144.302 116.934C144.302 116.154 144.103 115.513 143.704 115.01C143.323 114.507 142.768 114.23 142.04 114.178V119.69ZM162.455 116.258C162.455 116.934 162.412 117.558 162.325 118.13H154.239C154.447 118.737 154.785 119.213 155.253 119.56C155.721 119.889 156.319 120.054 157.047 120.054C158.191 120.054 159.197 119.629 160.063 118.78L162.013 121.094C161.303 121.805 160.471 122.351 159.517 122.732C158.581 123.113 157.585 123.304 156.527 123.304C155.245 123.304 154.109 123.035 153.121 122.498C152.133 121.961 151.362 121.215 150.807 120.262C150.253 119.309 149.975 118.217 149.975 116.986C149.975 115.773 150.244 114.681 150.781 113.71C151.336 112.722 152.09 111.951 153.043 111.396C154.014 110.841 155.106 110.564 156.319 110.564C157.463 110.564 158.503 110.815 159.439 111.318C160.375 111.821 161.112 112.505 161.649 113.372C162.187 114.239 162.455 115.201 162.455 116.258ZM156.293 113.554C155.756 113.554 155.288 113.719 154.889 114.048C154.508 114.377 154.248 114.871 154.109 115.53H158.321C158.235 114.923 158.009 114.447 157.645 114.1C157.299 113.736 156.848 113.554 156.293 113.554ZM171.972 110.564C173.03 110.564 173.992 110.841 174.858 111.396C175.725 111.951 176.41 112.722 176.912 113.71C177.415 114.681 177.666 115.755 177.666 116.934C177.666 118.113 177.415 119.196 176.912 120.184C176.41 121.155 175.725 121.917 174.858 122.472C173.992 123.027 173.03 123.304 171.972 123.304C170.655 123.304 169.528 122.862 168.592 121.978V129.414H164.536V110.954H168.436V112.046C169.39 111.058 170.568 110.564 171.972 110.564ZM171.036 119.508C171.764 119.508 172.362 119.265 172.83 118.78C173.316 118.295 173.558 117.679 173.558 116.934C173.558 116.189 173.316 115.573 172.83 115.088C172.362 114.603 171.764 114.36 171.036 114.36C170.291 114.36 169.676 114.603 169.19 115.088C168.722 115.573 168.488 116.189 168.488 116.934C168.488 117.679 168.722 118.295 169.19 118.78C169.676 119.265 170.291 119.508 171.036 119.508ZM186.895 116.388L191.445 110.694H194.045V122.914H189.989V117.87L187.805 120.574H185.985L183.801 117.87V122.914H179.745V110.694H182.345L186.895 116.388ZM208.615 116.258C208.615 116.934 208.572 117.558 208.485 118.13H200.399C200.607 118.737 200.945 119.213 201.413 119.56C201.881 119.889 202.479 120.054 203.207 120.054C204.351 120.054 205.357 119.629 206.223 118.78L208.173 121.094C207.463 121.805 206.631 122.351 205.677 122.732C204.741 123.113 203.745 123.304 202.687 123.304C201.405 123.304 200.269 123.035 199.281 122.498C198.293 121.961 197.522 121.215 196.967 120.262C196.413 119.309 196.135 118.217 196.135 116.986C196.135 115.773 196.404 114.681 196.941 113.71C197.496 112.722 198.25 111.951 199.203 111.396C200.174 110.841 201.266 110.564 202.479 110.564C203.623 110.564 204.663 110.815 205.599 111.318C206.535 111.821 207.272 112.505 207.809 113.372C208.347 114.239 208.615 115.201 208.615 116.258ZM202.453 113.554C201.916 113.554 201.448 113.719 201.049 114.048C200.668 114.377 200.408 114.871 200.269 115.53H204.481C204.395 114.923 204.169 114.447 203.805 114.1C203.459 113.736 203.008 113.554 202.453 113.554ZM218.21 114.984V110.954H222.266V122.914H218.21V118.624H214.752V122.914H210.696V110.954H214.752V114.984H218.21ZM231.442 122.914H227.386V114.594H224.084V110.954H234.744V114.594H231.442V122.914Z" fill="#150E2E"/>
</svg>
