<svg width="285" height="230" viewBox="0 0 285 230" fill="none" xmlns="http://www.w3.org/2000/svg">
<g clip-path="url(#clip0_136_201)">
<path d="M0 221.467V29.666H20.7003H269.761V44.1569H276.661V113.835L266.998 114.526V157.992L276.661 158.682V229.051H0V221.467Z" fill="#99A6B4"/>
<path d="M21.3841 220.777L20.7002 29.666H255.961V220.777H21.3841Z" fill="#B8CEE4"/>
<path d="M249.061 125.218H27.5938V209.732H249.061V125.218Z" fill="#9AA6B4"/>
<path d="M249.061 39.3286H27.5938V113.842H249.061V39.3286Z" fill="#9AA6B4"/>
<path d="M276.661 113.834L266.998 157.991H284.245V113.834H276.661Z" fill="#9E8432"/>
<path d="M266.998 114.525V157.991H284.245V113.834L266.998 114.525Z" fill="#D4E9FA"/>
<path d="M269.531 39.2744H282.634V82.7403L268.149 83.431L269.531 39.2744Z" fill="#D1E3F2"/>
<path d="M27.1963 79.9502L43.2973 108.263L80.8422 114.734L64.7604 86.0937L27.1963 79.9502Z" fill="#F6A117"/>
<path d="M83.0544 52.558L64.7604 86.0942L27.1963 79.9507L47.688 47.8745C47.688 47.8745 44.9709 51.7919 50.2898 52.9724C55.6135 54.1529 63.2215 50.5632 63.2215 50.5632L83.0592 52.558H83.0544Z" fill="#FEDE56"/>
<path d="M91.1966 83.2853L82.6892 52.5342L64.7607 86.0944L80.4337 114.706L91.1966 83.2853Z" fill="#FFB923"/>
<path d="M56.292 91.9709C56.292 91.9709 66.8817 90.2796 65.1552 98.0902C65.1552 98.0902 62.6256 99.9983 58.4946 96.4954C54.3635 92.9924 56.2872 91.9709 56.2872 91.9709H56.292Z" fill="#F8AB18"/>
<path d="M56.5513 101.065C56.5513 101.065 57.3737 96.965 49.4001 93.8041C41.4266 90.6432 40.7773 93.8426 40.7773 93.8426C40.7773 93.8426 40.811 99.0176 47.0436 101.297C53.2763 103.576 56.5225 102.318 56.5561 101.065H56.5513Z" fill="#F49513"/>
<path d="M54.7719 71.5328C54.7719 71.5328 57.7103 78.9483 46.4617 79.064C35.2132 79.1796 39.0989 73.3204 39.0989 73.3204C39.0989 73.3204 41.6766 69.6102 47.1158 69.5958C52.5549 69.5813 54.7719 71.5328 54.7719 71.5328Z" fill="#F6A219"/>
<path d="M80.6207 88.8013C80.6207 88.8013 83.5639 88.016 82.5347 99.2621C81.5056 110.508 78.7066 109.121 78.7066 109.121C78.7066 109.121 75.2585 108.456 76.0809 99.4886C76.9032 90.5215 80.6207 88.8013 80.6207 88.8013Z" fill="#F4960B"/>
<path d="M74.9079 87.762C74.9079 87.762 73.6672 92.4358 72.1764 91.077C70.6855 89.7182 71.2819 86.5333 71.2819 86.5333C71.2819 86.5333 72.2196 82.4954 73.2921 83.9361C74.3645 85.3769 74.9128 87.762 74.9128 87.762H74.9079Z" fill="#DF9C14"/>
<path d="M100.196 79.9502L116.297 108.263L153.842 114.734L137.76 86.0937L100.196 79.9502Z" fill="#F6A117"/>
<path d="M156.054 52.558L137.76 86.0942L100.196 79.9507L120.688 47.8745C120.688 47.8745 117.971 51.7919 123.29 52.9724C128.613 54.1529 136.222 50.5632 136.222 50.5632L156.059 52.558H156.054Z" fill="#FEDE56"/>
<path d="M164.197 83.2853L155.689 52.5342L137.761 86.0944L153.434 114.706L164.197 83.2853Z" fill="#FFB923"/>
<path d="M129.292 91.9709C129.292 91.9709 139.882 90.2796 138.155 98.0902C138.155 98.0902 135.626 99.9983 131.495 96.4954C127.364 92.9924 129.287 91.9709 129.287 91.9709H129.292Z" fill="#F8AB18"/>
<path d="M129.551 101.065C129.551 101.065 130.374 96.965 122.4 93.8041C114.427 90.6432 113.777 93.8426 113.777 93.8426C113.777 93.8426 113.811 99.0176 120.044 101.297C126.276 103.576 129.522 102.318 129.556 101.065H129.551Z" fill="#F49513"/>
<path d="M127.772 71.5328C127.772 71.5328 130.71 78.9483 119.462 79.064C108.213 79.1796 112.099 73.3204 112.099 73.3204C112.099 73.3204 114.677 69.6102 120.116 69.5958C125.555 69.5813 127.772 71.5328 127.772 71.5328Z" fill="#F6A219"/>
<path d="M153.621 88.8013C153.621 88.8013 156.564 88.016 155.535 99.2621C154.506 110.508 151.707 109.121 151.707 109.121C151.707 109.121 148.258 108.456 149.081 99.4886C149.903 90.5215 153.621 88.8013 153.621 88.8013Z" fill="#F4960B"/>
<path d="M147.908 87.762C147.908 87.762 146.667 92.4358 145.176 91.077C143.686 89.7182 144.282 86.5333 144.282 86.5333C144.282 86.5333 145.22 82.4954 146.292 83.9361C147.365 85.3769 147.913 87.762 147.913 87.762H147.908Z" fill="#DF9C14"/>
<path d="M173.196 79.9502L189.297 108.263L226.842 114.734L210.76 86.0937L173.196 79.9502Z" fill="#F6A117"/>
<path d="M229.054 52.558L210.76 86.0942L173.196 79.9507L193.688 47.8745C193.688 47.8745 190.971 51.7919 196.29 52.9724C201.613 54.1529 209.222 50.5632 209.222 50.5632L229.059 52.558H229.054Z" fill="#FEDE56"/>
<path d="M237.197 83.2853L228.689 52.5342L210.761 86.0944L226.434 114.706L237.197 83.2853Z" fill="#FFB923"/>
<path d="M202.292 91.9709C202.292 91.9709 212.882 90.2796 211.155 98.0902C211.155 98.0902 208.626 99.9983 204.495 96.4954C200.364 92.9924 202.287 91.9709 202.287 91.9709H202.292Z" fill="#F8AB18"/>
<path d="M202.551 101.065C202.551 101.065 203.374 96.965 195.4 93.8041C187.427 90.6432 186.777 93.8426 186.777 93.8426C186.777 93.8426 186.811 99.0176 193.044 101.297C199.276 103.576 202.522 102.318 202.556 101.065H202.551Z" fill="#F49513"/>
<path d="M200.772 71.5328C200.772 71.5328 203.71 78.9483 192.462 79.064C181.213 79.1796 185.099 73.3204 185.099 73.3204C185.099 73.3204 187.677 69.6102 193.116 69.5958C198.555 69.5813 200.772 71.5328 200.772 71.5328Z" fill="#F6A219"/>
<path d="M226.621 88.8013C226.621 88.8013 229.564 88.016 228.535 99.2621C227.506 110.508 224.707 109.121 224.707 109.121C224.707 109.121 221.258 108.456 222.081 99.4886C222.903 90.5215 226.621 88.8013 226.621 88.8013Z" fill="#F4960B"/>
<path d="M220.908 87.762C220.908 87.762 219.667 92.4358 218.176 91.077C216.686 89.7182 217.282 86.5333 217.282 86.5333C217.282 86.5333 218.22 82.4954 219.292 83.9361C220.365 85.3769 220.913 87.762 220.913 87.762H220.908Z" fill="#DF9C14"/>
<path d="M28.1963 174.95L44.2973 203.263L81.8422 209.734L65.7604 181.094L28.1963 174.95Z" fill="#F6A117"/>
<path d="M84.0544 147.558L65.7604 181.094L28.1963 174.951L48.688 142.875C48.688 142.875 45.9709 146.792 51.2898 147.972C56.6135 149.153 64.2215 145.563 64.2215 145.563L84.0592 147.558H84.0544Z" fill="#FEDE56"/>
<path d="M92.1966 178.285L83.6892 147.534L65.7607 181.094L81.4337 209.706L92.1966 178.285Z" fill="#FFB923"/>
<path d="M57.292 186.971C57.292 186.971 67.8817 185.28 66.1552 193.09C66.1552 193.09 63.6256 194.998 59.4946 191.495C55.3635 187.992 57.2872 186.971 57.2872 186.971H57.292Z" fill="#F8AB18"/>
<path d="M57.5513 196.065C57.5513 196.065 58.3737 191.965 50.4001 188.804C42.4266 185.643 41.7773 188.843 41.7773 188.843C41.7773 188.843 41.811 194.018 48.0436 196.297C54.2763 198.576 57.5225 197.318 57.5561 196.065H57.5513Z" fill="#F49513"/>
<path d="M55.7719 166.533C55.7719 166.533 58.7103 173.948 47.4617 174.064C36.2132 174.18 40.0989 168.32 40.0989 168.32C40.0989 168.32 42.6766 164.61 48.1158 164.596C53.5549 164.581 55.7719 166.533 55.7719 166.533Z" fill="#F6A219"/>
<path d="M81.6207 183.801C81.6207 183.801 84.5639 183.016 83.5347 194.262C82.5056 205.508 79.7066 204.121 79.7066 204.121C79.7066 204.121 76.2585 203.456 77.0809 194.489C77.9032 185.522 81.6207 183.801 81.6207 183.801Z" fill="#F4960B"/>
<path d="M75.9079 182.762C75.9079 182.762 74.6672 187.436 73.1764 186.077C71.6855 184.718 72.2819 181.533 72.2819 181.533C72.2819 181.533 73.2196 177.495 74.2921 178.936C75.3645 180.377 75.9128 182.762 75.9128 182.762H75.9079Z" fill="#DF9C14"/>
<path d="M100.196 173.95L116.297 202.263L153.842 208.734L137.76 180.094L100.196 173.95Z" fill="#F6A117"/>
<path d="M156.054 146.558L137.76 180.094L100.196 173.951L120.688 141.875C120.688 141.875 117.971 145.792 123.29 146.972C128.613 148.153 136.222 144.563 136.222 144.563L156.059 146.558H156.054Z" fill="#FEDE56"/>
<path d="M164.197 177.285L155.689 146.534L137.761 180.094L153.434 208.706L164.197 177.285Z" fill="#FFB923"/>
<path d="M129.292 185.971C129.292 185.971 139.882 184.28 138.155 192.09C138.155 192.09 135.626 193.998 131.495 190.495C127.364 186.992 129.287 185.971 129.287 185.971H129.292Z" fill="#F8AB18"/>
<path d="M129.551 195.065C129.551 195.065 130.374 190.965 122.4 187.804C114.427 184.643 113.777 187.843 113.777 187.843C113.777 187.843 113.811 193.018 120.044 195.297C126.276 197.576 129.522 196.318 129.556 195.065H129.551Z" fill="#F49513"/>
<path d="M127.772 165.533C127.772 165.533 130.71 172.948 119.462 173.064C108.213 173.18 112.099 167.32 112.099 167.32C112.099 167.32 114.677 163.61 120.116 163.596C125.555 163.581 127.772 165.533 127.772 165.533Z" fill="#F6A219"/>
<path d="M153.621 182.801C153.621 182.801 156.564 182.016 155.535 193.262C154.506 204.508 151.707 203.121 151.707 203.121C151.707 203.121 148.258 202.456 149.081 193.489C149.903 184.522 153.621 182.801 153.621 182.801Z" fill="#F4960B"/>
<path d="M147.908 181.762C147.908 181.762 146.667 186.436 145.176 185.077C143.686 183.718 144.282 180.533 144.282 180.533C144.282 180.533 145.22 176.495 146.292 177.936C147.365 179.377 147.913 181.762 147.913 181.762H147.908Z" fill="#DF9C14"/>
<path d="M174.196 171.95L190.297 200.263L227.842 206.734L211.76 178.094L174.196 171.95Z" fill="#F6A117"/>
<path d="M230.054 144.558L211.76 178.094L174.196 171.951L194.688 139.875C194.688 139.875 191.971 143.792 197.29 144.972C202.613 146.153 210.222 142.563 210.222 142.563L230.059 144.558H230.054Z" fill="#FEDE56"/>
<path d="M238.197 175.285L229.689 144.534L211.761 178.094L227.434 206.706L238.197 175.285Z" fill="#FFB923"/>
<path d="M203.292 183.971C203.292 183.971 213.882 182.28 212.155 190.09C212.155 190.09 209.626 191.998 205.495 188.495C201.364 184.992 203.287 183.971 203.287 183.971H203.292Z" fill="#F8AB18"/>
<path d="M203.551 193.065C203.551 193.065 204.374 188.965 196.4 185.804C188.427 182.643 187.777 185.843 187.777 185.843C187.777 185.843 187.811 191.018 194.044 193.297C200.276 195.576 203.522 194.318 203.556 193.065H203.551Z" fill="#F49513"/>
<path d="M201.772 163.533C201.772 163.533 204.71 170.948 193.462 171.064C182.213 171.18 186.099 165.32 186.099 165.32C186.099 165.32 188.677 161.61 194.116 161.596C199.555 161.581 201.772 163.533 201.772 163.533Z" fill="#F6A219"/>
<path d="M227.621 180.801C227.621 180.801 230.564 180.016 229.535 191.262C228.506 202.508 225.707 201.121 225.707 201.121C225.707 201.121 222.258 200.456 223.081 191.489C223.903 182.522 227.621 180.801 227.621 180.801Z" fill="#F4960B"/>
<path d="M221.908 179.762C221.908 179.762 220.667 184.436 219.176 183.077C217.686 181.718 218.282 178.533 218.282 178.533C218.282 178.533 219.22 174.495 220.292 175.936C221.365 177.377 221.913 179.762 221.913 179.762H221.908Z" fill="#DF9C14"/>
</g>
<defs>
<clipPath id="clip0_136_201">
<rect width="284.245" height="229.051" fill="white"/>
</clipPath>
</defs>
</svg>
