<svg width="377" height="122" viewBox="0 0 377 122" fill="none" xmlns="http://www.w3.org/2000/svg">
<mask id="mask0_356_320" style="mask-type:luminance" maskUnits="userSpaceOnUse" x="0" y="0" width="377" height="122">
<path d="M376.43 0L0 0L0 121.711H376.43V0Z" fill="white"/>
</mask>
<g mask="url(#mask0_356_320)">
<path d="M18.6507 33.3113H11.0922V59.4333H0L0 0L11.0922 0V23.8046H18.6507V0L29.7429 0V59.4333H18.6507V33.3113Z" fill="#FFF422"/>
<path d="M49.398 60.2708H47.2597C38.5112 60.2708 33.8457 56.3792 33.8457 49.0738V37.2422H44.7324V47.5659C44.7324 50.2651 45.8016 51.6951 48.3291 51.6951C50.9526 51.6951 51.9241 50.2651 51.9241 46.6122V45.2628C51.9241 41.0538 51.4388 39.5451 47.4535 35.3358L40.4558 28.0312C35.7889 23.1081 34.4296 19.2953 34.4296 13.42V11.5137C34.4296 3.65229 39.2891 0 47.9387 0L49.982 0C59.0207 0 62.5184 3.25591 62.5184 10.2438V19.9308H51.9241V11.435C51.9241 9.44896 51.4388 7.94005 48.8139 7.94005C46.1905 7.94005 45.6065 9.29062 45.6065 12.0694V13.1809C45.6065 16.5165 46.3843 18.3432 50.077 22.2346L57.0776 29.6188C62.0331 34.8598 63.5887 37.8776 63.5887 44.5478V46.4544C63.5887 55.1092 59.0207 60.2708 49.398 60.2708Z" fill="#FFF422"/>
<path d="M91.7214 0V8.62688H77.6817V24.2055H88.6999V33.2321H77.6817V50.4067H92.3059V59.4333H66.665V0L91.7214 0Z" fill="#FFF422"/>
<path d="M122.114 48.25H114.017L112.536 59.4333H102.562L111.547 0L124.779 0L134.357 59.4333H123.596L122.114 48.25ZM120.928 39.3823L117.965 17.4148L115.103 39.3823H120.928Z" fill="#FFF422"/>
<path d="M147.354 59.4333H136.407V0L154.136 0C161.403 0 165.084 2.556 165.084 9.18597V19.7306C165.084 24.6834 162.275 26.6011 160.337 27.3195C162.759 28.1982 165.084 29.7964 165.084 33.7902V54.64C165.084 57.0366 165.665 58.1559 166.15 59.0337V59.4333H155.299C154.815 58.7938 154.233 57.756 154.233 54.5605V36.6669C154.233 34.0296 153.653 32.9115 150.164 32.9115H147.354V59.4333ZM147.354 24.4439H150.261C153.265 24.4439 154.233 22.8467 154.233 20.2095V11.9023C154.233 9.3463 153.556 8.06779 150.261 8.06779H147.354V24.4439Z" fill="#FFF422"/>
<path d="M187.562 8.62688V59.4333H176.531V8.62688H167.175V0L196.918 0V8.62688H187.562Z" fill="#FFF422"/>
<path d="M226.096 48.25H218.26L216.825 59.4333H207.175L215.872 0L228.676 0L237.943 59.4333H227.528L226.096 48.25ZM224.948 39.3823L222.082 17.4148L219.311 39.3823H224.948Z" fill="#FFF422"/>
<path d="M250.038 0L259.594 31.8734V0L269.737 0V59.4333H260.677L250.038 25.2435V59.4333H239.994V0L250.038 0Z" fill="#FFF422"/>
<path d="M273.84 0L290.992 0C300.609 0 303.583 4.39361 303.583 11.4234V47.6113C303.583 54.8807 300.212 59.4333 290.992 59.4333H273.84V0ZM285.043 50.8067H287.72C291.091 50.8067 292.082 49.3685 292.082 46.1738V12.7009C292.082 9.26612 290.992 8.06779 288.215 8.06779H285.043V50.8067Z" fill="#FFF422"/>
<path d="M0 61.1094H17.1521C26.7684 61.1094 29.7429 65.5027 29.7429 72.5322V108.72C29.7429 115.989 26.3716 120.543 17.1521 120.543H0L0 61.1094ZM11.203 111.915H13.8804C17.2516 111.915 18.244 110.478 18.244 107.282V73.81C18.244 70.3755 17.1521 69.1767 14.3753 69.1767H11.203V111.915Z" fill="#FFF422"/>
<path d="M58.9003 61.1094V69.736H44.8617V85.3146H55.8788V94.3412H44.8617V111.516H59.4863V120.543H33.8457V61.1094H58.9003Z" fill="#FFF422"/>
<path d="M77.0882 121.377H74.9495C66.201 121.377 61.5371 117.432 61.5371 110.025V98.0289H72.4234V108.496C72.4234 111.232 73.4927 112.682 76.0189 112.682C78.6419 112.682 79.6149 111.232 79.6149 107.529V106.161C79.6149 101.894 79.1296 100.364 75.1442 96.096L68.1455 88.69C63.4802 83.6983 62.1212 79.8329 62.1212 73.8757V71.9432C62.1212 63.9725 66.9788 60.2695 75.63 60.2695H77.6718C86.7119 60.2695 90.2091 63.5706 90.2091 70.6557V80.4771H79.6149V71.8634C79.6149 69.8495 79.1296 68.3197 76.5042 68.3197C73.8802 68.3197 73.2976 69.689 73.2976 72.5064V73.6335C73.2976 77.0152 74.0758 78.8674 77.7677 82.8127L84.7669 90.2997C89.7224 95.6135 91.2794 98.673 91.2794 105.436V107.369C91.2794 116.144 86.7119 121.377 77.0882 121.377Z" fill="#FFF422"/>
<path d="M105.592 120.334H94.5342V60.9004H105.592V120.334Z" fill="#FFF422"/>
<path d="M120.045 121.377C113.75 121.377 109.741 116.639 109.741 110.456V73.1169C109.741 66.4521 112.795 60.2695 123.003 60.2695H125.102C136.646 60.2695 137.982 66.6122 137.982 73.6789V79.782H127.488V73.0374C127.488 70.3864 126.724 68.9411 124.052 68.9411C121.763 68.9411 120.713 70.3864 120.713 73.0374V107.967C120.713 110.776 122.05 112.223 124.242 112.223C127.011 112.223 128.251 110.616 128.251 108.368V93.4324H123.385V84.2783H138.458V120.574H132.353C132.257 120.252 131.4 117.281 130.54 114.712C129.777 116.719 126.152 121.377 120.713 121.377H120.045Z" fill="#FFF422"/>
<path d="M152.607 61.1094L162.159 92.9824V61.1094H172.303V120.543H163.243L152.607 86.3525V120.543H142.561V61.1094H152.607Z" fill="#FFF422"/>
<path d="M201.19 121.377H199.052C190.303 121.377 185.638 117.432 185.638 110.025V98.0289H196.524V108.496C196.524 111.232 197.593 112.682 200.121 112.682C202.744 112.682 203.715 111.232 203.715 107.529V106.161C203.715 101.894 203.231 100.364 199.245 96.096L192.248 88.69C187.581 83.6983 186.221 79.8329 186.221 73.8757V71.9432C186.221 63.9725 191.081 60.2695 199.73 60.2695H201.774C210.812 60.2695 214.31 63.5706 214.31 70.6557V80.4771H203.715V71.8634C203.715 69.8495 203.231 68.3197 200.606 68.3197C197.982 68.3197 197.398 69.689 197.398 72.5064V73.6335C197.398 77.0152 198.176 78.8674 201.869 82.8127L208.869 90.2997C213.825 95.6135 215.38 98.673 215.38 105.436V107.369C215.38 116.144 210.812 121.377 201.19 121.377Z" fill="#FFF422"/>
<path d="M236.512 108.512V94.6026H247.174V108.432C247.174 114.865 244.676 121.377 234.208 121.377H231.805C220.857 121.377 218.456 114.785 218.456 108.754V72.2504C218.456 66.1387 221.625 60.2695 231.423 60.2695H233.918C245.829 60.2695 247.174 66.8631 247.174 72.7326V83.4263H236.512V72.8926C236.512 70.3199 235.551 68.9537 232.862 68.9537C230.174 68.9537 229.501 70.2393 229.501 72.8926V108.432C229.501 111.086 230.557 112.532 232.958 112.532C235.551 112.532 236.512 110.925 236.512 108.512Z" fill="#FFF422"/>
<path d="M269.928 94.4202H262.368V120.543H251.276V61.1094H262.368V84.9138H269.928V61.1094H281.019V120.543H269.928V94.4202Z" fill="#FFF422"/>
<path d="M314.864 107.307C314.864 115.669 311.379 121.377 300.525 121.377H298.634C287.88 121.377 284.096 115.669 284.096 107.307V74.0193C284.096 65.7363 287.977 60.2695 298.534 60.2695H300.426C311.379 60.2695 314.864 65.7364 314.864 73.9387V107.307ZM303.414 73.536C303.414 70.4005 302.118 68.9525 299.53 68.9525C296.642 68.9525 295.547 70.4803 295.547 73.536V107.95C295.547 110.522 296.444 112.532 299.628 112.532C302.616 112.532 303.414 110.522 303.414 107.95V73.536Z" fill="#FFF422"/>
<path d="M348.71 107.307C348.71 115.669 345.224 121.377 334.37 121.377H332.479C321.725 121.377 317.941 115.669 317.941 107.307V74.0193C317.941 65.7363 321.825 60.2695 332.38 60.2695H334.273C345.224 60.2695 348.71 65.7364 348.71 73.9387V107.307ZM337.26 73.536C337.26 70.4005 335.965 68.9525 333.376 68.9525C330.487 68.9525 329.393 70.4803 329.393 73.536V107.95C329.393 110.522 330.287 112.532 333.474 112.532C336.462 112.532 337.26 110.522 337.26 107.95V73.536Z" fill="#FFF422"/>
<path d="M363.431 61.1094V111.356H376.402V120.543H352.812V61.1094H363.431Z" fill="#FFF422"/>
</g>
</svg>
