<svg width="682" height="151" viewBox="0 0 682 151" fill="none" xmlns="http://www.w3.org/2000/svg">
<path d="M665.25 124.115L642.23 124.047L642.382 72.6275L626.556 72.5809L626.621 50.5439L681.292 50.705L681.227 72.7419L665.401 72.6953L665.25 124.115Z" fill="#FFF422"/>
<path d="M585.793 125.454C579.334 125.435 573.264 123.913 567.582 120.888C561.964 117.864 557.437 113.443 554.001 107.626C550.629 101.81 548.955 94.9488 548.978 87.0435C549.002 79.1381 550.716 72.2872 554.123 66.4907C557.593 60.6943 562.146 56.3003 567.781 53.3086C573.481 50.3172 579.56 48.831 586.018 48.85C591.965 48.8675 597.492 50.1781 602.6 52.7816C607.772 55.3154 612.109 59.071 615.611 64.0484C619.114 68.9558 621.399 74.7691 622.466 81.4884L598.679 81.4183C597.857 78.3377 596.361 75.9197 594.193 74.1643C592.024 72.339 589.341 71.4216 586.144 71.4122C582.051 71.4001 578.754 72.8246 576.252 75.6855C573.75 78.5465 572.492 82.3555 572.478 87.1127C572.464 91.8699 573.699 95.6863 576.185 98.5619C578.67 101.438 581.959 102.881 586.051 102.893C589.376 102.903 592.128 102.037 594.307 100.294C596.487 98.4818 597.997 96.0377 598.837 92.962L622.624 93.0321C621.517 99.7449 619.198 105.58 615.666 110.536C612.135 115.423 607.776 119.153 602.589 121.726C597.402 124.229 591.803 125.472 585.793 125.454Z" fill="#FFF422"/>
<path d="M504.965 125.216C498.379 125.197 492.245 123.674 486.563 120.65C480.945 117.625 476.418 113.204 472.982 107.387C469.546 101.571 467.84 94.7095 467.863 86.8042C467.887 78.8989 469.633 72.0481 473.103 66.2517C476.573 60.4553 481.126 56.0613 486.762 53.0697C492.462 50.0782 498.605 48.5922 505.191 48.6116C511.777 48.631 517.879 50.1531 523.497 53.1779C529.179 56.2029 533.738 60.6237 537.174 66.4405C540.61 72.2572 542.316 79.1182 542.293 87.0235C542.27 94.9288 540.523 101.78 537.053 107.576C533.583 113.372 528.998 117.766 523.298 120.758C517.662 123.749 511.551 125.235 504.965 125.216ZM505.032 102.654C509.188 102.667 512.517 101.242 515.019 98.3814C517.522 95.5205 518.78 91.7114 518.794 86.9543C518.808 82.1971 517.572 78.3807 515.087 75.505C512.602 72.6294 509.281 71.1854 505.124 71.1732C500.968 71.161 497.639 72.5853 495.137 75.4463C492.634 78.3072 491.376 82.1163 491.362 86.8734C491.348 91.6306 492.584 95.447 495.069 98.3227C497.555 101.198 500.875 102.642 505.032 102.654Z" fill="#FFF422"/>
<path d="M451.389 84.0273C454.774 85.5064 457.389 87.6828 459.235 90.5566C461.145 93.4305 462.094 96.7914 462.083 100.639C462.07 105.046 460.939 108.961 458.691 112.382C456.507 115.804 453.11 118.522 448.5 120.537C443.891 122.483 438.101 123.445 431.131 123.424L403.508 123.343L403.724 49.8867L431.348 49.9681C440.3 49.9945 447.2 51.7288 452.05 55.1711C456.899 58.6134 459.315 63.5876 459.296 70.0937C459.286 73.2419 458.543 76.0031 457.065 78.3773C455.652 80.6818 453.76 82.5651 451.389 84.0273ZM426.693 67.2693L426.657 79.3371L429.918 79.3467C432.028 79.3529 433.692 78.8331 434.91 77.7873C436.129 76.6716 436.74 75.2042 436.746 73.3853C436.751 71.4964 436.148 70.0255 434.936 68.9726C433.789 67.8498 432.128 67.2853 429.954 67.2789L426.693 67.2693ZM431.758 106.111C433.932 106.118 435.596 105.598 436.75 104.552C437.968 103.436 438.58 101.934 438.585 100.045C438.591 98.0863 437.988 96.5804 436.776 95.5274C435.629 94.4047 433.968 93.8402 431.794 93.8338L426.614 93.8185L426.578 106.096L431.758 106.111Z" fill="#FFF422"/>
<path d="M375.708 85.3786L395.834 123.321L371.376 123.249L360.415 99.7102L349.22 123.183L324.857 123.112L345.207 85.2888L327.088 49.6612L351.258 49.7324L360.596 70.7477L369.962 49.7875L394.036 49.8585L375.708 85.3786Z" fill="#FFF422"/>
<path d="M210.879 49.3323C216.442 49.3487 221.394 50.4126 225.736 52.5242C230.142 54.636 233.586 57.6893 236.068 61.6843C238.551 65.6093 239.784 70.2652 239.768 75.652C239.752 81.0388 238.491 85.7224 235.986 89.7027C233.48 93.613 230.019 96.611 225.6 98.6968C221.246 100.783 216.287 101.817 210.724 101.801L205.161 101.785L205.099 122.772L182.08 122.704L182.296 49.248L210.879 49.3323ZM208.671 82.3814C211.101 82.3886 212.957 81.7994 214.24 80.6139C215.586 79.3586 216.263 77.6815 216.269 75.5828C216.275 73.484 215.608 71.838 214.269 70.6448C212.994 69.3818 211.141 68.7467 208.712 68.7395L205.259 68.7293L205.219 82.3712L208.671 82.3814Z" fill="#FFF422"/>
<path d="M112.557 71.0801C117.673 71.0952 122.242 72.1231 126.264 74.1637C130.35 76.2046 133.571 79.1873 135.925 83.112C138.28 86.9666 139.449 91.5524 139.433 96.8693C139.418 102.186 138.221 106.8 135.844 110.711C133.467 114.551 130.229 117.48 126.13 119.497C122.096 121.514 117.521 122.515 112.406 122.5L83.8231 122.415L84.0396 48.959L107.059 49.0268L106.994 71.0637L112.557 71.0801ZM144.633 122.595L144.849 49.1382L167.869 49.206L167.652 122.662L144.633 122.595ZM110.545 103.08C112.335 103.086 113.839 102.53 115.058 101.415C116.276 100.299 116.888 98.7617 116.894 96.8028C116.899 94.844 116.296 93.3031 115.085 92.1802C113.873 91.0573 112.372 90.4932 110.582 90.4879L106.937 90.4772L106.9 103.07L110.545 103.08Z" fill="#FFF422"/>
<path d="M37.0007 123.852C30.5425 123.833 24.4723 122.311 18.7903 119.286C13.1721 116.261 8.64518 111.84 5.20937 106.024C1.83749 100.207 0.163205 93.3462 0.186498 85.4409C0.209791 77.5356 1.92448 70.6847 5.33057 64.8881C8.80061 59.0917 13.3535 54.6977 18.9894 51.7061C24.6892 48.7147 30.7682 47.2284 37.2265 47.2475C43.1732 47.265 48.7004 48.5755 53.8082 51.1791C58.9802 53.7128 63.3173 57.4684 66.8195 62.4458C70.322 67.3533 72.6068 73.1666 73.674 79.8858L49.8872 79.8157C49.065 76.7351 47.5695 74.3171 45.4006 72.5618C43.2319 70.7364 40.549 69.8191 37.3518 69.8096C33.2595 69.7976 29.9622 71.222 27.4599 74.083C24.9577 76.9439 23.6996 80.753 23.6856 85.5102C23.6715 90.2673 24.9072 94.0837 27.3925 96.9594C29.8779 99.835 33.1667 101.279 37.259 101.291C40.5841 101.301 43.3362 100.434 45.5154 98.6918C47.6949 96.8793 49.2047 94.4352 50.0451 91.3594L73.8319 91.4295C72.725 98.1423 70.4059 103.977 66.8744 108.934C63.3431 113.82 58.9839 117.55 53.7969 120.124C48.6101 122.627 43.0114 123.87 37.0007 123.852Z" fill="#FFF422"/>
<path d="M273.309 74.5249C291.091 74.5894 305.579 58.2074 305.651 37.9135C305.722 17.6196 291.349 1.13276 273.568 1.06819C255.786 1.00365 241.298 17.3856 241.227 37.6795L241.006 37.6787C241.077 17.4203 255.43 1.01955 273.149 0.828098L273.569 0.826553C291.481 0.891602 305.943 17.4964 305.871 37.9143C305.8 58.3323 291.221 74.8315 273.308 74.7665L272.889 74.7619C255.171 74.4418 240.934 57.9372 241.006 37.6787L241.227 37.6795C241.155 57.9735 255.527 74.4603 273.309 74.5249Z" fill="#FFF422"/>
<path d="M329.162 87.7334C329.043 121.417 304.958 148.892 275.083 148.784L275.109 141.535C301.07 141.629 322.431 117.673 322.536 87.7093L329.162 87.7334Z" fill="#FFF422"/>
<path d="M273.091 148.707C255.178 148.642 240.716 132.037 240.788 111.619C240.86 91.2012 255.439 74.7019 273.351 74.767C291.263 74.832 305.725 91.4368 305.654 111.855C305.582 132.273 291.003 148.772 273.091 148.707Z" fill="#FFF422"/>
<path d="M273.308 74.7665C255.396 74.7014 240.934 58.0967 241.006 37.6787C241.077 17.2608 255.656 0.761503 273.569 0.826553C291.481 0.891603 305.943 17.4964 305.871 37.9143C305.8 58.3323 291.221 74.8315 273.308 74.7665Z" fill="#FFF422"/>
<path d="M206.589 131.889L206.539 149.105L204.066 149.098L204.086 142.359L202.242 142.353L197.884 149.08L194.894 149.071L199.546 142.026C198.483 141.662 197.653 141.045 197.056 140.174C196.459 139.287 196.162 138.261 196.166 137.097C196.169 136.097 196.389 135.204 196.826 134.418C197.278 133.616 197.916 132.995 198.742 132.554C199.583 132.098 200.55 131.871 201.644 131.874L206.589 131.889ZM204.093 139.826L204.109 134.39L201.637 134.383C200.722 134.38 200.002 134.632 199.476 135.139C198.965 135.646 198.708 136.301 198.706 137.104C198.704 137.891 198.957 138.54 199.465 139.05C199.988 139.559 200.706 139.816 201.62 139.818L204.093 139.826Z" fill="#FFF422"/>
<path d="M192.243 149.063L189.59 149.055L188.163 144.919L181.532 144.899L180.081 149.027L177.473 149.019L183.796 131.821L186.021 131.828L192.243 149.063ZM187.339 142.383L184.887 135.317L182.394 142.368L187.339 142.383Z" fill="#FFF422"/>
<path d="M170.413 138.84L170.434 131.781L172.907 131.789L172.856 149.005L170.383 148.998L170.406 141.373L162.92 141.351L162.897 148.976L160.424 148.968L160.475 131.752L162.948 131.759L162.927 138.818L170.413 138.84Z" fill="#FFF422"/>
<path d="M142.925 144.073L152.561 131.73L154.179 131.735L154.128 148.951L151.656 148.944L151.692 136.597L142.079 148.916L140.438 148.911L140.489 131.694L142.962 131.702L142.925 144.073Z" fill="#FFF422"/>
<path d="M134.141 148.891L114.853 148.834L114.904 131.618L117.377 131.625L117.333 146.309L123.268 146.326L123.311 131.643L125.784 131.65L125.741 146.333L131.676 146.351L131.719 131.668L134.192 131.675L134.141 148.891Z" fill="#FFF422"/>
<path d="M98.5457 137.842C99.6547 137.846 100.628 138.078 101.466 138.54C102.319 138.985 102.976 139.626 103.439 140.464C103.916 141.285 104.153 142.237 104.15 143.319C104.146 144.401 103.904 145.36 103.422 146.194C102.955 147.013 102.293 147.65 101.438 148.107C100.597 148.564 99.6224 148.79 98.5134 148.787L93.7477 148.773L93.7984 131.557L96.2712 131.564L96.2527 137.836L98.5457 137.842ZM106.089 148.809L106.14 131.593L108.613 131.6L108.562 148.817L106.089 148.809ZM98.4085 146.253C99.4126 146.256 100.193 145.996 100.749 145.473C101.32 144.934 101.607 144.213 101.609 143.311C101.612 142.41 101.329 141.696 100.761 141.169C100.208 140.626 99.43 140.354 98.4259 140.351L96.2453 140.344L96.2279 146.247L98.4085 146.253Z" fill="#FFF422"/>
<path d="M86.1412 131.533L88.1362 148.755L85.6409 148.748L84.3711 137.185L79.6387 148.73L78.3798 148.727L73.6709 137.055L72.3327 148.709L69.8824 148.702L71.9788 131.491L73.9121 131.497L79.045 144.252L84.2529 131.528L86.1412 131.533Z" fill="#FFF422"/>
<path d="M481.394 132.59L481.343 149.806L478.871 149.799L478.891 143.06L477.047 143.055L472.689 149.781L469.699 149.772L474.35 142.727C473.288 142.363 472.458 141.746 471.861 140.875C471.264 139.988 470.967 138.962 470.971 137.798C470.973 136.798 471.193 135.905 471.63 135.119C472.082 134.317 472.721 133.696 473.547 133.256C474.387 132.799 475.355 132.572 476.449 132.575L481.394 132.59ZM478.898 140.527L478.914 135.091L476.441 135.084C475.527 135.081 474.807 135.333 474.281 135.84C473.77 136.347 473.513 137.002 473.511 137.805C473.508 138.593 473.761 139.241 474.269 139.751C474.792 140.261 475.511 140.517 476.425 140.52L478.898 140.527Z" fill="#FFF422"/>
<path d="M462.458 139.593L462.479 132.534L464.951 132.542L464.901 149.758L462.428 149.751L462.45 142.126L454.965 142.104L454.942 149.729L452.469 149.721L452.52 132.505L454.993 132.512L454.972 139.571L462.458 139.593Z" fill="#FFF422"/>
<path d="M442.046 132.474C443.155 132.477 444.121 132.709 444.944 133.171C445.767 133.616 446.402 134.241 446.849 135.046C447.296 135.834 447.518 136.728 447.515 137.728C447.512 138.729 447.285 139.63 446.833 140.432C446.381 141.218 445.742 141.839 444.917 142.295C444.091 142.736 443.124 142.954 442.015 142.951L439.542 142.944L439.522 149.683L437.049 149.675L437.1 132.459L442.046 132.474ZM442 140.418C442.929 140.42 443.657 140.177 444.183 139.686C444.709 139.179 444.973 138.524 444.975 137.721C444.978 136.917 444.717 136.261 444.194 135.751C443.671 135.241 442.945 134.985 442.016 134.982L439.566 134.975L439.55 140.41L442 140.418Z" fill="#FFF422"/>
<path d="M432.452 149.662L429.799 149.654L428.372 145.518L421.741 145.499L420.29 149.626L417.682 149.619L424.005 132.421L426.23 132.427L432.452 149.662ZM427.548 142.983L425.096 135.917L422.603 142.968L427.548 142.983Z" fill="#FFF422"/>
<path d="M411.576 140.377C412.415 140.691 413.08 141.218 413.572 141.957C414.08 142.68 414.332 143.542 414.329 144.542C414.326 145.509 414.099 146.378 413.647 147.147C413.21 147.916 412.571 148.521 411.731 148.961C410.89 149.385 409.893 149.595 408.739 149.592L403.861 149.578L403.912 132.361L408.498 132.375C410.116 132.38 411.381 132.801 412.293 133.64C413.22 134.479 413.681 135.587 413.677 136.965C413.675 137.703 413.478 138.382 413.086 139.004C412.71 139.61 412.207 140.068 411.576 140.377ZM406.377 134.754L406.363 139.501L408.477 139.507C409.316 139.51 409.968 139.29 410.434 138.849C410.915 138.408 411.157 137.835 411.159 137.13C411.161 136.441 410.923 135.874 410.444 135.43C409.966 134.986 409.315 134.763 408.491 134.761L406.377 134.754ZM408.791 147.182C409.705 147.185 410.433 146.933 410.974 146.426C411.515 145.903 411.787 145.256 411.789 144.485C411.791 143.715 411.523 143.074 410.985 142.564C410.447 142.038 409.721 141.774 408.807 141.771L406.357 141.764L406.341 147.175L408.791 147.182Z" fill="#FFF422"/>
<path d="M390.26 149.809C388.761 149.805 387.384 149.415 386.127 148.641C384.87 147.85 383.877 146.781 383.147 145.435C382.416 144.072 382.053 142.562 382.058 140.906C382.063 139.25 382.435 137.751 383.173 136.408C383.911 135.05 384.911 133.987 386.172 133.22C387.434 132.437 388.814 132.047 390.312 132.052C391.811 132.056 393.181 132.454 394.423 133.244C395.679 134.019 396.673 135.087 397.403 136.45C398.133 137.797 398.496 139.298 398.491 140.954C398.486 142.611 398.115 144.118 397.376 145.477C396.638 146.819 395.638 147.882 394.377 148.665C393.131 149.432 391.759 149.813 390.26 149.809ZM390.267 147.276C391.316 147.279 392.269 147.003 393.125 146.448C393.996 145.893 394.68 145.133 395.177 144.167C395.69 143.201 395.947 142.128 395.951 140.947C395.954 139.766 395.703 138.692 395.196 137.723C394.704 136.738 394.025 135.965 393.157 135.405C392.305 134.845 391.354 134.563 390.305 134.56C389.256 134.557 388.296 134.833 387.425 135.388C386.554 135.943 385.862 136.712 385.35 137.694C384.853 138.66 384.602 139.733 384.599 140.914C384.595 142.094 384.839 143.169 385.331 144.138C385.838 145.107 386.525 145.871 387.392 146.431C388.26 146.991 389.218 147.273 390.267 147.276Z" fill="#FFF422"/>
<path d="M372.508 132.269C373.617 132.273 374.583 132.505 375.406 132.967C376.228 133.412 376.864 134.037 377.311 134.841C377.758 135.63 377.98 136.524 377.977 137.524C377.974 138.524 377.747 139.426 377.295 140.228C376.843 141.013 376.204 141.635 375.379 142.091C374.553 142.532 373.586 142.75 372.477 142.747L370.004 142.74L369.984 149.479L367.511 149.471L367.562 132.255L372.508 132.269ZM372.462 140.213C373.391 140.216 374.119 139.972 374.644 139.482C375.171 138.975 375.435 138.32 375.437 137.517C375.439 136.713 375.179 136.057 374.656 135.547C374.133 135.037 373.407 134.781 372.478 134.778L370.027 134.771L370.011 140.206L372.462 140.213Z" fill="#FFF422"/>
<path d="M351.203 138.478C352.312 138.481 353.285 138.714 354.123 139.175C354.976 139.621 355.634 140.262 356.096 141.1C356.573 141.921 356.81 142.873 356.807 143.955C356.804 145.037 356.561 145.995 356.079 146.83C355.612 147.649 354.951 148.286 354.095 148.743C353.254 149.199 352.28 149.426 351.171 149.423L346.405 149.409L346.456 132.192L348.928 132.2L348.91 138.471L351.203 138.478ZM358.746 149.445L358.797 132.229L361.27 132.236L361.219 149.452L358.746 149.445ZM351.066 146.889C352.07 146.892 352.85 146.632 353.406 146.109C353.977 145.57 354.264 144.849 354.267 143.947C354.269 143.045 353.987 142.331 353.419 141.805C352.866 141.262 352.087 140.989 351.083 140.986L348.903 140.98L348.885 146.883L351.066 146.889Z" fill="#FFF422"/>
<path d="M333.724 149.642C332.255 149.637 330.9 149.248 329.658 148.474C328.417 147.683 327.431 146.614 326.7 145.268C325.97 143.905 325.607 142.395 325.612 140.739C325.617 139.083 325.989 137.576 326.727 136.217C327.465 134.858 328.458 133.795 329.704 133.028C330.95 132.261 332.307 131.88 333.776 131.884C335.544 131.89 337.086 132.427 338.402 133.497C339.733 134.566 340.688 136.012 341.267 137.834L338.682 137.826C338.22 136.775 337.556 135.945 336.688 135.336C335.836 134.711 334.863 134.396 333.769 134.393C332.735 134.39 331.789 134.674 330.934 135.245C330.078 135.8 329.401 136.561 328.904 137.527C328.406 138.493 328.156 139.566 328.152 140.747C328.149 141.927 328.393 143.002 328.885 143.971C329.376 144.939 330.049 145.704 330.901 146.264C331.754 146.824 332.697 147.105 333.731 147.108C334.855 147.112 335.845 146.811 336.701 146.207C337.572 145.587 338.242 144.761 338.709 143.729L341.294 143.737C340.705 145.555 339.741 146.995 338.404 148.057C337.067 149.119 335.507 149.647 333.724 149.642Z" fill="#FFF422"/>
</svg>
