<svg width="91" height="164" viewBox="0 0 91 164" fill="none" xmlns="http://www.w3.org/2000/svg">
<rect x="29.2766" width="23.54" height="7.93504" fill="#4C4957"/>
<path d="M8 121.67L14.3377 128.283H72.2822L78.1672 121.67V38.0215L49.6476 13.8857V8.5957H32.898V11.902L8 38.0215V121.67Z" fill="#C6B69C"/>
<path d="M8.45 156.314L13 150.62H15.6V162.84H11.544V157.796L9.36 160.5H7.54L5.356 157.796V162.84H1.3V150.62H3.9L8.45 156.314ZM24.2422 163.23C23.0288 163.23 21.9195 162.953 20.9142 162.398C19.9262 161.826 19.1375 161.055 18.5482 160.084C17.9762 159.113 17.6902 158.039 17.6902 156.86C17.6902 155.681 17.9762 154.607 18.5482 153.636C19.1375 152.665 19.9262 151.903 20.9142 151.348C21.9195 150.776 23.0288 150.49 24.2422 150.49C25.4555 150.49 26.5562 150.776 27.5442 151.348C28.5495 151.903 29.3382 152.665 29.9102 153.636C30.4995 154.607 30.7942 155.681 30.7942 156.86C30.7942 158.039 30.4995 159.113 29.9102 160.084C29.3382 161.055 28.5495 161.826 27.5442 162.398C26.5562 162.953 25.4555 163.23 24.2422 163.23ZM24.2422 159.382C24.9528 159.382 25.5248 159.157 25.9582 158.706C26.4088 158.238 26.6342 157.623 26.6342 156.86C26.6342 156.097 26.4088 155.491 25.9582 155.04C25.5248 154.572 24.9528 154.338 24.2422 154.338C23.5315 154.338 22.9508 154.572 22.5002 155.04C22.0668 155.491 21.8502 156.097 21.8502 156.86C21.8502 157.623 22.0668 158.238 22.5002 158.706C22.9508 159.157 23.5315 159.382 24.2422 159.382ZM32.7161 163.1C32.2655 163.1 31.9361 163.074 31.7281 163.022V158.94C31.9361 159.009 32.1528 159.044 32.3781 159.044C32.7248 159.044 32.9761 158.923 33.1321 158.68C33.2881 158.42 33.3748 158.004 33.3921 157.432L33.6001 150.88H44.2081V162.84H40.1521V154.52H37.5001L37.3961 157.432C37.3268 159.408 36.9195 160.847 36.1741 161.748C35.4288 162.649 34.2761 163.1 32.7161 163.1ZM52.832 163.23C51.6187 163.23 50.5093 162.953 49.504 162.398C48.516 161.826 47.7273 161.055 47.138 160.084C46.566 159.113 46.28 158.039 46.28 156.86C46.28 155.681 46.566 154.607 47.138 153.636C47.7273 152.665 48.516 151.903 49.504 151.348C50.5093 150.776 51.6187 150.49 52.832 150.49C54.0453 150.49 55.146 150.776 56.134 151.348C57.1393 151.903 57.928 152.665 58.5 153.636C59.0893 154.607 59.384 155.681 59.384 156.86C59.384 158.039 59.0893 159.113 58.5 160.084C57.928 161.055 57.1393 161.826 56.134 162.398C55.146 162.953 54.0453 163.23 52.832 163.23ZM52.832 159.382C53.5427 159.382 54.1147 159.157 54.548 158.706C54.9987 158.238 55.224 157.623 55.224 156.86C55.224 156.097 54.9987 155.491 54.548 155.04C54.1147 154.572 53.5427 154.338 52.832 154.338C52.1213 154.338 51.5407 154.572 51.09 155.04C50.6567 155.491 50.44 156.097 50.44 156.86C50.44 157.623 50.6567 158.238 51.09 158.706C51.5407 159.157 52.1213 159.382 52.832 159.382ZM69.5878 156.704L73.8258 162.84H69.1458L65.5318 157.25V162.84H61.4758V150.88H65.5318V156.444L69.0678 150.88H73.5138L69.5878 156.704ZM80.1015 163.23C78.8882 163.23 77.7789 162.953 76.7735 162.398C75.7855 161.826 74.9969 161.055 74.4075 160.084C73.8355 159.113 73.5495 158.039 73.5495 156.86C73.5495 155.681 73.8355 154.607 74.4075 153.636C74.9969 152.665 75.7855 151.903 76.7735 151.348C77.7789 150.776 78.8882 150.49 80.1015 150.49C81.3149 150.49 82.4155 150.776 83.4035 151.348C84.4089 151.903 85.1975 152.665 85.7695 153.636C86.3589 154.607 86.6535 155.681 86.6535 156.86C86.6535 158.039 86.3589 159.113 85.7695 160.084C85.1975 161.055 84.4089 161.826 83.4035 162.398C82.4155 162.953 81.3149 163.23 80.1015 163.23ZM80.1015 159.382C80.8122 159.382 81.3842 159.157 81.8175 158.706C82.2682 158.238 82.4935 157.623 82.4935 156.86C82.4935 156.097 82.2682 155.491 81.8175 155.04C81.3842 154.572 80.8122 154.338 80.1015 154.338C79.3909 154.338 78.8102 154.572 78.3595 155.04C77.9262 155.491 77.7095 156.097 77.7095 156.86C77.7095 157.623 77.9262 158.238 78.3595 158.706C78.8102 159.157 79.3909 159.382 80.1015 159.382Z" fill="#150E2E"/>
</svg>
