<svg width="329" height="277" viewBox="0 0 329 277" fill="none" xmlns="http://www.w3.org/2000/svg">
<g clip-path="url(#clip0_455_15)">
<path d="M136.741 101.919C136.741 101.919 121.039 133.926 141.44 175.503C161.84 217.08 159.247 209.716 159.247 209.716C159.247 209.716 102.534 123.792 117.45 95.0278L120.13 90.8574L136.741 101.919Z" fill="#C6B69C"/>
<path d="M114.207 88.3798C114.207 88.3798 56.9181 143.625 62.7094 203.398C62.7094 203.398 64.9683 274.355 152.648 272.568C152.648 272.568 179.903 258.826 171.413 237.548C162.923 216.27 159.253 209.722 159.253 209.722L141.905 180.67C141.905 180.67 116.79 127.926 115.728 115.975C115.728 115.975 112.557 101.597 118.669 93.1566L114.213 88.3858L114.207 88.3798Z" fill="#FD6B3A"/>
<path d="M68.6224 -161.076C68.6224 -161.076 68.5143 -166.799 75.2457 -160.969C75.2457 -160.969 87.4229 -156.758 91.9754 -152.866C91.9754 -152.866 97.5553 -150.365 100.559 -150.115C100.559 -150.115 107.613 -145.586 108.845 -141.352C108.845 -141.352 112.586 -124.631 142.683 -123.741C142.683 -123.741 164.109 -120.586 187.121 -140.886L194.26 -147.797C194.26 -147.797 212.878 -157.028 215.288 -157.29C217.704 -157.552 224.524 -157.542 224.099 -156.142C223.674 -154.743 224.095 -149.718 196.461 -147.56C196.461 -147.56 213.085 -132.941 211.938 -124.225C211.938 -124.225 218.606 -108.26 206.129 -87.7893C193.652 -67.3186 189.503 -52.7351 189.503 -52.7351C189.503 -52.7351 187.814 -47.7448 191.631 -47.6829C195.448 -47.621 214.65 -54.236 222.6 -62.6351C222.6 -62.6351 226.559 -79.0303 229.249 -77.58C231.938 -76.1298 231.691 -67.1033 231.691 -67.1033L258.01 -68.6858L260.398 -67.2405C260.398 -67.2405 254.365 -60.4118 244.798 -58.2621C244.798 -58.2621 252.179 -55.3351 250.74 -53.3491C249.301 -51.363 226.33 -57.9589 226.33 -57.9589L191.595 -7.94471L185.366 4.80258C185.366 4.80258 182.403 20.611 186.829 26.1023C191.255 31.5936 196.291 30.4696 198.522 47.7689L194.599 66.9719C194.599 66.9719 184.789 90.299 182.336 92.8655C179.883 95.438 164.192 103.812 156.67 103.69C149.149 103.568 130.379 103.565 119.892 94.2637C109.405 84.9627 101.637 69.0806 101.637 69.0806L91.7349 11.3152L97.8552 -19.4948C97.8552 -19.4948 101.852 -30.8717 99.4511 -43.5521C97.0447 -56.2385 85.591 -79.9048 85.591 -79.9048C85.591 -79.9048 66.6756 -113.934 73.0735 -125.071C79.4774 -136.208 95.4795 -145.18 95.4795 -145.18L86.3417 -150.948C86.3417 -150.948 73.6683 -149.346 71.1571 -155.208L68.64 -161.07L68.6224 -161.076Z" fill="#C6B69C"/>
<path d="M80.2787 133.519C80.2787 133.519 78.9271 139.962 81.5041 138.131C84.081 136.299 85.0856 115.175 85.0856 115.175L88.0845 111.743C88.0845 111.743 95.6772 122.037 98.9175 120.482C102.158 118.927 90.0052 108.831 90.0052 108.831C90.0052 108.831 93.5857 69.5463 101.625 69.0798C101.625 69.0798 110.475 88.2181 113.625 88.9548L100.151 104.191L94.2825 111.838L80.2845 133.525L80.2787 133.519Z" stroke="black" stroke-width="3" stroke-miterlimit="10"/>
<path d="M72.8825 108.56L58.7022 108.33C58.7022 108.33 56.3385 113.776 72.8174 112.572C72.8174 112.572 61.3248 129.914 65.4006 129.313C69.4765 128.711 66.8816 132.014 66.8816 132.014C66.8816 132.014 78.8747 118.426 80.523 115.912C82.1713 113.397 78.4905 142.107 81.4981 138.137C84.5057 134.167 85.0796 115.182 85.0796 115.182L88.0785 111.75C88.0785 111.75 97.2545 123.541 98.9115 120.489C100.569 117.437 89.9992 108.838 89.9992 108.838C89.9992 108.838 91.9487 70.9979 101.619 69.0863L92.7597 6.07203C92.7597 6.07203 79.6712 62.7729 80.1784 84.329C80.6857 105.885 78.8681 102.44 78.8681 102.44L72.8824 108.566L72.8825 108.56Z" fill="#C6B69C"/>
<path d="M183.943 90.3207C183.943 90.3207 222.804 115.306 226.984 154.516C226.984 154.516 224.589 98.1785 217.742 93.2449C217.742 93.2449 209.914 78.8925 190.971 75.3642C172.027 71.8301 183.943 90.3207 183.943 90.3207Z" fill="#C6B69C"/>
<path d="M226.984 154.509C226.984 154.509 246.297 232.196 278.945 224.097C311.593 215.999 327.322 137.172 321.477 126.238C321.477 126.238 312.147 82.7313 267.806 69.1695C223.465 55.6018 194.582 66.9768 194.582 66.9768L190.965 75.3635C190.965 75.3635 205.687 79.4383 214.217 89.8779C222.747 100.317 226.721 143.498 226.978 154.515L226.984 154.509Z" fill="#FD6B3A"/>
<path d="M71.9573 -115.639C26.9111 -119.26 20.0373 -84.9872 20.0373 -84.9872C20.0373 -84.9872 15.4071 -48.0303 29.1647 -5.35557C42.9223 37.3191 3.84375 70.9395 3.84375 70.9395" stroke="#C6B69C" stroke-width="3" stroke-miterlimit="10"/>
<path d="M69.4735 -163.255C69.4735 -163.255 69.9759 -164.713 71.6771 -163.568C73.3783 -162.418 84.2804 -157.938 88.1281 -155.405C91.9758 -152.873 94.277 -151.919 94.277 -151.919L100.566 -150.121C100.566 -150.121 106.312 -146.245 107.585 -143.802C108.857 -141.358 115.391 -123.327 140.286 -123.857C165.182 -124.387 173.405 -130.376 194.26 -147.797L202.213 -151.657L215.288 -157.29C215.288 -157.29 223.239 -158.467 224.099 -156.143C224.96 -153.818 213.705 -146.377 196.461 -147.561C196.461 -147.561 219.882 -127.873 213.483 -108.645C213.483 -108.645 209.895 -91.4991 204.422 -84.9333C198.949 -78.3674 191.715 -59.0527 191.715 -59.0527C191.715 -59.0527 186.516 -47.8608 191.631 -47.6773C196.746 -47.4939 212.106 -55.1286 212.106 -55.1286L222.6 -62.6295C222.6 -62.6295 225.349 -78.341 229.249 -77.5744C233.149 -76.8079 231.691 -67.0977 231.691 -67.0977L257.466 -68.6476C257.525 -68.6467 257.536 -68.5696 257.476 -68.5588L235.847 -63.5257L259.095 -67.0432C259.456 -67.0965 259.656 -66.6441 259.374 -66.4123C256.566 -64.1943 248.71 -58.2758 244.798 -58.2565C244.798 -58.2565 250.284 -56.1581 250.74 -53.3435C251.197 -50.5288 226.33 -57.9533 226.33 -57.9533L192.993 -9.94946L185.366 4.80816C185.366 4.80816 182.637 24.4323 186.829 26.1079C191.016 27.7833 200.551 37.8313 198.522 47.7745C196.487 57.7176 194.6 66.9774 194.6 66.9774C194.6 66.9774 226.467 56.3896 260.623 67.1444C294.78 77.8991 307.535 92.7451 317.089 113.686C326.642 134.62 321.744 146.207 321.744 146.207C321.744 146.207 315.733 209.24 278.963 224.104C244.197 230.833 227.002 154.516 227.002 154.516C227.002 154.516 222.563 130.532 216.688 124.728C216.688 124.728 191.976 89.1801 183.955 90.3206C183.955 90.3206 176.329 101.018 159.66 103.401C142.991 105.784 136.759 101.925 136.759 101.925C136.759 101.925 124.02 123.614 138.161 168.116L164.686 221.281C164.686 221.281 188.415 260.938 152.666 272.568C152.666 272.568 89.494 278.783 72.7931 235.386C72.7931 235.386 54.4671 204.003 67.504 159.96L80.2964 133.531L80.5408 115.918C80.5408 115.918 68.3803 134.721 66.8994 132.02C65.4184 129.318 77.6255 114.198 77.6255 114.198C77.6255 114.198 66.8711 131.215 65.4184 129.318C63.9658 127.421 72.8352 112.577 72.8352 112.577C72.8352 112.577 57.416 114.402 58.7201 108.336L72.9003 108.566C72.9003 108.566 77.137 103.15 78.886 102.44C80.6351 101.729 80.282 92.161 80.282 92.161C80.282 92.161 79.8522 63.2837 82.7502 54.0462C85.6423 44.8085 87.6657 30.1018 87.6657 30.1018L93.1246 4.35776L95.2997 -10.2283C95.2997 -10.2283 101.873 -34.7309 99.4513 -43.5465C97.0293 -52.3621 87.87 -75.016 87.87 -75.016C87.87 -75.016 70.2746 -108.084 71.5629 -120.102C71.7095 -121.483 71.6642 -121.974 71.8859 -122.886C73.1226 -128.079 74.984 -132.073 95.4796 -145.174L86.3418 -150.943C86.3418 -150.943 76.2472 -149.83 73.7022 -152.513C71.1573 -155.202 67.7274 -158.715 68.6401 -161.064L69.4911 -163.243L69.4735 -163.255Z" stroke="black" stroke-width="3" stroke-miterlimit="10"/>
<path d="M184.417 27.9346L220.456 27.9932" stroke="#C6B69C" stroke-width="1.5" stroke-miterlimit="10"/>
<path d="M191.122 34.7766L227.052 37.4516" stroke="#C6B69C" stroke-width="1.5" stroke-miterlimit="10"/>
<path d="M196.694 44.0002L232.625 46.6753" stroke="#C6B69C" stroke-width="1.5" stroke-miterlimit="10"/>
<path d="M117.509 54.6043L61.6792 81.4814" stroke="#C6B69C" stroke-width="1.5" stroke-miterlimit="10"/>
<path d="M130.174 53.5277C131.855 55.5466 132.69 58.3674 129.974 61.8812C128.996 63.1478 127.587 64.0232 126.038 64.4236C122.424 65.3519 115.83 65.9896 116.585 58.0234C116.834 55.4271 118.431 53.1481 120.778 52.01L121.297 51.7584C124.317 50.2945 128.024 50.9456 130.18 53.5278L130.174 53.5277Z" fill="black"/>
<path d="M180.355 52.1372C181.867 49.9869 182.464 47.1066 179.461 43.831C178.381 42.6492 176.91 41.8925 175.325 41.6245C171.641 40.9974 165.023 40.9078 166.438 48.7851C166.899 51.3516 168.684 53.4904 171.116 54.4282L171.65 54.6319C174.787 55.8411 178.425 54.8836 180.355 52.1313L180.355 52.1372Z" fill="black"/>
<path d="M144.277 37.7575L138.366 43.282C138.366 43.282 145.613 45.0544 152.757 40.7082L144.277 37.7634L144.277 37.7575Z" fill="#D47E5D"/>
<path d="M142.615 35.319L129.961 41.9398L125.246 41.8633C125.246 41.8633 132.635 22.4152 144.248 20.9961C144.248 20.9961 154.907 16.7542 165.677 36.296L142.609 35.3189L142.615 35.319Z" fill="#5B1B19"/>
<path d="M135.236 38.4144L134.144 37.5929C134.144 37.5929 139.258 28.7459 142.129 28.0892C145 27.4325 149.363 27.7042 149.363 27.7042L159.854 36.0538L142.615 35.325L135.236 38.4144Z" fill="#ECE7E3"/>
<path d="M129.408 26.4355C129.408 26.4355 134.974 17.4363 144.021 16.3774C153.069 15.3186 162.413 21.8234 162.413 21.8234" stroke="black" stroke-miterlimit="10"/>
<path d="M116.467 34.2591L101.15 69.8311" stroke="black" stroke-width="2" stroke-miterlimit="10" stroke-linecap="round"/>
</g>
<defs>
<clipPath id="clip0_455_15">
<rect width="321.668" height="437.412" fill="white" transform="matrix(0.999868 0.0162214 0.0162214 -0.999868 0 271.433)"/>
</clipPath>
</defs>
</svg>
