<svg width="285" height="257" viewBox="0 0 285 257" fill="none" xmlns="http://www.w3.org/2000/svg">
<g clip-path="url(#clip0_356_345)">
<path d="M107.543 178.649C110.937 178.351 114.775 177.98 118.665 177.531C124.54 176.854 130.51 176.006 135.241 174.985C137.609 174.475 139.639 173.927 141.181 173.347C141.951 173.057 142.578 172.766 143.057 172.48C143.545 172.188 143.82 171.935 143.953 171.744L144.076 171.567L144.263 171.462L144.266 171.46C144.269 171.458 144.275 171.454 144.284 171.449C144.302 171.439 144.33 171.422 144.368 171.399C144.444 171.353 144.559 171.282 144.708 171.185C145.007 170.99 145.444 170.69 145.979 170.283C147.05 169.469 148.512 168.224 150.054 166.515C153.039 163.204 156.319 158.159 157.662 151.115L157.786 150.427C158.422 146.681 157.929 144.802 157.193 143.911C156.504 143.077 155.351 142.835 153.801 143.087C152.273 143.336 150.622 144.032 149.318 144.696C148.674 145.024 148.131 145.337 147.75 145.566C147.569 145.675 147.423 145.764 147.323 145.828C147.29 145.88 147.251 145.944 147.203 146.017C147.049 146.254 146.82 146.601 146.518 147.041C145.913 147.922 145.017 149.182 143.845 150.703C141.501 153.745 138.046 157.84 133.6 162.059C127.006 168.315 118.188 174.879 107.543 178.649Z" fill="#C6B69C" stroke="black" stroke-width="1.89568"/>
<path d="M81.2437 109.445C96.3736 102.608 109.818 101.656 119.726 102.526C125.099 102.998 129.43 104.006 132.424 104.898C133.922 105.345 135.086 105.763 135.88 106.071C136.054 106.139 136.21 106.202 136.348 106.258L144.048 94.2793L141.53 92.7178C136.059 90.0129 127.766 90.6537 118.149 93.3799C108.574 96.0943 97.9354 100.801 87.9849 105.89C85.6922 107.062 83.4382 108.254 81.2437 109.445Z" fill="#C6B69C" stroke="black" stroke-width="1.89568"/>
<path d="M26.8018 60.335C13.2184 69.5916 -0.185411 87.474 1.02539 122.165C1.03169 122.176 1.03804 122.189 1.04492 122.201C1.12829 122.351 1.25387 122.573 1.4209 122.854C1.75544 123.416 2.25487 124.217 2.90625 125.157C4.21143 127.041 6.11754 129.47 8.53027 131.674C13.3647 136.09 20.0598 139.475 28.0459 136.138C36.5096 132.6 42.0331 130.079 45.4355 128.444C47.1366 127.627 48.307 127.032 49.0488 126.644C49.4196 126.449 49.6832 126.306 49.8525 126.213C49.9371 126.166 49.9981 126.131 50.0371 126.109C50.0492 126.103 50.0595 126.097 50.0674 126.093L73.1387 111.805L73.1875 111.773L73.2412 111.749L73.249 111.745C73.2543 111.743 73.2623 111.739 73.2725 111.734C73.2932 111.725 73.3245 111.711 73.3652 111.692C73.4469 111.655 73.5682 111.599 73.7266 111.526C74.0436 111.381 74.5095 111.167 75.1055 110.895C76.2974 110.349 78.0096 109.568 80.0908 108.625C84.2533 106.738 89.8934 104.201 95.8027 101.599C101.711 98.997 107.894 96.3287 113.14 94.1807C118.356 92.0445 122.722 90.3902 124.955 89.8545H124.957L125.176 90.7764C124.972 89.917 124.959 89.8585 124.958 89.8545H124.959L124.961 89.8535C124.963 89.8531 124.966 89.8523 124.969 89.8516C124.976 89.85 124.986 89.8475 124.998 89.8447C125.023 89.8391 125.058 89.8313 125.104 89.8213C125.195 89.8012 125.328 89.7731 125.498 89.7393C125.838 89.6715 126.327 89.5812 126.935 89.4883C128.148 89.3027 129.84 89.1054 131.755 89.0625C135.323 88.9826 139.817 89.4326 143.397 91.6309L145.922 89.1963C145.596 88.8836 145.158 88.4668 144.612 87.9619C143.297 86.7456 141.363 85.0105 138.891 82.9443C133.946 78.8111 126.856 73.3567 118.282 68.0723C101.107 57.4867 78.1043 47.6654 54.4883 50.3408L54.458 50.3438L54.4277 50.3457H54.4219C54.4165 50.346 54.4076 50.346 54.3955 50.3467C54.3713 50.3481 54.3337 50.3511 54.2832 50.3545C54.1822 50.3614 54.0292 50.3726 53.8281 50.3906C53.426 50.4266 52.8306 50.4889 52.0713 50.5928C50.5522 50.8006 48.377 51.1748 45.7715 51.8418C40.5565 53.1768 33.6361 55.6776 26.8018 60.335Z" fill="#FD6B3A" stroke="black" stroke-width="1.89568"/>
<path d="M346.725 49.3989C346.725 49.3989 351.312 49.2378 346.725 54.7116C346.725 54.7116 343.507 64.5312 340.445 68.2325C340.445 68.2325 338.512 72.7395 338.351 75.1518C338.351 75.1518 334.81 80.8673 331.431 81.9099C331.431 81.9099 318.071 85.1278 317.749 109.274C317.749 109.274 315.498 126.496 332.076 144.685L337.711 150.32C337.711 150.32 345.355 165.13 345.597 167.059C345.839 168.993 345.919 174.462 344.791 174.14C343.663 173.817 339.64 174.22 337.55 152.088C337.55 152.088 326.043 165.609 319.038 164.803C319.038 164.803 306.323 170.358 289.745 160.619C273.168 150.88 261.419 147.742 261.419 147.742C261.419 147.742 257.395 146.453 257.395 149.515C257.395 152.576 262.95 167.889 269.788 174.154C269.788 174.154 282.987 177.116 281.859 179.291C280.731 181.466 273.49 181.386 273.49 181.386L275.101 202.471L273.973 204.404C273.973 204.404 268.419 199.656 266.571 192.011C266.571 192.011 264.319 197.968 262.708 196.84C261.097 195.713 266.087 177.206 266.087 177.206L225.529 150.003L215.226 145.174C215.226 145.174 202.511 143.003 198.165 146.624C193.819 150.245 194.786 154.268 180.943 156.282L165.493 153.387C165.493 153.387 146.659 145.823 144.569 143.889C142.474 141.956 135.555 129.482 135.555 123.449C135.555 117.416 135.313 102.364 142.636 93.8338C149.958 85.3032 162.592 78.8673 162.592 78.8673L208.785 70.1756L233.571 74.6826C233.571 74.6826 242.747 77.7394 252.884 75.6494C263.026 73.5547 281.854 64.062 281.854 64.062C281.854 64.062 308.896 48.4511 317.91 53.4367C326.924 58.4271 334.327 71.1424 334.327 71.1424L338.834 63.7398C338.834 63.7398 337.384 53.5979 342.052 51.5079L346.72 49.4132L346.725 49.3989Z" fill="#C6B69C" stroke="black" stroke-width="1.89568" stroke-miterlimit="10"/>
<path d="M128.206 68.5542C128.206 68.5542 120.05 74.7768 121.339 77.3549C122.628 79.933 130.566 70.0565 130.566 70.0565C130.566 70.0565 162.115 72.4166 162.593 78.8572C162.593 78.8572 147.362 86.203 146.812 88.7385L134.419 78.1321L128.21 73.5256L110.638 62.5828C110.638 62.5828 99.5241 58.289 101.183 58.7631" stroke="black" stroke-width="1.42176" stroke-miterlimit="10"/>
<path d="M130.717 56.3232C130.717 56.3232 129.495 53.0911 127.499 56.3232C127.499 56.3232 123.746 56.3564 124.281 59.617C124.281 59.617 122.443 57.5175 123.21 61.8586C123.855 65.5078 119.135 63.4036 122.353 65.7637L125.571 68.1239L128.362 68.5551C128.362 68.5551 119.026 76.0668 121.495 77.3558C123.964 78.6449 130.722 70.0575 130.722 70.0575C130.722 70.0575 161.091 71.1285 162.75 78.8582L213.165 70.9342C213.165 70.9342 167.527 61.1762 150.248 61.8634C132.968 62.5505 135.708 61.0482 135.708 61.0482L130.717 56.328V56.3232Z" fill="#C6B69C"/>
<path d="M46.1729 205.727C41.4517 210.808 39.0853 216.406 40.7002 222.491C42.3435 228.684 47.3806 234.131 54.3525 238.754C61.3065 243.365 70.0625 247.075 78.9141 249.835C87.761 252.594 96.6604 254.392 103.874 255.199C107.482 255.603 110.65 255.757 113.168 255.665C115.736 255.571 117.476 255.224 118.35 254.739L118.466 254.674L118.596 254.644C118.596 254.643 118.598 254.644 118.6 254.644C118.603 254.643 118.608 254.641 118.615 254.64C118.63 254.636 118.652 254.631 118.683 254.623C118.744 254.608 118.838 254.584 118.962 254.552C119.21 254.487 119.578 254.386 120.053 254.244C121.003 253.961 122.378 253.514 124.063 252.867C127.436 251.573 132.042 249.478 136.965 246.282C146.807 239.892 157.894 229.116 162.964 211.524C168.078 193.787 168.274 179.224 167.199 169.113C166.662 164.057 165.806 160.112 165.088 157.439C164.729 156.103 164.405 155.085 164.172 154.405C164.08 154.137 164 153.921 163.94 153.76L158.407 151.479C158.282 151.765 158.129 152.119 157.944 152.527C157.405 153.723 156.623 155.402 155.649 157.344C153.706 161.219 150.986 166.168 147.901 170.39L147.752 170.594L147.521 170.697C141.543 173.348 130.282 175.571 119.677 177.313C109.057 179.058 99.1033 180.32 95.1865 181.068L95.1533 181.078H95.1514C95.1497 181.079 95.147 181.079 95.1436 181.08L94.9824 181.124C94.8674 181.155 94.6956 181.203 94.4717 181.266C94.0235 181.392 93.3647 181.581 92.5283 181.83C90.8555 182.329 88.4713 183.072 85.6309 184.044C79.946 185.99 72.4499 188.851 65.1787 192.517C57.894 196.189 50.9037 200.635 46.1729 205.727Z" fill="#FD6B3A" stroke="black" stroke-width="1.89568"/>
<path d="M310.332 52.6656C312.65 16.4959 285.077 11.4297 285.077 11.4297C285.077 11.4297 255.381 8.19757 221.339 19.7849C187.302 31.3723 159.829 0.472656 159.829 0.472656" stroke="#C6B69C" stroke-width="3.38835" stroke-miterlimit="10"/>
<path d="M196.73 148.723L197.157 177.622" stroke="black" stroke-width="0.23696" stroke-miterlimit="10"/>
<path d="M191.321 153.385L189.643 182.232" stroke="black" stroke-width="0.23696" stroke-miterlimit="10"/>
<path d="M174.41 91.405L152.131 46.9844" stroke="black" stroke-width="0.23696" stroke-miterlimit="10"/>
<path d="M175.441 101.548C173.844 102.922 171.592 103.628 168.739 101.496C167.711 100.728 166.991 99.6095 166.649 98.3725C165.858 95.4863 165.261 90.2069 171.659 90.7092C173.744 90.8751 175.592 92.1262 176.535 93.9935L176.744 94.4058C177.957 96.8086 177.483 99.7895 175.441 101.553V101.548Z" fill="black"/>
<path d="M177.201 141.772C178.945 142.957 181.262 143.397 183.85 140.947C184.783 140.066 185.371 138.876 185.565 137.601C186.02 134.639 186.006 129.331 179.708 130.568C177.656 130.971 175.964 132.431 175.243 134.393L175.087 134.824C174.158 137.355 174.973 140.26 177.205 141.772H177.201Z" fill="black"/>
<path d="M188.263 112.651L183.756 107.982C183.756 107.982 182.429 113.816 186.007 119.489L188.259 112.651H188.263Z" fill="#D47E5D"/>
<path d="M190.196 111.289L184.723 101.227V97.4453C184.723 97.4453 200.414 103.118 201.703 112.412C201.703 112.412 205.243 120.904 189.713 129.795L190.196 111.284V111.289Z" fill="#5B1B19"/>
<path d="M187.623 105.412L188.267 104.525C188.267 104.525 195.428 108.511 195.992 110.805C196.556 113.099 196.395 116.601 196.395 116.601L189.836 125.122L190.196 111.288L187.623 105.412Z" fill="#ECE7E3"/>
<path d="M197.156 100.582C197.156 100.582 204.445 104.928 205.412 112.169C206.379 119.411 201.284 126.989 201.284 126.989" stroke="black" stroke-width="0.473921" stroke-miterlimit="10"/>
<path d="M191.32 90.6711L166.174 78.8516H162.591L191.32 90.6711Z" stroke="black" stroke-width="0.473921" stroke-miterlimit="10"/>
<path d="M201.339 140.498C201.339 140.498 195.918 154.303 188.43 155.289L183.354 190.876" stroke="black" stroke-width="0.23696" stroke-miterlimit="10"/>
<path d="M128.361 68.5585L125.569 68.1273C125.569 68.1273 120.844 64.9093 121.219 64.6392C121.593 64.3691 122.93 64.1084 123.096 63.3596C123.261 62.6108 122.66 59.2033 123.238 59.2175C123.816 59.2318 123.631 58.919 124.28 59.6204C124.28 59.6204 124.124 57.7389 125.252 57.0043C126.38 56.2698 127.498 56.3266 127.498 56.3266C127.498 56.3266 128.569 54.7153 129.181 54.8954C129.792 55.0755 130.46 55.3219 130.721 56.3266L135.711 61.0469C135.711 61.0469 135.1 61.2412 136.005 61.5872C136.91 61.9331 143.801 62.2033 144.394 62.0279C144.394 62.0279 158.37 61.7246 160.772 62.2838L171.265 63.4923L193.35 67.0562L204.42 69.1509L217.363 71.7243L228.69 73.7859C228.69 73.7859 241.69 77.018 247.291 76.3308C252.893 75.6436 266.831 71.5063 276.001 66.8761C285.172 62.2459 306.067 53.4168 308.204 53.0424C310.342 52.668 320.924 48.815 334.336 71.1319" stroke="black" stroke-width="1.89568" stroke-miterlimit="10"/>
</g>
<defs>
<clipPath id="clip0_356_345">
<rect width="256.979" height="349" fill="white" transform="matrix(0 1 1 0 0 0)"/>
</clipPath>
</defs>
</svg>
