<svg width="204" height="233" viewBox="0 0 204 233" fill="none" xmlns="http://www.w3.org/2000/svg">
<path d="M111.078 69.8641C111.662 71.6023 112.306 73.5749 112.923 75.5898C113.854 78.6342 114.722 81.7622 115.238 84.3162C115.496 85.5946 115.662 86.7139 115.708 87.5996C115.731 88.0425 115.724 88.4148 115.686 88.7123C115.647 89.0162 115.581 89.2066 115.515 89.3131L115.455 89.411L115.442 89.5262C115.442 89.5264 115.442 89.5273 115.442 89.5284C115.442 89.5306 115.441 89.5343 115.441 89.5397C115.439 89.5505 115.438 89.5679 115.434 89.5914C115.428 89.6387 115.417 89.7113 115.401 89.8062C115.37 89.9958 115.317 90.2757 115.231 90.6274C115.06 91.3311 114.761 92.3206 114.249 93.4495C113.227 95.7061 111.36 98.5162 107.978 100.73C106.267 101.851 105.233 102.013 104.635 101.841C104.075 101.681 103.707 101.165 103.497 100.346C103.291 99.538 103.279 98.5728 103.326 97.7863C103.349 97.3983 103.386 97.0633 103.417 96.8259C103.432 96.7124 103.445 96.6212 103.455 96.558C103.473 96.5305 103.495 96.4975 103.521 96.4587C103.605 96.3312 103.727 96.1436 103.879 95.8996C104.184 95.4116 104.612 94.6984 105.11 93.7923C106.106 91.9805 107.382 89.3936 108.506 86.2913C110.172 81.6911 111.51 75.9275 111.078 69.8641Z" fill="#C6B69C" stroke="black" stroke-width="1.02058"/>
<path d="M71.2704 71.7833C71.1545 80.726 73.5805 87.5682 76.1453 92.2709C77.5356 94.8201 78.9658 96.7395 80.0513 98.0245C80.5941 98.667 81.0516 99.1513 81.3748 99.4766C81.4454 99.5477 81.5109 99.6101 81.5683 99.666L77.3162 106.047L75.9986 105.138C73.4881 103.02 72.0191 98.7916 71.2929 93.4625C70.5694 88.1535 70.5997 81.8909 70.9665 75.8853C71.0512 74.4981 71.1552 73.1258 71.2704 71.7833Z" fill="#C6B69C" stroke="black" stroke-width="1.02058"/>
<path d="M35.3096 55.513C36.9505 46.817 42.8855 36.3509 60.2624 29.4748C60.2695 29.4755 60.2769 29.4761 60.2846 29.4768C60.3764 29.4857 60.5132 29.5004 60.6881 29.5223C61.0378 29.5661 61.5403 29.6393 62.1443 29.7581C63.355 29.9962 64.9635 30.4142 66.5708 31.1298C69.7913 32.5636 72.9036 35.1369 72.9773 39.7962C73.0553 44.7341 73.0014 48.0027 72.928 50.0335C72.8913 51.0488 72.8498 51.7545 72.8177 52.2043C72.8017 52.4289 72.7883 52.5898 72.7787 52.6934C72.7739 52.7451 72.77 52.783 72.7676 52.807C72.7664 52.8186 72.7655 52.8273 72.7649 52.8327C72.7647 52.835 72.7643 52.8372 72.7642 52.8383L72.7637 52.8396L70.6854 67.2864L70.682 67.3178L70.6808 67.3492L70.6812 67.3501C70.6812 67.3508 70.6806 67.3522 70.6806 67.3535C70.6805 67.3566 70.6804 67.3615 70.6803 67.3675C70.68 67.3797 70.6801 67.3982 70.6796 67.4222C70.6787 67.4706 70.6772 67.5432 70.6754 67.6371C70.672 67.8248 70.6671 68.1007 70.661 68.4533C70.6488 69.1587 70.6323 70.1715 70.6152 71.4015C70.581 73.8617 70.5438 77.1913 70.5329 80.6676C70.5221 84.1432 70.5382 87.7687 70.6084 90.8196C70.6782 93.8535 70.8027 96.3645 71.0194 97.5814L71.0198 97.5823L71.0196 97.5845L71.023 97.6043C71.0255 97.6177 71.0295 97.6375 71.0344 97.6622C71.0442 97.7116 71.0591 97.7832 71.0789 97.874C71.1187 98.0563 71.1799 98.3171 71.2649 98.6368C71.4348 99.2755 71.7017 100.153 72.0929 101.107C72.822 102.884 74.0124 105.004 75.8681 106.297L75.2106 108.066C74.9861 107.973 74.6857 107.848 74.3194 107.687C73.436 107.301 72.1632 106.72 70.6114 105.945C67.5068 104.396 63.2883 102.073 58.834 98.9816C49.9112 92.7879 40.1102 83.5543 36.3427 71.3261L36.3378 71.3101L36.3321 71.2945C36.3319 71.294 36.3314 71.293 36.3309 71.2918C36.3299 71.2892 36.3285 71.2848 36.3263 71.2789C36.3218 71.2667 36.3148 71.2474 36.3057 71.2219C36.2873 71.1705 36.2599 71.0925 36.2255 70.9894C36.1566 70.7833 36.0589 70.4766 35.9466 70.0797C35.7218 69.2854 35.4379 68.1308 35.2057 66.7013C34.7409 63.8407 34.4841 59.8882 35.3096 55.513Z" fill="#FD6B3A" stroke="black" stroke-width="1.02058"/>
<path d="M93.4633 225.246C93.4633 225.246 94.3665 226.529 96.0789 223.087C96.0789 223.087 100.231 219.383 101.397 217.076C101.397 217.076 103.204 215.151 104.36 214.551C104.36 214.551 111.794 203.058 111.58 201.166C111.58 201.166 110.29 193.881 122.134 188.52C122.134 188.52 130.146 183.699 142.692 187.96L146.686 189.526C146.686 189.526 155.64 190.108 156.643 189.811C157.65 189.514 160.365 188.376 159.963 187.888C159.561 187.401 158.893 185.329 147.523 189.066C147.523 189.066 151.715 180.476 149.809 177.194C149.809 177.194 149.81 169.723 141.434 163.642C133.057 157.561 128.978 152.44 128.978 152.44C128.978 152.44 127.476 150.733 128.986 150.073C130.497 149.414 133.282 125.46 137.846 127.485C137.846 127.485 139.261 125.675 144.115 127.374C142.378 121.377 144.629 119.806 144.629 119.806L145.911 116.015C145.911 116.015 146.922 114.772 142.752 115.507C142.752 115.507 142.948 114.437 142.044 113.885C141.14 113.333 136.116 123.523 136.116 123.523L122.362 134.245L117.76 130.202C117.76 130.202 113.95 124.396 114.8 121.472C115.65 118.548 117.844 118.158 115.855 110.894L111.098 103.895C111.098 103.895 103.309 96.2324 101.905 95.6178C100.499 95.0008 92.8544 94.2741 89.8778 95.5738C86.9012 96.8735 79.4227 99.9968 76.7912 105.447C74.1597 110.897 73.7062 118.518 73.7062 118.518L77.8047 138.248L86.9324 154.44C86.9324 154.44 90.4172 158.308 91.5698 163.76C92.7211 169.215 92.0938 180.55 92.0938 180.55C92.0938 180.55 90.2172 197.255 94.6189 200.629C99.0229 204.001 101.515 213.43 101.515 213.43L98.8335 217.248C98.8335 217.248 93.5172 218.718 93.4916 221.471L93.4637 224.226L93.4633 225.246Z" fill="#C6B69C" stroke="black" stroke-width="1.02058" stroke-miterlimit="10"/>
<path d="M55.8541 125.82C55.8541 125.82 53.982 126.255 54.5261 124.132C54.5261 124.132 52.991 122.153 54.5915 121.348C54.5915 121.348 52.9444 121.083 55.0979 120.04C56.9079 119.163 54.0695 117.388 56.3961 118.29L58.7227 119.192L56.6147 123.905C56.6147 123.905 55.9396 116.507 57.5041 117.373C59.0685 118.239 61.6669 121.25 61.6669 121.25C61.6669 121.25 74.6535 136.822 78.6084 135.118L96.0628 164.199C96.0628 164.199 73.0989 143.511 66.2584 134.219C59.4179 124.928 59.9128 126.864 59.9128 126.864L55.8561 125.819L55.8541 125.82Z" fill="#C6B69C"/>
<path d="M111.218 33.7474C112.708 30.3234 114.959 27.9501 118.31 27.4358C121.719 26.9125 125.492 28.2238 129.275 30.6677C133.048 33.1053 136.764 36.6271 140.033 40.3997C143.3 44.1703 146.105 48.1735 148.057 51.5586C149.034 53.2517 149.793 54.7816 150.29 56.044C150.797 57.3312 151 58.2652 150.949 58.8006L150.942 58.872L150.955 58.9418L150.955 58.9439C150.955 58.9456 150.956 58.9488 150.957 58.9528C150.958 58.9607 150.96 58.9729 150.963 58.9894C150.969 59.023 150.978 59.0744 150.988 59.1425C151.01 59.2787 151.039 59.4828 151.071 59.7477C151.136 60.2775 151.212 61.0524 151.256 62.0231C151.344 63.9656 151.303 66.6893 150.787 69.8066C149.754 76.0393 146.825 83.8309 139.238 90.1221C131.588 96.4665 124.445 99.7006 119.225 101.348C116.615 102.173 114.484 102.6 113.011 102.821C112.275 102.932 111.702 102.992 111.317 103.023C111.164 103.036 111.04 103.043 110.947 103.048L108.63 100.81C108.745 100.686 108.887 100.534 109.049 100.355C109.522 99.8317 110.183 99.0838 110.931 98.1855C112.424 96.3919 114.279 93.9834 115.698 91.5518L115.767 91.4342L115.767 91.2978C115.787 87.7776 114.459 81.7426 113.034 76.1345C111.604 70.5105 110.08 65.3202 109.608 63.2328L109.608 63.2245L109.608 63.2232C109.608 63.2223 109.608 63.2203 109.607 63.2184C109.607 63.2146 109.605 63.209 109.604 63.2016C109.602 63.1857 109.599 63.1611 109.594 63.1293C109.585 63.0658 109.571 62.9712 109.554 62.8474C109.52 62.5991 109.471 62.2336 109.414 61.7673C109.3 60.8345 109.152 59.4979 109.02 57.887C108.755 54.663 108.552 50.3481 108.794 45.9709C109.037 41.5854 109.724 37.1786 111.218 33.7474Z" fill="#FD6B3A" stroke="black" stroke-width="1.02058"/>
<path d="M92.6056 197.056C75.2592 205.991 66.8196 193.478 66.8196 193.478C66.8196 193.478 58.8276 179.523 57.2111 160.231C55.5957 140.941 34.4316 134.043 34.4316 134.043" stroke="#C6B69C" stroke-width="1.82419" stroke-miterlimit="10"/>
<path d="M115.527 120.312L129.878 114.297" stroke="black" stroke-width="0.127572" stroke-miterlimit="10"/>
<path d="M116.661 116.638L130.533 109.596" stroke="black" stroke-width="0.127572" stroke-miterlimit="10"/>
<path d="M82.4379 121.647L55.7217 120.225" stroke="black" stroke-width="0.127572" stroke-miterlimit="10"/>
<path d="M87.6646 119.971C87.9986 118.887 87.8621 117.624 86.1952 116.676C85.5949 116.334 84.8879 116.22 84.2041 116.318C82.6096 116.549 79.8761 117.392 81.5022 120.44C82.0333 121.433 83.0488 122.076 84.1732 122.139L84.4216 122.153C85.8684 122.234 87.2371 121.358 87.6669 119.97L87.6646 119.971Z" fill="black"/>
<path d="M107.889 112.174C108.85 112.78 109.566 113.828 108.915 115.633C108.681 116.283 108.221 116.829 107.634 117.2C106.27 118.063 103.648 119.199 102.902 115.825C102.658 114.726 103.014 113.576 103.827 112.798L104.006 112.628C105.055 111.625 106.664 111.401 107.89 112.177L107.889 112.174Z" fill="black"/>
<path d="M95.9051 123.905L92.6309 122.687C92.6309 122.687 95.2235 120.776 98.7932 121.319L95.9041 123.903L95.9051 123.905Z" fill="#D47E5D"/>
<path d="M95.649 125.152L89.5056 124.619L87.6396 125.434C87.6396 125.434 93.819 131.954 98.682 130.587C98.682 130.587 103.635 130.505 104.676 120.927L95.6466 125.153L95.649 125.152Z" fill="#5B1B19"/>
<path d="M92.1951 125.149L91.8967 125.658C91.8967 125.658 95.4058 128.332 96.659 128.116C97.9123 127.901 99.6055 127.067 99.6055 127.067L102.397 121.995L95.6489 125.153L92.1951 125.149Z" fill="#ECE7E3"/>
<path d="M91.8662 130.893C91.8662 130.893 95.5806 133.553 99.3618 132.47C103.143 131.387 105.784 127.24 105.784 127.24" stroke="black" stroke-width="0.255145" stroke-miterlimit="10"/>
<path d="M85.719 130.15L74.4701 120.289L73.6982 118.521L85.719 130.15Z" stroke="black" stroke-width="0.255145" stroke-miterlimit="10"/>
<path d="M112.461 124.358C112.461 124.358 118.105 118.709 116.978 114.802L133.443 104.632" stroke="black" stroke-width="0.127572" stroke-miterlimit="10"/>
<path d="M90.3053 159.248L75.8053 144.748C71.3053 139.748 62.0053 129.148 60.8053 126.748L55.8053 125.748C54.8053 125.582 53.1053 125.048 54.3053 124.248C53.9719 123.248 53.6052 121.248 54.8052 121.248H54.3052C54.3052 120.748 54.5052 119.748 55.3052 119.748C56.1052 119.748 55.6385 118.748 55.3052 118.248C55.3052 117.915 55.6052 117.448 56.8052 118.248L57.3052 117.248C57.9718 117.415 59.8052 118.448 61.8052 121.248C63.8052 124.048 67.3052 127.748 68.8052 129.248C71.8052 131.915 77.3052 136.348 77.3052 134.748" stroke="black" stroke-linecap="round"/>
</svg>
