<svg width="185" height="251" viewBox="0 0 185 251" fill="none" xmlns="http://www.w3.org/2000/svg">
<g clip-path="url(#clip0_382_4)">
<path d="M56.3371 77.3457C56.5514 79.7864 56.8172 82.5466 57.1398 85.3438C57.6272 89.5687 58.2372 93.8621 58.9709 97.2646C59.3381 98.9677 59.7321 100.427 60.1496 101.536C60.3583 102.09 60.5671 102.542 60.7727 102.886C60.9825 103.237 61.164 103.435 61.301 103.53L61.4289 103.619L61.5051 103.753C61.5053 103.753 61.5054 103.755 61.5061 103.756C61.5075 103.758 61.5104 103.763 61.5139 103.769C61.5213 103.781 61.5335 103.802 61.55 103.829C61.5831 103.884 61.6343 103.967 61.7043 104.074C61.8446 104.289 62.0592 104.604 62.3518 104.988C62.9375 105.758 63.8332 106.809 65.0627 107.918C67.4436 110.065 71.0723 112.425 76.1379 113.391L76.633 113.479C79.3267 113.937 80.6791 113.582 81.3195 113.053C81.9192 112.557 82.0937 111.728 81.9123 110.613C81.7334 109.514 81.2319 108.327 80.7541 107.39C80.5181 106.927 80.294 106.535 80.1291 106.261C80.0509 106.131 79.9864 106.027 79.9406 105.955C79.9032 105.931 79.8575 105.902 79.8049 105.868C79.6341 105.757 79.3853 105.592 79.0686 105.375C78.4346 104.94 77.528 104.295 76.4338 103.452C74.2461 101.766 71.3014 99.2815 68.2678 96.084C63.7689 91.342 59.049 85.001 56.3371 77.3457Z" fill="#C6B69C" stroke="black" stroke-width="1.36337"/>
<path d="M106.088 58.3945C111.02 69.2905 111.71 78.972 111.083 86.1055C110.744 89.9701 110.019 93.0847 109.377 95.2383C109.056 96.3152 108.755 97.1526 108.533 97.7236C108.485 97.8485 108.437 97.9594 108.397 98.0586L117.015 103.598L118.139 101.783C120.082 97.8486 119.621 91.8851 117.661 84.9707C115.709 78.0844 112.324 70.4337 108.664 63.2773C107.815 61.6164 106.951 59.9837 106.088 58.3945Z" fill="#C6B69C" stroke="black" stroke-width="1.36337"/>
<path d="M141.427 19.2764C134.77 9.50718 121.909 -0.133546 96.9592 0.737305C96.9511 0.741768 96.9425 0.746107 96.9338 0.750977C96.8261 0.810952 96.6664 0.902206 96.4641 1.02246C96.0594 1.26304 95.4839 1.6215 94.8078 2.08984C93.4529 3.02849 91.7066 4.39952 90.1213 6.13477C86.9449 9.61166 84.51 14.4263 86.9104 20.1699C89.4544 26.257 91.2681 30.2297 92.4436 32.6768C93.0311 33.8999 93.4588 34.7418 93.7385 35.2754C93.8782 35.5418 93.9809 35.7317 94.048 35.8535C94.0814 35.9141 94.1064 35.9582 94.1223 35.9863C94.1302 36.0004 94.1363 36.0113 94.1398 36.0176C94.1415 36.0204 94.1431 36.0222 94.1438 36.0234V36.0244L104.41 52.6006L104.433 52.6367L104.45 52.6748L104.451 52.6758C104.452 52.6767 104.452 52.6788 104.453 52.6807C104.455 52.6844 104.458 52.69 104.461 52.6973C104.468 52.7122 104.478 52.7344 104.491 52.7637C104.518 52.8224 104.558 52.9096 104.611 53.0234C104.715 53.2514 104.869 53.587 105.065 54.0156C105.457 54.8728 106.019 56.1038 106.697 57.6006C108.054 60.5942 109.879 64.6513 111.75 68.9014C113.621 73.1506 115.541 77.5966 117.086 81.3691C118.622 85.1208 119.811 88.2614 120.196 89.8672L120.197 89.8691V89.8721C120.198 89.8735 120.199 89.8756 120.199 89.8779C120.201 89.8828 120.202 89.8898 120.204 89.8984C120.208 89.9161 120.214 89.9419 120.221 89.9746C120.235 90.0404 120.256 90.1357 120.28 90.2578C120.329 90.5022 120.393 90.8543 120.46 91.291C120.594 92.1639 120.735 93.381 120.766 94.7578C120.823 97.3238 120.501 100.556 118.92 103.131L120.671 104.946C120.896 104.712 121.196 104.397 121.559 104.005C122.434 103.059 123.68 101.667 125.166 99.8896C128.139 96.3332 132.062 91.2348 135.863 85.0684C143.476 72.716 150.539 56.1729 148.615 39.1885L148.613 39.166L148.612 39.1445C148.611 39.1438 148.612 39.1416 148.612 39.1396C148.611 39.1358 148.611 39.1296 148.611 39.1211C148.61 39.1037 148.608 39.0764 148.606 39.04C148.601 38.9674 148.592 38.8573 148.579 38.7129C148.553 38.4237 148.508 37.9961 148.434 37.4502C148.284 36.3577 148.015 34.793 147.535 32.9189C146.575 29.1684 144.776 24.1916 141.427 19.2764Z" fill="#FD6B3A" stroke="black" stroke-width="1.36337"/>
<path d="M149.292 249.364C149.292 249.364 149.408 252.663 145.471 249.364C145.471 249.364 138.409 247.049 135.747 244.847C135.747 244.847 132.505 243.457 130.77 243.341C130.77 243.341 126.66 240.795 125.91 238.365C125.91 238.365 123.596 228.756 106.23 228.524C106.23 228.524 93.8435 226.905 80.762 238.828L76.7094 242.881C76.7094 242.881 66.058 248.379 64.6708 248.552C63.2802 248.726 59.3468 248.784 59.5786 247.973C59.8104 247.162 59.5207 244.268 75.438 242.765C75.438 242.765 65.7138 234.489 66.2932 229.452C66.2932 229.452 62.2985 220.307 69.3028 208.384C76.3072 196.461 78.5635 188.012 78.5635 188.012C78.5635 188.012 79.4906 185.118 77.2888 185.118C75.087 185.118 64.0743 189.113 59.5684 194.031C59.5684 194.031 57.4381 203.524 55.8736 202.712C54.3092 201.901 54.3671 196.693 54.3671 196.693L39.203 197.852L37.8124 197.041C37.8124 197.041 41.2276 193.046 46.7254 191.717C46.7254 191.717 42.441 190.098 43.2522 188.939C44.0634 187.78 57.3733 191.369 57.3733 191.369L76.9377 162.2L80.4109 154.79C80.4109 154.79 81.972 145.645 79.3679 142.52C76.7639 139.394 73.8701 140.089 72.4216 130.133L74.5041 119.022C74.5041 119.022 79.944 105.477 81.3346 103.974C82.7252 102.467 91.6962 97.4909 96.0352 97.4909C100.374 97.4909 111.199 97.3171 117.334 102.583C123.47 107.849 128.098 116.936 128.098 116.936L134.349 150.158L131.108 167.984C131.108 167.984 128.909 174.583 130.413 181.873C131.919 189.167 138.746 202.709 138.746 202.709C138.746 202.709 149.974 222.158 146.388 228.64C142.799 235.123 133.654 240.447 133.654 240.447L138.978 243.689C138.978 243.689 146.272 242.646 147.775 246.003L149.282 249.36L149.292 249.364Z" fill="#C6B69C" stroke="black" stroke-width="1.36337" stroke-miterlimit="10"/>
<path d="M153.774 179.517C153.774 179.517 156.255 179.65 154.476 181.722C154.476 181.722 155.272 184.302 152.92 184.646C152.92 184.646 154.76 185.448 151.618 185.869C148.976 186.223 151.448 188.999 149.129 187.309L146.809 185.618L151.843 181.302C151.843 181.302 148.732 189.338 147.31 187.928C145.888 186.517 144.36 182.51 144.36 182.51C144.36 182.51 137.001 161.931 131.342 162.481L125.774 126.202C125.774 126.202 142.418 155.349 145.716 167.341C149.015 179.333 149.447 177.128 149.447 177.128L153.77 179.518L153.774 179.517Z" fill="#C6B69C"/>
<path d="M36.8605 33.207C33.206 29.8116 29.1807 28.1091 24.8039 29.2705C20.3502 30.4523 16.4327 34.0756 13.1076 39.0898C9.7912 44.0911 7.12317 50.3888 5.13789 56.7549C3.15379 63.1173 1.86137 69.5172 1.28047 74.7051C0.989937 77.2999 0.87825 79.5785 0.944534 81.3896C1.01213 83.2364 1.26254 84.4881 1.61153 85.1162L1.6584 85.2002L1.67989 85.293C1.67997 85.2933 1.67963 85.2948 1.67989 85.2959C1.6804 85.2981 1.68162 85.3016 1.68282 85.3066C1.68531 85.3171 1.68907 85.3343 1.69453 85.3564C1.70546 85.4007 1.72293 85.4679 1.74629 85.5566C1.79314 85.7347 1.86606 85.9995 1.96797 86.3408C2.17197 87.0241 2.49297 88.0134 2.95821 89.2256C3.88903 91.6508 5.39501 94.9634 7.69356 98.5039C12.2892 105.583 20.0395 113.557 32.6916 117.203C45.4481 120.881 55.9217 121.022 63.1936 120.249C66.83 119.862 69.6671 119.247 71.5891 118.73C72.5499 118.472 73.2818 118.239 73.7707 118.071C73.964 118.005 74.1192 117.948 74.2355 117.905L75.8762 113.926C75.6699 113.835 75.4152 113.725 75.1213 113.593C74.2618 113.205 73.0543 112.642 71.6584 111.942C68.8712 110.545 65.3122 108.589 62.2756 106.37L62.1281 106.263L62.0539 106.096C60.1476 101.797 58.5482 93.6978 57.2951 86.0703C56.0407 78.4343 55.1331 71.2768 54.5949 68.459L54.5881 68.4336V68.4326C54.5878 68.4314 54.5868 68.4293 54.5861 68.4268C54.5848 68.4217 54.583 68.4136 54.5803 68.4033C54.5747 68.3826 54.5661 68.3516 54.5549 68.3105C54.5323 68.2279 54.4986 68.1044 54.4533 67.9434C54.3628 67.621 54.2265 67.1474 54.0471 66.5459C53.6882 65.3428 53.1545 63.6279 52.4553 61.585C51.0558 57.4964 48.9978 52.1054 46.3615 46.876C43.7203 41.6367 40.5226 36.6095 36.8605 33.207Z" fill="#FD6B3A" stroke="black" stroke-width="1.36337"/>
<path d="M146.943 223.191C172.956 224.857 176.599 205.027 176.599 205.027C176.599 205.027 178.924 183.67 170.59 159.187C162.257 134.708 184.48 114.949 184.48 114.949" stroke="#C6B69C" stroke-width="2.43689" stroke-miterlimit="10"/>
<path d="M77.8576 141.488L57.073 141.795" stroke="black" stroke-width="0.170421" stroke-miterlimit="10"/>
<path d="M74.5061 137.597L53.759 136.391" stroke="black" stroke-width="0.170421" stroke-miterlimit="10"/>
<path d="M119.08 125.435L151.028 109.412" stroke="black" stroke-width="0.170421" stroke-miterlimit="10"/>
<path d="M111.787 126.176C110.798 125.027 110.29 123.408 111.824 121.356C112.376 120.617 113.181 120.099 114.07 119.853C116.146 119.284 119.943 118.855 119.582 123.456C119.462 124.956 118.563 126.285 117.22 126.963L116.923 127.113C115.195 127.986 113.051 127.645 111.783 126.176H111.787Z" fill="black"/>
<path d="M82.8575 127.442C82.0054 128.696 81.6884 130.363 83.4505 132.224C84.0845 132.896 84.94 133.318 85.8569 133.458C87.9871 133.785 91.8046 133.775 90.915 129.245C90.6253 127.769 89.5755 126.552 88.1644 126.034L87.8542 125.922C86.0341 125.254 83.9448 125.84 82.8575 127.445V127.442Z" fill="black"/>
<path d="M103.801 135.399L107.158 132.157C107.158 132.157 102.963 131.203 98.8827 133.776L103.801 135.395V135.399Z" fill="#D47E5D"/>
<path d="M104.781 136.788L112.018 132.852H114.738C114.738 132.852 110.658 144.137 103.974 145.064C103.974 145.064 97.8658 147.61 91.4716 136.441L104.785 136.788H104.781Z" fill="#5B1B19"/>
<path d="M109.007 134.938L109.645 135.401C109.645 135.401 106.778 140.551 105.129 140.957C103.479 141.362 100.96 141.247 100.96 141.247L94.8317 136.529L104.781 136.788L109.007 134.938Z" fill="#ECE7E3"/>
<path d="M112.481 141.795C112.481 141.795 109.355 147.037 104.147 147.732C98.939 148.428 93.4889 144.764 93.4889 144.764" stroke="black" stroke-width="0.340843" stroke-miterlimit="10"/>
<path d="M119.609 137.597L128.11 119.512V116.936L119.609 137.597Z" stroke="black" stroke-width="0.340843" stroke-miterlimit="10"/>
<path d="M83.7727 144.802C83.7727 144.802 73.8439 140.903 73.135 135.518L47.5411 131.867" stroke="black" stroke-width="0.170421" stroke-miterlimit="10"/>
<path d="M131.5 135.5C136.167 145 145.6 164.8 146 168C146.4 171.2 147.834 175.333 148.5 177L154 179.5C154.5 179.833 155.3 180.7 154.5 181.5C154.667 182.167 154.9 183.6 154.5 184C154.1 184.4 153.334 184.5 153 184.5C152.834 184.833 152.2 185.6 151 186C151 186.833 150.8 188.4 150 188C149.2 187.6 149 187.167 149 187C148.834 187.667 148.3 188.8 147.5 188C146.5 187 145.5 184.5 144 181.5C142.5 178.5 142 175.5 141 174C140 172.5 134 161 132 163" stroke="black" stroke-linecap="round"/>
</g>
<defs>
<clipPath id="clip0_382_4">
<rect width="184.819" height="251" fill="white" transform="matrix(-1 0 0 1 184.819 0)"/>
</clipPath>
</defs>
</svg>
