<svg width="210" height="243" viewBox="0 0 210 243" fill="none" xmlns="http://www.w3.org/2000/svg">
<g clip-path="url(#clip0_135_161)">
<path d="M1.82464 25.1503H15.9667L29.0976 8.48518C29.0976 8.48518 46.2684 -5.90972 66.4728 3.93968C86.6772 13.7891 91.7234 29.6958 91.7234 29.6958C91.7234 29.6958 95.2577 37.27 94.7521 49.8953C94.2465 62.5206 91.3169 72.8756 94.8016 73.1284C98.2863 73.3812 120.003 98.379 120.003 98.379L82.6274 85.2481C82.6274 85.2481 63.687 66.0549 68.9909 40.2987L60.9112 39.7931C60.9112 39.7931 39.7005 80.197 42.7292 87.2655L41.2123 94.111C41.2123 94.111 42.4764 80.9504 28.0815 70.6004C13.6866 60.2503 5.86454 49.4393 5.86454 49.4393C5.86454 49.4393 -2.72085 44.5964 1.82464 25.1503Z" fill="#4C4957" stroke="black" stroke-width="0.991385" stroke-miterlimit="10"/>
<path d="M144.753 141.816C144.753 141.816 179.094 175.4 156.367 204.442L147.781 229.494L117.48 226.664C117.48 226.664 120.508 217.776 134.145 223.635C134.145 223.635 123.031 211.01 123.031 209.999C123.031 208.988 102.579 226.411 105.355 241.312L98.1229 240.697L75.5589 238.784C75.5589 238.784 80.1044 227.978 92.7297 234.645C92.7297 234.645 66.1507 224.894 60.247 197.874C60.247 197.874 59.3944 168.584 66.4679 159.493C66.4679 159.493 108.205 183.668 130.105 167.067C152.005 150.466 144.753 141.816 144.753 141.816Z" fill="#4C4957" stroke="black" stroke-width="1.48708" stroke-miterlimit="10"/>
<path d="M41.2183 121.113L38.1897 129.193C38.1897 129.193 40.2121 118.585 33.1386 125.153C26.065 131.721 30.6155 139.295 30.6155 139.295L33.1386 132.226C33.1386 132.226 30.6155 150.492 41.2183 152.341C51.8212 154.19 57.3779 149.903 57.3779 149.903C57.3779 149.903 42.4774 137.53 41.2183 121.113Z" fill="#4C4957" stroke="black" stroke-width="0.991385" stroke-miterlimit="10"/>
<path d="M91.2013 33.5869C91.2013 33.5869 139.834 55.8485 145.138 55.8485C150.442 55.8485 192.61 72.5136 192.61 72.5136C192.61 72.5136 219.377 85.6445 200.184 107.866C180.991 130.088 152.712 125.543 152.712 125.543L136.047 122.008C136.047 122.008 125.776 105.175 119.55 97.2635C113.324 89.3523 95.846 74.0602 95.846 74.0602L92.6636 72.013C92.6636 72.013 78.6405 56.8597 81 38.8462" fill="#4C4957"/>
<path d="M91.2013 33.5869C91.2013 33.5869 139.834 55.8485 145.138 55.8485C150.442 55.8485 192.61 72.5136 192.61 72.5136C192.61 72.5136 219.377 85.6445 200.184 107.866C180.991 130.088 152.712 125.543 152.712 125.543L136.047 122.008C136.047 122.008 125.776 105.175 119.55 97.2635C113.324 89.3523 95.846 74.0602 95.846 74.0602L92.6636 72.013C92.6636 72.013 78.6405 56.8597 81 38.8462" stroke="black" stroke-width="1.48708" stroke-miterlimit="10"/>
<path d="M121.688 98.3842C121.688 98.3842 153.169 142.084 143.831 152.801C134.492 163.518 116.012 186.712 73.3134 163.003C30.6145 139.294 41.2173 103.941 41.2173 103.941C41.2173 103.941 43.4876 56.7213 60.9161 39.7983L68.9959 40.3039C68.9959 40.3039 63.692 70.3528 82.6324 85.2533L121.688 98.3842Z" fill="#EE4F28" stroke="black" stroke-width="0.991385" stroke-miterlimit="10"/>
<path d="M35.1543 11.5142C35.1543 11.5142 41.9701 18.0821 35.1543 28.1793" stroke="black" stroke-width="0.991385" stroke-miterlimit="10"/>
<path d="M17.5621 32.2842C18.4791 29.2605 20.6106 24.5118 24.9033 24.6853C26.1673 24.7349 27.1785 25.7709 27.1636 27.0398C27.1339 30.2123 26.202 36.1953 19.4506 35.2832C18.033 35.0948 17.1457 33.6524 17.5571 32.2842H17.5621Z" fill="black"/>
<path d="M14.9551 39.7983L33.1371 80.8813" stroke="black" stroke-width="0.991385" stroke-miterlimit="10"/>
<path d="M6.36914 39.7983L24.0455 104.447" stroke="black" stroke-width="0.991385" stroke-miterlimit="10"/>
<path d="M14.9551 45.8604L29.1715 89.7985" stroke="black" stroke-width="0.991385" stroke-miterlimit="10"/>
<path d="M123.167 209.739C123.167 209.739 106.323 232.669 73.7466 216.604C41.1697 200.539 55.059 136.907 61.6269 127.31C68.1948 117.713 71.5 114.587 71.5 114.587" stroke="black" stroke-width="0.991385" stroke-miterlimit="10"/>
<path d="M1.31836 31.4658L2.07677 26.4246C2.14121 26.0132 2.17591 24.8929 2.41384 25.2349C3.53906 26.8459 6.13649 31.2378 5.61105 33.4832L1.31836 31.4608V31.4658Z" fill="#EF6C6C" stroke="#A05555" stroke-width="0.495692" stroke-miterlimit="10"/>
<path d="M61.5 127.087L71.5 114.587C80.1667 109.921 97 107.287 95 134.087C93 160.887 82.5 163.92 77.5 162.087" stroke="black"/>
</g>
<defs>
<clipPath id="clip0_135_161">
<rect width="210" height="242.136" fill="white"/>
</clipPath>
</defs>
</svg>
