<svg width="368" height="410" viewBox="0 0 368 410" fill="none" xmlns="http://www.w3.org/2000/svg">
<g clip-path="url(#clip0_88_198)">
<path d="M249.801 38.0134C249.801 38.0134 235.578 -35.1684 183.859 23.015C183.859 23.015 136.399 119.199 122.137 119.684C107.875 120.169 150.299 110.31 159.337 118.593C159.337 118.593 245.146 46.0301 249.801 38.0134Z" fill="#4C4957"/>
<path d="M84.8174 203.238C84.8174 203.238 95.4392 216.053 105.309 216.053C115.178 216.053 141.07 208.513 152.027 219.072C162.984 229.63 152.027 257.517 152.027 257.517L139.461 299.737C139.461 299.737 137.561 320.469 147.811 314.816C147.811 314.816 104.176 371.73 147.051 390.96C189.926 410.19 216.115 406.794 216.115 406.794C216.115 406.794 286.319 412.07 301.872 360.054C301.872 360.054 308.702 323.865 279.101 302.008L251.02 256.023C251.02 256.023 214.588 178.754 210.037 173.094C210.037 173.094 150.932 138.791 152.027 132.384C152.027 132.384 173.613 144.067 187.274 120.323C187.274 120.323 225.597 57.3717 232.048 51.7188L161.472 112.784C161.472 112.784 119.251 102.897 91.9291 138.701C91.9291 138.701 85.7658 171.425 96.7675 180.096C96.7675 180.096 94.6171 205.364 84.8174 203.245V203.238Z" fill="#4C4957"/>
<path d="M153.262 132.372C153.262 132.372 258.248 221.968 319.235 177.543C319.235 177.543 379.846 154.939 357.632 57.829C357.632 57.829 327.142 -1.64016 249.964 39.7695C249.964 39.7695 194.622 83.8098 188.223 120.328C188.223 120.328 172.882 144.04 153.255 132.372H153.262Z" fill="#F64A22"/>
<path d="M117.312 194.517C112.945 192.182 108.851 187.549 113.122 178.578C114.357 175.977 117.202 174.499 120.017 175.098C124.207 175.992 129.195 179.302 126.291 190.564C125.286 194.465 120.874 196.416 117.312 194.517Z" fill="#000500"/>
<path d="M86.585 203.147L101.453 201.204C101.453 201.204 99.4431 209.325 95.933 211.726" fill="#F64A22"/>
<path d="M210.813 173.029C210.813 173.029 317.986 239.392 357.95 130.74C357.95 130.74 377.769 69.8888 343.702 37.1394C309.636 4.39001 259.512 29.4915 225.467 61.2655C191.423 93.0395 188.223 120.336 188.223 120.336C188.223 120.336 162.152 139.156 153.255 132.38C153.255 132.38 181.07 164.191 210.806 173.036L210.813 173.029Z" fill="#F64A22"/>
<path d="M249.964 39.7692C249.964 39.7692 248.508 11.3781 222.649 0.258293C194.789 -6.14085 168.774 49.9369 168.774 49.9369C168.774 49.9369 140.64 110.367 129.814 113.005C129.814 113.005 94.5696 126.548 92.1694 138.549C89.7691 150.55 85.8315 171.528 96.3693 179.811C96.3693 179.811 95.7042 196.74 92.1497 198.75C92.1497 198.75 89.0682 202.814 86.1641 203.354C86.1641 203.354 95.815 212.576 97.3447 212.657C97.3447 212.657 102.488 215.982 105.961 215.901C109.434 215.819 119.743 214.977 121.886 214.489C124.029 214.002 132.926 213.041 133.806 213.344C134.685 213.647 143.176 212.524 150.115 216.61C157.054 220.696 157.556 227.583 157.556 227.583C157.556 227.583 158.539 228.743 157.46 241.342C157.46 241.342 155.154 253.335 154.386 254.133L151.038 264.877L145.843 282.449L140.796 299.518C140.796 299.518 139.289 314.238 145.481 315.523C145.481 315.523 147.366 316.248 148.703 314.282C148.784 314.171 148.858 313.994 148.932 313.772C150.166 310.166 151.171 293.245 151.171 293.245L149.08 314.578C149.08 314.578 80.6811 392.16 194.593 405.141C219.947 408.03 239.382 406.9 254.28 403.368C307.209 387.89 302.601 346.196 302.601 346.196C302.601 346.196 302.49 320.977 279.338 301.779L255.632 262.705L248.745 250.032L230.522 211.733L210.821 173.043C210.821 173.043 279.464 218.517 329.566 174.979C329.566 174.979 366.154 140.079 362.918 79.5027C362.918 79.5027 355.319 32.7272 323.071 24.4881C290.822 16.249 264.847 33.0153 264.847 33.0153C264.847 33.0153 241.695 41.6608 228.896 57.0971C228.896 57.0971 192.192 90.4081 188.238 120.335C188.238 120.335 164.421 138.594 153.27 132.379C142.119 126.165 196.138 171.026 207.215 171.846L210.821 173.035" stroke="#000500" stroke-width="4.80051" stroke-miterlimit="10"/>
<path d="M355.002 281.821C355.002 281.821 361.527 184.703 343.459 187.459C325.391 190.216 291.509 234.891 317.359 297.375C343.208 359.859 344.464 379.19 344.464 379.19C344.464 379.19 354.499 403.242 300.296 406.648C246.092 410.055 254.287 403.353 254.287 403.353" stroke="#000500" stroke-width="5.76062" stroke-miterlimit="10" stroke-linecap="round"/>
</g>
<defs>
<clipPath id="clip0_88_198">
<rect width="367.719" height="409.094" fill="white"/>
</clipPath>
</defs>
</svg>
