<svg width="194" height="264" viewBox="0 0 194 264" fill="none" xmlns="http://www.w3.org/2000/svg">
<path d="M58.7607 81.0283C58.9852 83.5845 59.2627 86.4751 59.6006 89.4043C60.1112 93.8304 60.7509 98.3281 61.5195 101.893C61.9042 103.677 62.3166 105.206 62.7539 106.367C62.9726 106.948 63.1909 107.421 63.4062 107.781C63.6263 108.149 63.8174 108.356 63.9609 108.456L64.0937 108.549L64.1738 108.689C64.174 108.69 64.1741 108.691 64.1748 108.692C64.1763 108.695 64.1798 108.7 64.1836 108.706C64.1914 108.719 64.2036 108.74 64.2207 108.769C64.2554 108.826 64.3094 108.913 64.3828 109.025C64.5297 109.251 64.7549 109.58 65.0615 109.983C65.6751 110.79 66.6134 111.891 67.9014 113.053C70.4761 115.374 74.4433 117.933 80.0215 118.879H80.0225C82.844 119.358 84.2598 118.986 84.9307 118.432C85.5592 117.912 85.7419 117.044 85.5518 115.876C85.3643 114.725 84.8394 113.481 84.3389 112.499C84.0917 112.014 83.8573 111.604 83.6846 111.316C83.6022 111.179 83.5343 111.071 83.4863 110.995C83.4472 110.97 83.3994 110.941 83.3447 110.905C83.1657 110.789 82.9044 110.616 82.5723 110.389C81.9082 109.933 80.9596 109.258 79.8135 108.375C77.5217 106.609 74.4359 104.006 71.2578 100.656C66.5453 95.6891 61.6018 89.0467 58.7607 81.0283Z" fill="#C6B69C" stroke="black" stroke-width="1.42824"/>
<path d="M110.878 61.1709C116.045 72.5858 116.767 82.7289 116.11 90.2021C115.755 94.2507 114.996 97.5145 114.323 99.7705C113.987 100.898 113.672 101.775 113.439 102.373C113.389 102.504 113.339 102.621 113.297 102.725L122.324 108.527L123.499 106.632C125.538 102.51 125.055 96.2604 123.001 89.0137C120.956 81.7998 117.411 73.7848 113.577 66.2881C112.687 64.5475 111.782 62.8363 110.878 61.1709Z" fill="#C6B69C" stroke="black" stroke-width="1.42824"/>
<path d="M147.898 20.1934C140.924 9.95945 127.452 -0.140666 101.315 0.771484C101.307 0.776338 101.298 0.781794 101.288 0.787109C101.175 0.849925 101.009 0.945378 100.797 1.07129C100.373 1.3233 99.7698 1.69879 99.0615 2.18945C97.6421 3.1728 95.8122 4.60884 94.1514 6.42676C90.8238 10.0691 88.2733 15.113 90.7881 21.1299C93.4531 27.5064 95.3526 31.668 96.584 34.2314C97.1996 35.5131 97.6484 36.3952 97.9414 36.9541C98.0878 37.2334 98.1953 37.432 98.2656 37.5596C98.3008 37.6233 98.3261 37.6698 98.3428 37.6992C98.351 37.7137 98.3576 37.7239 98.3613 37.7305L109.121 55.1035L109.145 55.1406L109.163 55.1807V55.1816V55.1826L109.174 55.2041C109.181 55.2197 109.192 55.2436 109.206 55.2744C109.234 55.336 109.276 55.4277 109.331 55.5469C109.441 55.7856 109.602 56.1364 109.807 56.585C110.217 57.483 110.806 58.7737 111.517 60.3418C112.938 63.4777 114.849 67.7268 116.81 72.1787C118.77 76.6302 120.781 81.2891 122.399 85.2412C124.009 89.1711 125.255 92.4604 125.658 94.1426V94.1445L125.659 94.1455V94.1475C125.66 94.1489 125.66 94.1509 125.66 94.1533C125.661 94.1585 125.664 94.1665 125.666 94.1758C125.67 94.1943 125.676 94.2208 125.684 94.2549C125.699 94.3237 125.72 94.4238 125.745 94.5518C125.796 94.8078 125.865 95.177 125.935 95.6348C126.074 96.5491 126.223 97.8235 126.255 99.2656C126.315 101.954 125.976 105.339 124.32 108.037L126.155 109.939C126.391 109.694 126.705 109.364 127.085 108.953C128.001 107.963 129.308 106.505 130.864 104.643C133.978 100.917 138.088 95.5751 142.069 89.1152C150.045 76.1752 157.444 58.8452 155.429 41.0527L155.427 41.0293L155.425 41.0068C155.425 41.0061 155.425 41.004 155.425 41.002C155.425 40.9979 155.424 40.9914 155.424 40.9824C155.423 40.9642 155.422 40.9355 155.419 40.8975C155.414 40.8213 155.405 40.706 155.392 40.5547C155.365 40.2517 155.318 39.8034 155.239 39.2314C155.083 38.0869 154.8 36.4477 154.298 34.4844C153.292 30.5553 151.407 25.3424 147.898 20.1934Z" fill="#FD6B3A" stroke="black" stroke-width="1.42824"/>
<path d="M136.736 254.919C138.553 255.04 141.949 256.497 141.949 256.497C144.737 258.804 152.136 261.228 152.136 261.228C156.26 264.684 156.138 261.228 156.138 261.228L156.128 261.224L154.549 257.707C152.975 254.19 145.334 255.283 145.334 255.283L139.756 251.887C139.756 251.887 149.336 246.31 153.096 239.519C156.852 232.727 145.091 212.354 145.091 212.354C145.091 212.354 137.939 198.168 136.361 190.527C134.786 182.889 137.089 175.977 137.089 175.977C137.089 175.977 140.094 164.704 140.485 157.302C141.214 143.492 133.936 122.5 133.936 122.5C133.936 122.5 129.088 112.981 122.66 107.464C116.233 101.948 104.893 102.13 100.348 102.13C95.8025 102.13 86.4047 107.343 84.9479 108.921C83.4911 110.495 77.7924 124.685 77.7924 124.685L75.6108 136.325C77.1283 146.755 80.1597 146.026 82.8876 149.301C85.6156 152.575 83.9803 162.155 83.9803 162.155L80.3418 169.917L77.7924 175.169C77.7924 175.169 76.8484 175.977 77.7924 178.183C78.8269 180.6 79.754 180.513 80.5993 180.812C82.2341 181.391 81.7853 182.894 82.045 184.18C82.8876 188.354 82.045 196.957 82.045 196.957C82.045 196.957 79.6813 205.809 72.3437 218.299C65.0061 230.789 69.1909 240.369 69.1909 240.369C68.5839 245.646 78.7708 254.315 78.7708 254.315C62.0961 255.89 62.3996 258.921 62.1568 259.771C61.914 260.621 66.0345 260.56 67.4913 260.378C68.9445 260.196 80.1026 254.437 80.1026 254.437L84.348 250.191C98.0519 237.701 111.027 239.397 111.027 239.397C129.22 239.64 131.644 249.706 131.644 249.706C132.43 252.251 136.736 254.919 136.736 254.919Z" fill="#C6B69C"/>
<path d="M80.5993 180.812C82.2341 181.391 81.7853 182.894 82.045 184.18C82.8876 188.354 82.045 196.957 82.045 196.957C82.045 196.957 79.6813 205.809 72.3437 218.299C65.0061 230.789 69.1909 240.369 69.1909 240.369C68.5839 245.646 78.7708 254.315 78.7708 254.315C62.0961 255.89 62.3996 258.921 62.1568 259.771C61.914 260.621 66.0345 260.56 67.4913 260.378C68.9445 260.196 80.1026 254.437 80.1026 254.437L84.348 250.191C98.0519 237.701 111.027 239.397 111.027 239.397C129.22 239.64 131.644 249.706 131.644 249.706C132.43 252.251 136.736 254.919 136.736 254.919C138.553 255.04 141.949 256.497 141.949 256.497C144.737 258.804 152.136 261.228 152.136 261.228C156.26 264.684 156.138 261.228 156.138 261.228L156.128 261.224L154.549 257.707C152.975 254.19 145.334 255.283 145.334 255.283L139.756 251.887C139.756 251.887 149.336 246.31 153.096 239.519C156.852 232.727 145.091 212.354 145.091 212.354C145.091 212.354 137.939 198.168 136.361 190.527C134.786 182.889 137.089 175.977 137.089 175.977C137.089 175.977 140.094 164.704 140.485 157.302C141.214 143.492 133.936 122.5 133.936 122.5C133.936 122.5 129.088 112.981 122.66 107.464C116.233 101.948 104.893 102.13 100.348 102.13C95.8025 102.13 86.4047 107.343 84.9479 108.921C83.4911 110.495 77.7924 124.685 77.7924 124.685L75.6108 136.325C77.1283 146.755 80.1597 146.026 82.8876 149.301C85.6156 152.575 83.9803 162.155 83.9803 162.155L80.3418 169.917L77.7924 175.169C77.7924 175.169 76.8484 175.977 77.7924 178.183C78.8269 180.6 79.754 180.513 80.5993 180.812ZM80.5993 180.812L129.964 167.635C133.936 164.244 134.245 154.827 136.361 154.827" stroke="black" stroke-width="1.42824" stroke-miterlimit="10"/>
<path d="M110.752 172.531C104.097 172.406 90.4101 171.025 88.9033 166.504C87.3965 161.984 88.2754 160.854 88.9033 160.854" stroke="black" stroke-width="1.43149" stroke-linecap="round"/>
<path d="M38.3574 34.7852C34.5291 31.2284 30.3123 29.4456 25.7275 30.6621C21.0619 31.9002 16.9578 35.6955 13.4746 40.9482C10.0003 46.1875 7.20573 52.785 5.12598 59.4541C3.04742 66.1194 1.6925 72.824 1.08398 78.2588C0.779655 80.9769 0.663971 83.3635 0.733398 85.2607C0.804206 87.1954 1.06605 88.507 1.43164 89.165L1.48047 89.2529L1.50293 89.3506V89.3525C1.50347 89.3548 1.50461 89.359 1.50586 89.3643C1.50847 89.3752 1.51283 89.3928 1.51855 89.416C1.53 89.4624 1.54775 89.5328 1.57227 89.626C1.62135 89.8125 1.69785 90.0904 1.80469 90.4482C2.01839 91.164 2.35449 92.2001 2.8418 93.4697C3.8169 96.0103 5.39483 99.4805 7.80273 103.189C12.617 110.605 20.7362 118.959 33.9902 122.778C47.3536 126.631 58.3255 126.779 65.9434 125.969C69.7528 125.564 72.7248 124.92 74.7383 124.379C75.745 124.109 76.5122 123.864 77.0244 123.688C77.2269 123.619 77.3889 123.559 77.5107 123.514L79.2295 119.345C79.0135 119.25 78.7472 119.135 78.4395 118.996C77.539 118.59 76.2731 118.001 74.8105 117.268C71.8907 115.804 68.1626 113.754 64.9814 111.43L64.8271 111.317L64.75 111.143C62.7529 106.639 61.0774 98.1546 59.7646 90.1641C58.4495 82.1585 57.4982 74.6551 56.9346 71.708L56.9287 71.6885L56.9277 71.6875C56.9274 71.6863 56.9274 71.6841 56.9268 71.6816C56.9253 71.6764 56.9228 71.668 56.9199 71.6572C56.9141 71.6356 56.9054 71.6029 56.8936 71.5596C56.8699 71.4729 56.8345 71.3435 56.7871 71.1748C56.6922 70.8371 56.5502 70.341 56.3623 69.7109C55.9864 68.4506 55.4269 66.6539 54.6943 64.5137C53.2283 60.2307 51.0722 54.5836 48.3105 49.1055C45.5436 43.6168 42.1938 38.3495 38.3574 34.7852Z" fill="#FD6B3A" stroke="black" stroke-width="1.42824"/>
<path d="M153.677 233.809C180.928 235.555 184.745 214.782 184.745 214.782C184.745 214.782 187.18 192.408 178.45 166.761C169.72 141.117 193 120.418 193 120.418" stroke="#C6B69C" stroke-width="2.55283" stroke-miterlimit="10"/>
<path d="M81.3047 148.219L59.5312 148.54" stroke="black" stroke-width="0.178529" stroke-miterlimit="10"/>
<path d="M77.7939 144.143L56.0598 142.879" stroke="black" stroke-width="0.178529" stroke-miterlimit="10"/>
<path d="M124.49 131.403L157.957 114.617" stroke="black" stroke-width="0.178529" stroke-miterlimit="10"/>
<path d="M116.849 132.18C115.813 130.977 115.281 129.281 116.888 127.132C117.467 126.357 118.309 125.814 119.241 125.557C121.416 124.961 125.393 124.511 125.015 129.331C124.89 130.902 123.947 132.295 122.54 133.005L122.23 133.162C120.419 134.076 118.174 133.719 116.845 132.18H116.849Z" fill="black"/>
<path d="M86.5428 133.506C85.6502 134.82 85.3181 136.566 87.1641 138.515C87.8282 139.219 88.7245 139.661 89.6849 139.808C91.9166 140.151 95.9156 140.14 94.9837 135.395C94.6802 133.849 93.5805 132.574 92.1022 132.031L91.7773 131.913C89.8706 131.213 87.6818 131.828 86.5428 133.509V133.506Z" fill="black"/>
<path d="M108.483 141.841L112 138.445C112 138.445 107.605 137.445 103.331 140.141L108.483 141.837V141.841Z" fill="#D47E5D"/>
<path d="M109.51 143.296L117.09 139.172H119.939C119.939 139.172 115.665 150.994 108.664 151.965C108.664 151.965 102.265 154.633 95.5666 142.932L109.513 143.296H109.51Z" fill="#5B1B19"/>
<path d="M113.937 141.357L114.604 141.843C114.604 141.843 111.602 147.238 109.873 147.663C108.145 148.088 105.507 147.967 105.507 147.967L99.0867 143.025L109.509 143.296L113.937 141.357Z" fill="#ECE7E3"/>
<path d="M117.575 148.541C117.575 148.541 114.301 154.033 108.845 154.761C103.389 155.489 97.6799 151.651 97.6799 151.651" stroke="black" stroke-width="0.357059" stroke-miterlimit="10"/>
<path d="M125.043 144.145L133.948 125.199V122.5L125.043 144.145Z" stroke="black" stroke-width="0.357059" stroke-miterlimit="10"/>
<path d="M87.502 151.691C87.502 151.691 77.1008 147.606 76.3581 141.965L49.5466 138.141" stroke="black" stroke-width="0.178529" stroke-miterlimit="10"/>
<path d="M126.574 183.081H82.8755L82.1221 181.197" stroke="black" stroke-width="1.43149" stroke-linecap="round"/>
</svg>
