<svg width="438" height="322" viewBox="0 0 438 322" fill="none" xmlns="http://www.w3.org/2000/svg">
<g clip-path="url(#clip0_486_1586)">
<path d="M265.703 187.694C265.703 187.694 297.961 202.875 339.201 181.803C380.442 160.73 373.12 163.443 373.12 163.443C373.12 163.443 288.128 221.542 259.126 207.094L254.912 204.482L265.703 187.694Z" fill="#C6B69C"/>
<path d="M252.531 210.445C252.531 210.445 308.698 266.83 368.369 260.07C368.369 260.07 439.28 256.661 436.071 169.021C436.071 169.021 421.889 141.992 400.752 150.827C379.614 159.661 373.126 163.437 373.126 163.437L344.36 181.253C344.36 181.253 292.03 207.221 280.097 208.477C280.097 208.477 265.773 211.881 257.235 205.906L252.537 210.439L252.531 210.445Z" fill="#FD6B3A"/>
<path d="M3.84728 260.071C3.84728 260.071 -1.87285 260.272 3.84728 253.446C3.84728 253.446 7.85963 241.203 11.677 236.587C11.677 236.587 14.088 230.968 14.2889 227.96C14.2889 227.96 18.7031 220.834 22.9163 219.534C22.9163 219.534 39.5744 215.521 39.9762 185.414C39.9762 185.414 42.7831 163.94 22.1127 141.26L15.0866 134.234C15.0866 134.234 5.55504 115.768 5.25368 113.363C4.95229 110.952 4.85185 104.133 6.25826 104.534C7.66463 104.936 12.6816 104.434 15.2876 132.03C15.2876 132.03 29.6351 115.171 38.369 116.176C38.369 116.176 54.2234 109.25 74.8938 121.393C95.5643 133.537 110.213 137.449 110.213 137.449C110.213 137.449 115.23 139.056 115.23 135.239C115.23 131.421 108.305 112.329 99.7775 104.517C99.7775 104.517 83.3203 100.823 84.7267 98.1112C86.1331 95.3988 95.1624 95.4993 95.1624 95.4993L93.1533 69.2092L94.5597 66.7983C94.5597 66.7983 101.485 72.7193 103.79 82.2509C103.79 82.2509 106.597 74.823 108.606 76.2294C110.615 77.6358 104.393 100.711 104.393 100.711L154.964 134.63L167.81 140.652C167.81 140.652 183.665 143.358 189.084 138.843C194.502 134.329 193.297 129.312 210.558 126.8L229.822 130.411C229.822 130.411 253.305 139.842 255.911 142.253C258.523 144.664 267.15 160.217 267.15 167.739C267.15 175.262 267.452 194.029 258.322 204.666C249.192 215.303 233.438 223.327 233.438 223.327L175.841 234.165L144.936 228.545C144.936 228.545 133.496 224.734 120.856 227.34C108.21 229.951 84.7326 241.788 84.7326 241.788C84.7326 241.788 51.0147 261.253 39.7753 255.036C28.536 248.814 19.3058 232.959 19.3058 232.959L13.6861 242.189C13.6861 242.189 15.4944 254.835 9.67378 257.441L3.8532 260.053L3.84728 260.071Z" fill="#C6B69C"/>
<path d="M298.214 243.637C298.214 243.637 304.679 244.884 302.806 242.337C300.933 239.79 279.795 239.128 279.795 239.128L276.315 236.186C276.315 236.186 286.485 228.427 284.877 225.212C283.27 221.998 273.372 234.312 273.372 234.312C273.372 234.312 234.034 231.37 233.438 223.339C233.438 223.339 252.43 214.18 253.115 211.018L268.568 224.243L276.309 229.987L298.22 243.631L298.214 243.637Z" stroke="black" stroke-width="3" stroke-miterlimit="10"/>
<path d="M273.378 251.437V265.619C273.378 265.619 278.862 267.894 277.39 251.437C277.39 251.437 294.917 262.647 294.249 258.581C293.581 254.515 296.926 257.056 296.926 257.056C296.926 257.056 283.146 245.285 280.605 243.678C278.064 242.071 306.83 245.285 302.812 242.342C298.793 239.4 279.801 239.134 279.801 239.134L276.321 236.191C276.321 236.191 287.962 226.825 284.883 225.218C281.804 223.61 273.378 234.318 273.378 234.318C273.378 234.318 235.512 232.982 233.443 223.344L170.581 233.225C170.581 233.225 227.487 245.392 249.032 244.535C270.577 243.678 267.161 245.551 267.161 245.551L273.384 251.437H273.378Z" fill="#C6B69C"/>
<path d="M253.34 140.687C253.34 140.687 277.692 101.426 316.829 96.61C316.829 96.61 260.538 99.9191 255.716 106.845C255.716 106.845 241.492 114.905 238.272 133.903C235.046 152.901 253.34 140.687 253.34 140.687Z" fill="#C6B69C"/>
<path d="M316.823 96.6103C316.823 96.6103 394.186 76.0403 385.559 43.5279C376.932 11.0155 297.86 -3.43253 287.023 2.58895C287.023 2.58895 243.673 12.6228 230.832 57.1782C217.985 101.734 229.828 130.429 229.828 130.429L238.272 133.909C238.272 133.909 242.107 119.123 252.407 110.424C262.707 101.726 305.817 97.0519 316.829 96.6162L316.823 96.6103Z" fill="#FD6B3A"/>
<path d="M49.2238 255.999C46.3342 301.098 80.714 307.415 80.714 307.415C80.714 307.415 117.741 311.445 160.187 296.997C202.633 282.549 236.883 321.077 236.883 321.077" stroke="black" stroke-width="3" stroke-miterlimit="10"/>
<path d="M1.65487 259.255C1.65487 259.255 0.189369 258.777 1.30621 257.057C2.42896 255.337 6.73086 244.364 9.20092 240.476C11.671 236.587 12.5869 234.271 12.5869 234.271L14.2829 227.954C14.2829 227.954 18.0648 222.145 20.4875 220.834C22.9103 219.522 40.833 212.697 39.8993 187.813C38.9657 162.929 32.8437 154.804 15.0865 134.234L11.0978 126.345L5.25356 113.363C5.25356 113.363 3.94763 105.433 6.25814 104.534C8.56864 103.636 16.1915 114.769 15.2874 132.03C15.2874 132.03 34.5929 108.293 53.9219 114.379C53.9219 114.379 71.1236 117.688 77.7774 123.054C84.4312 128.419 103.861 135.339 103.861 135.339C103.861 135.339 115.135 140.356 115.236 135.239C115.336 130.121 107.453 114.887 107.453 114.887L99.7833 104.517C99.7833 104.517 84.0293 102.023 84.7325 98.1112C85.4357 94.1993 95.1682 95.4993 95.1682 95.4993L93.2005 69.7529C93.2005 69.6938 93.2773 69.682 93.2891 69.7411L98.6724 91.286L94.7782 68.0983C94.7191 67.7379 95.1682 67.531 95.4046 67.8088C97.6678 70.5802 103.713 78.339 103.796 82.2509C103.796 82.2509 105.805 76.7317 108.612 76.2294C111.419 75.7271 104.398 100.711 104.398 100.711L152.937 133.265L167.816 140.652C167.816 140.652 187.482 143.062 189.089 138.843C190.697 134.63 200.589 124.933 210.563 126.8C220.538 128.674 229.827 130.411 229.827 130.411C229.827 130.411 218.724 98.7198 228.923 64.3932C239.123 30.0667 253.76 17.0723 274.543 7.18033C295.319 -2.71168 306.984 1.99798 306.984 1.99798C306.984 1.99798 370.106 6.98533 385.565 43.5101C392.857 78.1617 316.829 96.5925 316.829 96.5925C316.829 96.5925 292.92 101.42 287.212 107.389C287.212 107.389 252.07 132.674 253.34 140.675C253.34 140.675 264.16 148.127 266.813 164.755C269.466 181.384 265.708 187.677 265.708 187.677C265.708 187.677 287.602 200.063 331.868 185.201L384.596 157.818C384.596 157.818 423.863 133.448 436.071 169.004C436.071 169.004 443.31 232.067 400.19 249.47C400.19 249.47 369.108 268.302 324.859 255.981L298.227 243.619L280.611 243.661C280.611 243.661 299.609 255.515 296.933 257.039C294.256 258.564 278.939 246.604 278.939 246.604C278.939 246.604 296.129 257.081 294.256 258.564C292.382 260.047 277.397 251.42 277.397 251.42C277.397 251.42 279.471 266.807 273.384 265.602V251.42C273.384 251.42 267.901 247.271 267.162 245.534C266.423 243.797 256.862 244.305 256.862 244.305C256.862 244.305 227.996 245.203 218.712 242.455C209.429 239.713 194.691 237.929 194.691 237.929L168.862 232.888L154.243 230.95C154.243 230.95 129.637 224.775 120.861 227.34C112.086 229.904 89.584 239.43 89.584 239.43C89.584 239.43 56.8056 257.559 44.7685 256.466C43.3857 256.342 42.8953 256.395 41.9794 256.188C36.7674 255.036 32.7433 253.24 19.3116 232.959L13.6919 242.189C13.6919 242.189 14.9683 252.265 12.3269 254.853C9.67959 257.441 6.22268 260.927 3.859 260.053L1.66666 259.237L1.65487 259.255Z" stroke="black" stroke-width="3" stroke-miterlimit="10"/>
<path d="M190.874 136.226L190.348 100.191" stroke="black" stroke-width="1.5" stroke-miterlimit="10"/>
<path d="M197.622 130.41L199.714 94.4408" stroke="black" stroke-width="1.5" stroke-miterlimit="10"/>
<path d="M218.706 207.691L246.485 263.078" stroke="black" stroke-width="1.5" stroke-miterlimit="10"/>
<path d="M217.423 195.046C219.415 193.332 222.222 192.451 225.779 195.111C227.061 196.068 227.96 197.462 228.385 199.005C229.372 202.603 230.116 209.186 222.139 208.56C219.539 208.353 217.234 206.793 216.058 204.465L215.798 203.951C214.286 200.955 214.877 197.238 217.423 195.04V195.046Z" fill="black"/>
<path d="M215.22 144.894C213.045 143.417 210.156 142.868 206.929 145.923C205.765 147.022 205.033 148.505 204.79 150.095C204.223 153.788 204.241 160.406 212.094 158.864C214.653 158.361 216.762 156.541 217.661 154.095L217.856 153.557C219.014 150.402 217.997 146.779 215.214 144.894H215.22Z" fill="black"/>
<path d="M201.428 181.2L207.048 187.021C207.048 187.021 208.702 179.746 204.241 172.673L201.434 181.2H201.428Z" fill="#D47E5D"/>
<path d="M199.017 182.902L205.842 195.448V200.163C205.842 200.163 186.276 193.09 184.669 181.502C184.669 181.502 180.255 170.913 199.619 159.827L199.017 182.908V182.902Z" fill="#5B1B19"/>
<path d="M202.231 190.23L201.428 191.335C201.428 191.335 192.499 186.365 191.796 183.505C191.093 180.645 191.293 176.278 191.293 176.278L199.472 165.654L199.023 182.903L202.231 190.23Z" fill="#ECE7E3"/>
<path d="M190.348 196.251C190.348 196.251 181.259 190.832 180.054 181.803C178.848 172.774 185.201 163.325 185.201 163.325" stroke="black" stroke-miterlimit="10"/>
<path d="M198.381 209.063L234.196 223.801" stroke="black" stroke-width="2" stroke-miterlimit="10" stroke-linecap="round"/>
<path d="M185.124 146.478C185.124 146.478 191.884 129.264 201.221 128.035L207.55 83.6627" stroke="black" stroke-width="1.5" stroke-miterlimit="10"/>
</g>
<defs>
<clipPath id="clip0_486_1586">
<rect width="321.668" height="437.412" fill="white" transform="matrix(0 -1 -1 0 437.412 321.668)"/>
</clipPath>
</defs>
</svg>
