<svg width="438" height="322" viewBox="0 0 438 322" fill="none" xmlns="http://www.w3.org/2000/svg">
<g clip-path="url(#clip0_486_1564)">
<path d="M171.709 187.694C171.709 187.694 139.451 202.875 98.2107 181.803C56.9702 160.73 64.2917 163.443 64.2917 163.443C64.2917 163.443 149.284 221.542 178.286 207.094L182.5 204.482L171.709 187.694Z" fill="#C6B69C"/>
<path d="M184.881 210.445C184.881 210.445 128.714 266.83 69.0429 260.07C69.0429 260.07 -1.86765 256.661 1.34105 169.021C1.34105 169.021 12.281 145.444 35.7207 152.135C56.858 160.97 64.286 163.437 64.286 163.437C64.286 163.437 81.7207 174.635 93.0521 181.253C104.383 187.871 149.221 206.908 157.315 208.477C165.409 210.046 169.721 208.635 180.178 205.906L184.875 210.439L184.881 210.445Z" fill="#FD6B3A"/>
<path d="M433.565 260.071C433.565 260.071 439.285 260.272 433.565 253.446C433.565 253.446 429.552 241.203 425.735 236.587C425.735 236.587 423.324 230.968 423.123 227.96C423.123 227.96 418.709 220.834 414.496 219.534C414.496 219.534 397.838 215.521 397.436 185.414C397.436 185.414 394.629 163.94 415.299 141.26L422.326 134.234C422.326 134.234 431.857 115.768 432.158 113.363C432.46 110.952 432.56 104.133 431.154 104.534C429.747 104.936 424.731 104.434 422.125 132.03C422.125 132.03 407.777 115.171 399.043 116.176C399.043 116.176 383.189 109.25 362.518 121.393C341.848 133.537 327.199 137.449 327.199 137.449C327.199 137.449 322.182 139.056 322.182 135.239C322.182 131.421 329.108 112.329 337.635 104.517C337.635 104.517 354.092 100.823 352.685 98.1112C351.279 95.3988 342.25 95.4993 342.25 95.4993L344.259 69.2092L342.852 66.7983C342.852 66.7983 335.927 72.7193 333.622 82.2509C333.622 82.2509 330.815 74.823 328.806 76.2294C326.797 77.6358 333.019 100.711 333.019 100.711L282.448 134.63L269.602 140.652C269.602 140.652 253.747 143.358 248.329 138.843C242.91 134.329 244.115 129.312 226.854 126.8L207.59 130.411C207.59 130.411 184.107 139.842 181.501 142.253C178.889 144.664 170.262 160.217 170.262 167.739C170.262 175.262 169.961 194.029 179.09 204.666C188.22 215.303 203.974 223.327 203.974 223.327L261.571 234.165L292.476 228.545C292.476 228.545 303.917 224.734 316.556 227.34C329.202 229.951 352.679 241.788 352.679 241.788C352.679 241.788 386.397 261.253 397.637 255.036C408.876 248.814 418.106 232.959 418.106 232.959L423.726 242.189C423.726 242.189 421.918 254.835 427.738 257.441L433.559 260.053L433.565 260.071Z" fill="#C6B69C"/>
<path d="M139.198 243.637C139.198 243.637 132.733 244.884 134.606 242.337C136.479 239.79 157.617 239.128 157.617 239.128L161.097 236.186C161.097 236.186 150.927 228.427 152.535 225.212C154.142 221.998 164.04 234.312 164.04 234.312C164.04 234.312 203.378 231.37 203.974 223.339C203.974 223.339 184.982 214.18 184.297 211.018L168.844 224.243L161.103 229.987L139.192 243.631L139.198 243.637Z" stroke="black" stroke-width="3" stroke-miterlimit="10"/>
<path d="M164.034 251.437V265.619C164.034 265.619 158.551 267.894 160.022 251.437C160.022 251.437 142.495 262.647 143.163 258.581C143.831 254.515 140.486 257.056 140.486 257.056C140.486 257.056 154.266 245.285 156.807 243.678C159.348 242.071 130.582 245.285 134.6 242.342C138.619 239.4 157.611 239.134 157.611 239.134L161.091 236.191C161.091 236.191 149.45 226.825 152.529 225.218C155.608 223.61 164.034 234.318 164.034 234.318C164.034 234.318 201.901 232.982 203.969 223.344L266.831 233.225C266.831 233.225 209.925 245.392 188.38 244.535C166.835 243.678 170.251 245.551 170.251 245.551L164.028 251.437H164.034Z" fill="#C6B69C"/>
<path d="M184.072 140.687C184.072 140.687 159.72 101.426 120.583 96.61C120.583 96.61 176.874 99.9191 181.696 106.845C181.696 106.845 195.92 114.905 199.14 133.903C202.367 152.901 184.072 140.687 184.072 140.687Z" fill="#C6B69C"/>
<path d="M120.589 96.6103C120.589 96.6103 43.2256 76.0403 51.8531 43.5279C60.4805 11.0154 139.552 -3.43254 150.389 2.58894C150.389 2.58894 193.739 12.6228 206.58 57.1782C219.427 101.734 207.585 130.429 207.585 130.429L199.14 133.909C199.14 133.909 193.221 119.136 185.221 109.636C170.233 101.78 129.721 97.6362 120.583 96.6162L120.589 96.6103Z" fill="#FD6B3A"/>
<path d="M388.188 255.999C391.078 301.098 356.698 307.415 356.698 307.415C356.698 307.415 319.671 311.445 277.225 296.997C234.779 282.549 200.529 321.077 200.529 321.077" stroke="#C6B69C" stroke-width="3" stroke-miterlimit="10"/>
<path d="M435.758 259.255C435.758 259.255 437.223 258.777 436.106 257.057C434.983 255.337 430.682 244.364 428.211 240.476C425.741 236.587 424.826 234.271 424.826 234.271L423.13 227.954C423.13 227.954 419.348 222.145 416.925 220.834C414.502 219.522 396.579 212.697 397.513 187.813C398.447 162.929 404.569 154.804 422.326 134.234L426.315 126.345L432.159 113.363C432.159 113.363 433.465 105.433 431.154 104.534C428.844 103.636 421.221 114.769 422.125 132.03C422.125 132.03 402.82 108.293 383.491 114.379C383.491 114.379 366.289 117.688 359.635 123.054C352.981 128.419 333.552 135.339 333.552 135.339C333.552 135.339 322.277 140.356 322.176 135.239C322.076 130.121 329.959 114.887 329.959 114.887L337.629 104.517C337.629 104.517 353.383 102.023 352.68 98.1111C351.977 94.1992 342.244 95.4993 342.244 95.4993L344.212 69.7529C344.212 69.6938 344.135 69.682 344.123 69.7411L338.74 91.286L342.634 68.0983C342.693 67.7378 342.244 67.531 342.008 67.8087C339.745 70.5801 333.699 78.3389 333.617 82.2508C333.617 82.2508 331.608 76.7316 328.801 76.2294C325.994 75.7271 333.014 100.711 333.014 100.711L284.476 133.265L269.596 140.652C269.596 140.652 249.93 143.062 248.323 138.843C246.716 134.63 236.824 124.933 226.849 126.8C216.874 128.674 207.585 130.411 207.585 130.411C207.585 130.411 218.688 98.7198 208.489 64.3932C198.29 30.0667 183.653 17.0724 162.87 7.18042C142.093 -2.71159 130.428 1.99808 130.428 1.99808C130.428 1.99808 67.3061 6.98529 51.8476 43.5101C44.5556 78.1617 120.584 96.5925 120.584 96.5925C120.584 96.5925 144.492 101.42 150.201 107.389C150.201 107.389 185.343 132.674 184.072 140.675C184.072 140.675 173.252 148.127 170.599 164.755C167.946 181.384 171.704 187.677 171.704 187.677C171.704 187.677 149.811 200.063 105.545 185.201L52.8167 157.818C52.8167 157.818 8.22176 134.636 1.72144 171.636C-4.77887 208.636 18.2238 239.803 37.2223 249.47C56.2207 259.136 68.3047 268.302 112.553 255.981L139.186 243.619L156.801 243.661C156.801 243.661 137.803 255.515 140.48 257.039C143.157 258.564 158.473 246.604 158.473 246.604C158.473 246.604 141.284 257.081 143.157 258.564C145.03 260.047 160.016 251.42 160.016 251.42C160.016 251.42 157.942 266.807 164.028 265.602V251.42C164.028 251.42 169.512 247.271 170.251 245.534C170.989 243.797 180.55 244.305 180.55 244.305C180.55 244.305 209.417 245.203 218.7 242.455C227.984 239.713 242.721 237.929 242.721 237.929L268.55 232.888L283.17 230.95C283.17 230.95 307.776 224.775 316.551 227.34C325.326 229.904 347.828 239.43 347.828 239.43C347.828 239.43 380.607 257.559 392.644 256.466C394.027 256.342 394.517 256.395 395.433 256.188C400.645 255.036 404.669 253.24 418.101 232.959L423.72 242.189C423.72 242.189 422.444 252.265 425.085 254.853C427.733 257.441 431.19 260.927 433.553 260.053L435.746 259.237L435.758 259.255Z" stroke="black" stroke-width="3" stroke-miterlimit="10"/>
<path d="M246.538 136.226L247.064 100.191" stroke="black" stroke-width="1.5" stroke-miterlimit="10"/>
<path d="M239.79 130.41L237.698 94.4408" stroke="black" stroke-width="1.5" stroke-miterlimit="10"/>
<path d="M218.706 207.691L190.927 263.078" stroke="black" stroke-width="1.5" stroke-miterlimit="10"/>
<path d="M219.989 195.046C217.997 193.332 215.19 192.451 211.633 195.111C210.351 196.068 209.453 197.462 209.027 199.005C208.04 202.603 207.296 209.186 215.273 208.56C217.873 208.353 220.178 206.793 221.354 204.465L221.614 203.951C223.126 200.955 222.536 197.238 219.989 195.04V195.046Z" fill="black"/>
<path d="M222.192 144.894C224.367 143.417 227.256 142.868 230.483 145.923C231.647 147.022 232.38 148.505 232.622 150.095C233.189 153.788 233.171 160.406 225.318 158.864C222.759 158.361 220.65 156.541 219.752 154.095L219.557 153.557C218.398 150.402 219.415 146.779 222.198 144.894H222.192Z" fill="black"/>
<path d="M235.984 181.2L230.365 187.021C230.365 187.021 228.71 179.746 233.171 172.673L235.978 181.2H235.984Z" fill="#D47E5D"/>
<path d="M238.395 182.902L231.57 195.448V200.163C231.57 200.163 251.136 193.09 252.743 181.502C252.743 181.502 257.157 170.913 237.793 159.827L238.395 182.908V182.902Z" fill="#5B1B19"/>
<path d="M235.181 190.23L235.984 191.335C235.984 191.335 244.913 186.365 245.616 183.505C246.32 180.645 246.119 176.278 246.119 176.278L237.94 165.654L238.389 182.903L235.181 190.23Z" fill="#ECE7E3"/>
<path d="M247.064 196.251C247.064 196.251 256.153 190.832 257.358 181.803C258.564 172.774 252.211 163.325 252.211 163.325" stroke="black" stroke-miterlimit="10"/>
<path d="M239.79 208.607L202.721 223.136" stroke="black" stroke-width="3" stroke-miterlimit="10" stroke-linecap="round"/>
<path d="M252.288 146.478C252.288 146.478 245.528 129.264 236.191 128.035L229.862 83.6627" stroke="black" stroke-width="1.5" stroke-miterlimit="10"/>
</g>
<defs>
<clipPath id="clip0_486_1564">
<rect width="321.668" height="437.412" fill="white" transform="matrix(0 -1 1 0 0 321.668)"/>
</clipPath>
</defs>
</svg>
