<svg width="411" height="477" viewBox="0 0 411 477" fill="none" xmlns="http://www.w3.org/2000/svg">
<path d="M16.2744 5.18164L32.5131 82.1627" stroke="black" stroke-width="1.82096" stroke-miterlimit="10"/>
<path d="M40.1104 0.0898438L48.1268 80.2266" stroke="black" stroke-width="1.82096" stroke-miterlimit="10"/>
<g clip-path="url(#clip0_486_1996)">
<path d="M126.545 227.402L126.426 245.867C126.426 245.867 128.303 179.682 95.2161 222.823C40.7102 220.874 54.6037 239.986 54.6037 239.986L81.8147 230.538L109.642 234.546C109.642 234.546 127.024 294.159 152.064 287.791C177.105 281.423 185.933 267.921 185.933 267.921C185.933 267.921 142.755 257.969 126.545 227.402Z" fill="#4C4957" stroke="black" stroke-width="1.82096" stroke-miterlimit="10"/>
<path d="M28.6265 78.1856H54.6025L78.7211 47.5752C78.7211 47.5752 110.26 21.1349 147.371 39.2261C184.483 57.3174 193.751 86.5347 193.751 86.5347C193.751 86.5347 200.243 100.447 199.314 123.637C198.386 146.827 193.005 165.847 199.405 166.311C205.806 166.775 245.694 212.691 245.694 212.691L177.044 188.572C177.044 188.572 142.254 153.318 151.997 106.01L137.156 105.081C137.156 105.081 98.1963 179.294 103.759 192.278L100.973 204.852C100.973 204.852 103.295 180.678 76.8546 161.668C50.4143 142.657 36.0469 122.799 36.0469 122.799C36.0469 122.799 20.2773 113.904 28.6265 78.1856Z" fill="#4C4957" stroke="black" stroke-width="1.82096" stroke-miterlimit="10"/>
<path d="M291.155 292.475C291.155 292.475 354.233 354.16 312.487 407.505L296.718 453.52L241.06 448.322C241.06 448.322 246.623 431.997 271.67 442.759C271.67 442.759 251.258 419.569 251.258 417.711C251.258 415.854 213.691 447.857 218.79 475.226L205.506 474.097L164.061 470.583C164.061 470.583 172.41 450.734 195.6 462.98C195.6 462.98 146.78 445.071 135.936 395.441C135.936 395.441 134.37 341.641 147.363 324.942C147.363 324.942 224.025 369.346 264.25 338.854C304.475 308.362 291.155 292.475 291.155 292.475Z" fill="#4C4957" stroke="black" stroke-width="2.73144" stroke-miterlimit="10"/>
<path d="M99.8792 250.775L94.3161 265.616C94.3161 265.616 115.276 212.915 79.2369 236.415C47.3154 260.3 52.6415 267.099 52.6415 267.099L85.8886 250.775C85.8886 250.775 80.404 304.739 99.8792 308.136C119.354 311.532 129.561 303.656 129.561 303.656C129.561 303.656 102.192 280.93 99.8792 250.775Z" fill="#4C4957" stroke="black" stroke-width="1.82096" stroke-miterlimit="10"/>
<path d="M192.793 93.6816C192.793 93.6816 282.12 134.571 291.862 134.571C301.604 134.571 379.059 165.182 379.059 165.182C379.059 165.182 428.225 189.3 392.971 230.117C357.717 270.934 305.774 262.585 305.774 262.585L275.164 256.093C275.164 256.093 256.299 225.173 244.863 210.642C233.427 196.111 201.324 168.022 201.324 168.022L195.479 164.262C195.479 164.262 169.721 136.429 174.055 103.342" fill="#4C4957"/>
<path d="M192.793 93.6816C192.793 93.6816 282.12 134.571 291.862 134.571C301.604 134.571 379.059 165.182 379.059 165.182C379.059 165.182 428.225 189.3 392.971 230.117C357.717 270.934 305.774 262.585 305.774 262.585L275.164 256.093C275.164 256.093 256.299 225.173 244.863 210.642C233.427 196.111 201.324 168.022 201.324 168.022L195.479 164.262C195.479 164.262 169.721 136.429 174.055 103.342" stroke="black" stroke-width="2.73144" stroke-miterlimit="10"/>
<path d="M248.79 212.7C248.79 212.7 306.615 292.968 289.461 312.652C272.308 332.337 238.365 374.938 159.936 331.39C81.5077 287.842 100.983 222.906 100.983 222.906C100.983 222.906 105.153 136.174 137.165 105.09L152.006 106.019C152.006 106.019 142.264 161.212 177.054 188.581L248.79 212.7Z" fill="#EE4F28" stroke="black" stroke-width="1.82096" stroke-miterlimit="10"/>
<path d="M89.8462 53.1387C89.8462 53.1387 93.2364 61.3782 89.8462 83.749" stroke="black" stroke-width="1.82096" stroke-miterlimit="10"/>
<path d="M57.5326 91.2884C59.217 85.7345 63.132 77.0121 71.0168 77.3308C73.3385 77.4218 75.1959 79.3247 75.1686 81.6555C75.114 87.4826 74.4117 99.7887 62.011 98.1135C59.407 97.7675 56.7678 93.8013 57.5235 91.2884H57.5326Z" fill="white"/>
<path d="M64.766 97.1957C67.5212 96.2773 67.2991 76.5728 61.7888 83.0015C57.9817 87.4431 56.7484 93.0842 57.4186 95.3589C57.5362 95.9711 62.5619 97.9304 64.766 97.1957Z" fill="black"/>
<path d="M60.1731 95.3583C60.0478 95.1078 57.5244 95.7181 57.4186 95.3589M57.4186 95.3589C56.7484 93.0842 57.9817 87.4431 61.7888 83.0015C67.2991 76.5728 67.5212 96.2773 64.766 97.1957C62.5619 97.9304 57.5362 95.9711 57.4186 95.3589Z" stroke="black" stroke-width="1.83679"/>
<path d="M52.7446 105.09L86.1411 180.55" stroke="black" stroke-width="1.82096" stroke-miterlimit="10"/>
<path d="M36.9741 105.09L69.4419 223.835" stroke="black" stroke-width="1.82096" stroke-miterlimit="10"/>
<path d="M52.7446 116.225L78.8572 196.93" stroke="black" stroke-width="1.82096" stroke-miterlimit="10"/>
<path d="M27.6968 89.785L29.0898 80.5254C29.2082 79.7697 29.2719 77.712 29.7089 78.3403C31.7757 81.2993 36.5466 89.3662 35.5815 93.4907L27.6968 89.7759V89.785Z" fill="#EF6C6C" stroke="#A05555" stroke-width="0.910481" stroke-miterlimit="10"/>
<path d="M372.72 373.196L370.205 372.693L372.72 373.196ZM388.534 313.832C388.558 315.248 389.726 316.376 391.142 316.352C392.558 316.328 393.686 315.16 393.662 313.744L391.098 313.788L388.534 313.832ZM298.354 389.009L297.455 391.411C308.683 395.612 326.029 399.897 341.539 398.941C349.307 398.462 356.818 396.657 362.874 392.674C369.008 388.64 373.478 382.48 375.234 373.699L372.72 373.196L370.205 372.693C368.713 380.152 365.024 385.122 360.056 388.389C355.009 391.708 348.475 393.375 341.223 393.822C326.695 394.718 310.106 390.669 299.252 386.607L298.354 389.009ZM372.72 373.196L375.234 373.699C377.365 363.044 375.983 354.657 372.806 347.862C369.656 341.126 364.826 336.135 360.387 332.131C359.275 331.129 358.178 330.18 357.138 329.284C356.09 328.381 355.11 327.541 354.196 326.726C352.345 325.078 350.924 323.671 349.981 322.357C349.056 321.067 348.743 320.074 348.782 319.209C348.821 318.343 349.233 317.145 350.702 315.492L348.786 313.788L346.869 312.084C344.919 314.278 343.768 316.552 343.659 318.977C343.549 321.402 344.503 323.518 345.814 325.347C347.109 327.151 348.896 328.873 350.784 330.555C351.738 331.406 352.759 332.281 353.79 333.169C354.828 334.064 355.887 334.98 356.952 335.94C361.22 339.79 365.446 344.229 368.16 350.034C370.846 355.78 372.135 363.046 370.205 372.693L372.72 373.196ZM348.786 313.788L350.702 315.492C357.229 308.149 367.174 302.341 375.249 301.264C379.253 300.731 382.439 301.397 384.615 303.159C386.752 304.89 388.435 308.105 388.534 313.832L391.098 313.788L393.662 313.744C393.547 307.077 391.543 302.171 387.844 299.174C384.183 296.209 379.383 295.539 374.571 296.181C365.017 297.455 354.019 304.041 346.869 312.084L348.786 313.788Z" fill="#4C4957"/>
</g>
<defs>
<clipPath id="clip0_486_1996">
<rect width="385.725" height="444.752" fill="white" transform="translate(25.2749 31.9902)"/>
</clipPath>
</defs>
</svg>
