<svg width="142" height="193" viewBox="0 0 142 193" fill="none" xmlns="http://www.w3.org/2000/svg">
<path d="M42.8838 59.1299C43.0476 60.9962 43.2503 63.107 43.4971 65.2461C43.8697 68.4762 44.3356 71.759 44.8965 74.3604C45.1772 75.6624 45.4787 76.7783 45.7979 77.626C45.9574 78.0496 46.1173 78.3943 46.2744 78.6572C46.435 78.9259 46.574 79.0775 46.6787 79.1504L46.7764 79.2178L46.834 79.3203L46.835 79.3223C46.8361 79.3242 46.838 79.3282 46.8408 79.333C46.8465 79.3427 46.8556 79.3582 46.8682 79.3789C46.8934 79.4205 46.9329 79.4835 46.9863 79.5654C47.0936 79.73 47.2586 79.9704 47.4824 80.2646C47.9302 80.8534 48.6147 81.6573 49.5547 82.5049C51.4337 84.1992 54.3294 86.0667 58.4004 86.7568C60.4594 87.1065 61.4927 86.8352 61.9824 86.4307C62.4411 86.0516 62.5743 85.4179 62.4355 84.5654C62.2988 83.7251 61.9161 82.8175 61.5508 82.1006C61.3705 81.7467 61.1993 81.448 61.0732 81.2383C61.0129 81.138 60.9628 81.0581 60.9277 81.0029C60.8993 80.9847 60.8648 80.9633 60.8252 80.9375C60.6946 80.8525 60.504 80.7266 60.2617 80.5605C59.777 80.2283 59.0846 79.7355 58.248 79.0908C56.5756 77.802 54.3241 75.9025 52.0049 73.458C48.5651 69.8323 44.957 64.9832 42.8838 59.1299Z" fill="#C6B69C" stroke="black" stroke-width="1.04232"/>
<path d="M80.9287 44.6641C84.691 52.986 85.2159 60.3808 84.7373 65.8301C84.4778 68.7846 83.9235 71.1661 83.4326 72.8125C83.1872 73.6356 82.9576 74.2754 82.7881 74.7119C82.751 74.8073 82.7144 74.892 82.6836 74.9678L89.2725 79.2031L90.1299 77.8203C91.6181 74.8124 91.2658 70.2514 89.7666 64.9629C88.2741 59.6981 85.6863 53.8481 82.8887 48.377C82.2428 47.1139 81.5848 45.8729 80.9287 44.6641Z" fill="#C6B69C" stroke="black" stroke-width="1.04232"/>
<path d="M107.936 14.7373C102.846 7.26863 93.0139 -0.102218 73.9395 0.563477C73.9332 0.566925 73.9267 0.570452 73.9199 0.574219C73.8376 0.620071 73.7152 0.689313 73.5605 0.78125C73.2511 0.965193 72.8109 1.23951 72.2939 1.59766C71.2581 2.3153 69.9229 3.36378 68.7109 4.69043C66.2826 7.34859 64.4216 11.0299 66.2568 15.4209C68.2018 20.0745 69.5877 23.1117 70.4863 24.9824C70.9355 25.9175 71.2627 26.5608 71.4766 26.9687C71.5835 27.1727 71.6626 27.318 71.7139 27.4111C71.7395 27.4576 71.7584 27.4913 71.7705 27.5127C71.7742 27.5193 71.7768 27.525 71.7793 27.5293L79.6357 40.2139L79.6533 40.2412L79.666 40.2705L79.667 40.2715C79.6673 40.2722 79.6673 40.2739 79.668 40.2754L79.6973 40.3389C79.7179 40.3838 79.7491 40.4509 79.7891 40.5381C79.8691 40.7124 79.987 40.9685 80.1367 41.2959C80.4364 41.9513 80.8651 42.8929 81.3838 44.0371C82.4211 46.3257 83.8164 49.4267 85.2471 52.6758C86.6775 55.9243 88.1451 59.3238 89.3262 62.208C90.5008 65.0764 91.4105 67.4775 91.7051 68.7051V68.7061V68.707V68.708C91.7053 68.7091 91.7056 68.7111 91.7061 68.7129C91.7069 68.7166 91.7084 68.7219 91.71 68.7285C91.7131 68.742 91.7181 68.762 91.7236 68.7871C91.7347 68.8374 91.75 68.9106 91.7686 69.0039C91.8058 69.1908 91.8552 69.4601 91.9062 69.7939C92.0083 70.4613 92.1161 71.3918 92.1396 72.4443C92.1836 74.4061 91.936 76.876 90.7275 78.8447L92.0674 80.2324C92.2393 80.0532 92.4689 79.8134 92.7461 79.5137C93.4149 78.7907 94.3679 77.7263 95.5039 76.3672C97.7765 73.6482 100.776 69.7505 103.682 65.0361C109.502 55.5925 114.903 42.9449 113.432 29.96L113.43 29.9434L113.429 29.9268C113.429 29.9262 113.429 29.9243 113.429 29.9229C113.429 29.92 113.428 29.9154 113.428 29.9092C113.427 29.8959 113.426 29.8745 113.424 29.8467C113.42 29.7911 113.413 29.707 113.403 29.5967C113.384 29.3756 113.35 29.0483 113.293 28.6309C113.179 27.7956 112.972 26.5997 112.605 25.167C111.871 22.2996 110.496 18.495 107.936 14.7373Z" fill="#FD6B3A" stroke="black" stroke-width="1.04232"/>
<path d="M113.949 190.643C113.949 190.643 114.038 193.165 111.028 190.643C111.028 190.643 105.629 188.874 103.593 187.19C103.593 187.19 101.115 186.127 99.789 186.039C99.789 186.039 96.6464 184.092 96.0731 182.234C96.0731 182.234 94.3038 174.888 81.0272 174.711C81.0272 174.711 71.5578 173.473 61.5567 182.588L58.4584 185.687C58.4584 185.687 50.3153 189.89 49.2547 190.023C48.1915 190.156 45.1844 190.2 45.3616 189.58C45.5388 188.96 45.3173 186.747 57.4864 185.598C57.4864 185.598 50.0521 179.271 50.4951 175.42C50.4951 175.42 47.4411 168.429 52.796 159.313C58.1509 150.198 59.876 143.739 59.876 143.739C59.876 143.739 60.5847 141.526 58.9014 141.526C55.1803 124.005 44.5369 122.614 44.5369 122.614C44.5369 122.614 42.6124 120.14 44.5369 118.34C45.3616 117.116 44.5369 116.291 44.5369 114.799C44.5369 113.306 45.0867 110.793 46.4613 111.342C47.8359 111.892 49.3854 115.831 49.7603 116.566C49.7603 116.566 47.0111 111.892 49.7603 109.968C50.3805 109.082 52.796 118.34 52.796 118.34L56.7724 120.965L58.633 124.005L61.2883 118.34C61.2883 118.34 62.4818 111.348 60.4909 108.959C58.5001 106.569 56.2878 107.101 55.1803 99.4895L56.7724 90.9946C56.7724 90.9946 60.9313 80.6391 61.9945 79.4899C63.0576 78.3382 69.9161 74.5337 73.2333 74.5337C76.5505 74.5337 84.8265 74.4008 89.5169 78.4268C94.2074 82.4527 97.7461 89.3998 97.7461 89.3998L102.525 114.799L100.047 128.427C100.047 128.427 98.3662 133.472 99.5154 139.046C100.667 144.622 105.887 154.975 105.887 154.975C105.887 154.975 114.47 169.844 111.729 174.8C108.985 179.756 101.994 183.826 101.994 183.826L106.064 186.304C106.064 186.304 111.64 185.507 112.789 188.074L113.941 190.64L113.949 190.643Z" fill="#C6B69C" stroke="black" stroke-width="1.04232" stroke-miterlimit="10"/>
<path d="M112.319 107.39C112.319 107.39 114.136 107.295 112.684 105.99C112.684 105.99 113.092 104.353 111.339 104.145C111.339 104.145 112.637 103.629 110.296 103.376C108.329 103.162 109.956 101.394 108.366 102.474L106.776 103.554L110.776 106.267C110.776 106.267 107.935 101.191 106.986 102.09C106.037 102.989 105.189 105.533 105.189 105.533C105.189 105.533 101.19 118.595 96.9891 118.27L95.3873 141.267C95.3873 141.267 105.627 122.741 107.229 115.133C108.831 107.526 109.3 108.92 109.3 108.92L112.317 107.389L112.319 107.39Z" fill="#C6B69C"/>
<path d="M27.9932 25.3867C25.1994 22.7912 22.1222 21.4902 18.7764 22.3779C15.3714 23.2815 12.376 26.0513 9.83398 29.8848C7.29854 33.7083 5.25898 38.5227 3.74121 43.3896C2.22427 48.2539 1.2361 53.147 0.791992 57.1133C0.569878 59.097 0.484487 60.839 0.535156 62.2236C0.586831 63.6355 0.778113 64.593 1.04492 65.0732L1.08008 65.1367L1.09668 65.208L1.09766 65.21C1.09806 65.2117 1.09866 65.2148 1.09961 65.2187C1.10151 65.2267 1.10427 65.2391 1.1084 65.2559C1.11674 65.2896 1.12959 65.3413 1.14746 65.4092C1.18328 65.5453 1.23941 65.7486 1.31738 66.0098C1.47335 66.5321 1.71864 67.2884 2.07422 68.2148C2.78582 70.0688 3.93728 72.6011 5.69434 75.3076C9.20772 80.7194 15.1332 86.8158 24.8057 89.6035C34.5581 92.4154 42.5655 92.5236 48.125 91.9326C50.9053 91.6371 53.0745 91.1661 54.5439 90.7715C55.2785 90.5742 55.8381 90.3957 56.2119 90.2676C56.3599 90.2169 56.4784 90.1727 56.5674 90.1396L57.8223 87.0977C57.6646 87.0286 57.4699 86.9451 57.2451 86.8438C56.588 86.5473 55.6641 86.1172 54.5967 85.582C52.4658 84.5136 49.7454 83.0175 47.4238 81.3213L47.3105 81.2393L47.2549 81.1123C45.7975 77.8257 44.5742 71.6341 43.6162 65.8027C42.6553 59.9533 41.9609 54.4706 41.5498 52.3252L41.5469 52.3184L41.5459 52.3174C41.5457 52.3165 41.5454 52.3152 41.5449 52.3135C41.5439 52.3096 41.5422 52.3038 41.54 52.2959C41.5358 52.2801 41.5301 52.2561 41.5215 52.2246C41.5042 52.1613 41.478 52.0666 41.4434 51.9434C41.3741 51.6969 41.2699 51.3347 41.1328 50.875C40.8585 49.9553 40.4505 48.6445 39.916 47.083C38.8461 43.9573 37.2723 39.8358 35.2568 35.8379C33.2375 31.8323 30.7929 27.988 27.9932 25.3867Z" fill="#FD6B3A" stroke="black" stroke-width="1.04232"/>
<path d="M112.153 170.633C132.04 171.908 134.826 156.747 134.826 156.747C134.826 156.747 136.603 140.419 130.232 121.702C123.861 102.987 140.851 87.8809 140.851 87.8809" stroke="#C6B69C" stroke-width="1.86305" stroke-miterlimit="10"/>
<path d="M59.3359 108.17L43.4458 108.404" stroke="black" stroke-width="0.13029" stroke-miterlimit="10"/>
<path d="M56.7734 105.196L40.9119 104.273" stroke="black" stroke-width="0.13029" stroke-miterlimit="10"/>
<path d="M90.8522 95.8964L115.276 83.6465" stroke="black" stroke-width="0.13029" stroke-miterlimit="10"/>
<path d="M85.2761 96.4635C84.5204 95.5854 84.1321 94.3476 85.3047 92.7789C85.7269 92.2134 86.3418 91.8174 87.0219 91.6298C88.6089 91.1946 91.5117 90.8662 91.2355 94.3841C91.1443 95.5306 90.4564 96.5469 89.4297 97.0654L89.203 97.1801C87.8819 97.8472 86.2428 97.5866 85.2734 96.4635H85.2761Z" fill="black"/>
<path d="M63.1588 97.4322C62.5074 98.3912 62.265 99.6654 63.6122 101.088C64.0969 101.602 64.751 101.925 65.4519 102.031C67.0806 102.282 69.9991 102.274 69.3189 98.8107C69.0974 97.6824 68.2949 96.7521 67.2161 96.356L66.9789 96.27C65.5874 95.7593 63.9901 96.2075 63.1588 97.4348V97.4322Z" fill="black"/>
<path d="M79.1706 103.515L81.7373 101.037C81.7373 101.037 78.5296 100.307 75.4104 102.274L79.1706 103.512V103.515Z" fill="#D47E5D"/>
<path d="M79.9197 104.576L85.4518 101.566H87.5312C87.5312 101.566 84.4121 110.194 79.3021 110.903C79.3021 110.903 74.6325 112.85 69.744 104.31L79.9223 104.576H79.9197Z" fill="#5B1B19"/>
<path d="M83.1504 103.162L83.6377 103.517C83.6377 103.517 81.4462 107.454 80.185 107.764C78.9238 108.074 76.9981 107.985 76.9981 107.985L72.3129 104.379L79.9192 104.577L83.1504 103.162Z" fill="#ECE7E3"/>
<path d="M85.8057 108.404C85.8057 108.404 83.4161 112.412 79.4345 112.944C75.4528 113.475 71.2861 110.674 71.2861 110.674" stroke="black" stroke-width="0.26058" stroke-miterlimit="10"/>
<path d="M91.256 105.195L97.7549 91.3684V89.3984L91.256 105.195Z" stroke="black" stroke-width="0.26058" stroke-miterlimit="10"/>
<path d="M63.8584 110.703C63.8584 110.703 56.2677 107.722 55.7257 103.605L36.1587 100.814" stroke="black" stroke-width="0.13029" stroke-miterlimit="10"/>
</svg>
