<svg width="210" height="243" viewBox="0 0 210 243" fill="none" xmlns="http://www.w3.org/2000/svg">
<g clip-path="url(#clip0_207_2)">
<path d="M208.175 25.1503H194.033L180.902 8.48518C180.902 8.48518 163.732 -5.90972 143.527 3.93968C123.323 13.7891 118.277 29.6958 118.277 29.6958C118.277 29.6958 114.742 37.27 115.248 49.8953C115.754 62.5206 90.9847 93.8582 87.5 94.111C84.0153 94.3638 64.5 146 64.5 146L127.373 85.2481C127.373 85.2481 146.313 66.0549 141.009 40.2987L149.089 39.7931C149.089 39.7931 170.3 80.197 167.271 87.2655L168.788 94.111C168.788 94.111 167.524 80.9504 181.919 70.6004C196.313 60.2503 204.135 49.4393 204.135 49.4393C204.135 49.4393 212.721 44.5964 208.175 25.1503Z" fill="#4C4957" stroke="black" stroke-width="0.991385" stroke-miterlimit="10"/>
<path d="M67.5 139.5C67.5 139.5 30.9058 175.4 53.6333 204.442L62.2187 229.494L92.5204 226.664C92.5204 226.664 89.4917 217.776 75.8552 223.635C75.8552 223.635 86.9686 211.01 86.9686 209.999C86.9686 208.988 107.421 226.411 104.645 241.312L111.877 240.697L134.441 238.784C134.441 238.784 129.896 227.978 117.27 234.645C117.27 234.645 143.849 224.894 149.753 197.874C149.753 197.874 150.606 168.584 143.532 159.493C143.532 159.493 101.795 183.668 79.8951 167.067C57.9954 150.466 67.5 139.5 67.5 139.5Z" fill="#4C4957" stroke="black" stroke-width="1.48708" stroke-miterlimit="10"/>
<path d="M168.782 121.113L171.81 129.193C171.81 129.193 169.788 118.585 176.861 125.153C183.935 131.721 179.385 139.295 179.385 139.295L176.861 132.226C176.861 132.226 179.385 150.492 168.782 152.341C158.179 154.19 152.622 149.903 152.622 149.903C152.622 149.903 167.523 137.53 168.782 121.113Z" fill="#4C4957" stroke="black" stroke-width="0.991385" stroke-miterlimit="10"/>
<path d="M118.799 33.5869C118.799 33.5869 70.1663 55.8485 64.8624 55.8485C59.5585 55.8485 17.3899 72.5136 17.3899 72.5136C17.3899 72.5136 -9.37745 85.6445 9.81575 107.866C29.009 130.088 57.2882 125.543 57.2882 125.543L73.9534 122.008C73.9534 122.008 84.2241 105.175 90.45 97.2635C96.6759 89.3523 114.154 74.0602 114.154 74.0602L117.336 72.013C117.336 72.013 131.359 56.8597 129 38.8462" fill="#4C4957"/>
<path d="M118.799 33.5869C118.799 33.5869 70.1663 55.8485 64.8624 55.8485C59.5585 55.8485 17.3899 72.5136 17.3899 72.5136C17.3899 72.5136 -9.37745 85.6445 9.81575 107.866C29.009 130.088 57.2882 125.543 57.2882 125.543L73.9534 122.008C73.9534 122.008 84.2241 105.175 90.45 97.2635C96.6759 89.3523 114.154 74.0602 114.154 74.0602L117.336 72.013C117.336 72.013 131.359 56.8597 129 38.8462" stroke="black" stroke-width="1.48708" stroke-miterlimit="10"/>
<path d="M95 113C95 113 56.8306 142.084 66.1694 152.801C75.5083 163.518 93.9877 186.712 136.687 163.003C179.386 139.294 168.783 103.941 168.783 103.941C168.783 103.941 166.512 56.7213 149.084 39.7983L141.004 40.3039C141.004 40.3039 146.308 70.3528 127.368 85.2533L95 113Z" fill="#EE4F28" stroke="black" stroke-width="0.991385" stroke-miterlimit="10"/>
<path d="M174.846 11.5142C174.846 11.5142 168.03 18.0821 174.846 28.1793" stroke="black" stroke-width="0.991385" stroke-miterlimit="10"/>
<path d="M192.438 32.2842C191.521 29.2605 189.389 24.5118 185.097 24.6853C183.833 24.7349 182.822 25.7709 182.836 27.0398C182.866 30.2123 183.798 36.1953 190.549 35.2832C191.967 35.0948 192.854 33.6524 192.443 32.2842H192.438Z" fill="black"/>
<path d="M195.045 39.7983L176.863 80.8813" stroke="black" stroke-width="0.991385" stroke-miterlimit="10"/>
<path d="M203.631 39.7983L185.954 104.447" stroke="black" stroke-width="0.991385" stroke-miterlimit="10"/>
<path d="M195.045 45.8604L180.828 89.7985" stroke="black" stroke-width="0.991385" stroke-miterlimit="10"/>
<path d="M86.8329 209.739C86.8329 209.739 103.677 232.669 136.253 216.604C168.83 200.539 154.941 136.907 148.373 127.31C141.805 117.713 138.5 114.587 138.5 114.587" stroke="black" stroke-width="0.991385" stroke-miterlimit="10"/>
<path d="M208.682 31.4658L207.923 26.4246C207.859 26.0132 207.824 24.8929 207.586 25.2349C206.461 26.8459 203.864 31.2378 204.389 33.4832L208.682 31.4608V31.4658Z" fill="#EF6C6C" stroke="#A05555" stroke-width="0.495692" stroke-miterlimit="10"/>
<path d="M148.5 127.087L138.5 114.587C129.833 109.921 113 107.287 115 134.087C117 160.887 127.5 163.92 132.5 162.087" stroke="black"/>
</g>
<defs>
<clipPath id="clip0_207_2">
<rect width="210" height="242.136" fill="white" transform="matrix(-1 0 0 1 210 0)"/>
</clipPath>
</defs>
</svg>
