<svg width="146" height="106" viewBox="0 0 146 106" fill="none" xmlns="http://www.w3.org/2000/svg">
<path d="M45.356 99H41.3V87.04H52.74V99H48.684V90.68H45.356V99ZM62.777 86.65C63.8343 86.65 64.7963 86.9273 65.663 87.482C66.5297 88.0367 67.2143 88.808 67.717 89.796C68.2197 90.7667 68.471 91.8413 68.471 93.02C68.471 94.1987 68.2197 95.282 67.717 96.27C67.2143 97.2407 66.5297 98.0033 65.663 98.558C64.7963 99.1127 63.8343 99.39 62.777 99.39C61.4597 99.39 60.333 98.948 59.397 98.064V105.5H55.341V87.04H59.241V88.132C60.1943 87.144 61.373 86.65 62.777 86.65ZM61.841 95.594C62.569 95.594 63.167 95.3513 63.635 94.866C64.1203 94.3807 64.363 93.7653 64.363 93.02C64.363 92.2747 64.1203 91.6593 63.635 91.174C63.167 90.6887 62.569 90.446 61.841 90.446C61.0957 90.446 60.4803 90.6887 59.995 91.174C59.527 91.6593 59.293 92.2747 59.293 93.02C59.293 93.7653 59.527 94.3807 59.995 94.866C60.4803 95.3513 61.0957 95.594 61.841 95.594ZM82.51 92.344C82.51 93.02 82.4667 93.644 82.38 94.216H74.294C74.502 94.8227 74.84 95.2993 75.308 95.646C75.776 95.9753 76.374 96.14 77.102 96.14C78.246 96.14 79.2513 95.7153 80.118 94.866L82.068 97.18C81.3573 97.8907 80.5253 98.4367 79.572 98.818C78.636 99.1993 77.6393 99.39 76.582 99.39C75.2993 99.39 74.164 99.1213 73.176 98.584C72.188 98.0467 71.4167 97.3013 70.862 96.348C70.3073 95.3947 70.03 94.3027 70.03 93.072C70.03 91.8587 70.2987 90.7667 70.836 89.796C71.3907 88.808 72.1447 88.0367 73.098 87.482C74.0687 86.9273 75.1607 86.65 76.374 86.65C77.518 86.65 78.558 86.9013 79.494 87.404C80.43 87.9067 81.1667 88.5913 81.704 89.458C82.2413 90.3247 82.51 91.2867 82.51 92.344ZM76.348 89.64C75.8107 89.64 75.3427 89.8047 74.944 90.134C74.5627 90.4633 74.3027 90.9573 74.164 91.616H78.376C78.2893 91.0093 78.064 90.5327 77.7 90.186C77.3533 89.822 76.9027 89.64 76.348 89.64ZM90.701 99.39C89.4877 99.39 88.3697 99.1127 87.347 98.558C86.3417 97.986 85.5443 97.2147 84.955 96.244C84.3657 95.256 84.071 94.1813 84.071 93.02C84.071 91.8413 84.357 90.7667 84.929 89.796C85.5183 88.8253 86.3243 88.0627 87.347 87.508C88.3697 86.936 89.4963 86.65 90.727 86.65C91.767 86.65 92.7463 86.858 93.665 87.274C94.601 87.69 95.3897 88.288 96.031 89.068L93.223 91.824C92.859 91.3387 92.4777 90.992 92.079 90.784C91.6803 90.5587 91.2297 90.446 90.727 90.446C89.9817 90.446 89.3663 90.68 88.881 91.148C88.413 91.616 88.179 92.2313 88.179 92.994C88.179 93.774 88.413 94.4067 88.881 94.892C89.349 95.36 89.9643 95.594 90.727 95.594C91.2297 95.594 91.689 95.4813 92.105 95.256C92.5383 95.0133 92.9543 94.6407 93.353 94.138L96.161 96.946C95.5197 97.7087 94.7137 98.3067 93.743 98.74C92.7897 99.1733 91.7757 99.39 90.701 99.39ZM103.447 99.39C102.234 99.39 101.116 99.1127 100.093 98.558C99.0878 97.986 98.2904 97.2147 97.7011 96.244C97.1118 95.256 96.8171 94.1813 96.8171 93.02C96.8171 91.8413 97.1031 90.7667 97.6751 89.796C98.2644 88.8253 99.0704 88.0627 100.093 87.508C101.116 86.936 102.242 86.65 103.473 86.65C104.513 86.65 105.492 86.858 106.411 87.274C107.347 87.69 108.136 88.288 108.777 89.068L105.969 91.824C105.605 91.3387 105.224 90.992 104.825 90.784C104.426 90.5587 103.976 90.446 103.473 90.446C102.728 90.446 102.112 90.68 101.627 91.148C101.159 91.616 100.925 92.2313 100.925 92.994C100.925 93.774 101.159 94.4067 101.627 94.892C102.095 95.36 102.71 95.594 103.473 95.594C103.976 95.594 104.435 95.4813 104.851 95.256C105.284 95.0133 105.7 94.6407 106.099 94.138L108.907 96.946C108.266 97.7087 107.46 98.3067 106.489 98.74C105.536 99.1733 104.522 99.39 103.447 99.39Z" fill="#150E2E"/>
<ellipse cx="72.2043" cy="7.09149" rx="72.2043" ry="7.09149" fill="#A49D9D"/>
<line x1="0.5" y1="6.44727" x2="0.5" y2="58.0217" stroke="black"/>
<line x1="144.908" y1="6.44727" x2="144.908" y2="58.0217" stroke="black"/>
<path d="M75.1052 66.4021C101.215 66.4021 125.39 63.8234 144.408 58.0215V7.41406C135.638 11.7926 94.5531 13.5385 75.1052 13.8609C60.9222 13.8609 19.5552 9.563 0.644531 7.41406V58.0215C15.7945 61.3524 51.8451 66.4021 75.1052 66.4021Z" fill="#8A8A8A"/>
</svg>
