<svg width="283" height="87" viewBox="0 0 283 87" fill="none" xmlns="http://www.w3.org/2000/svg">
<rect width="282.849" height="87" rx="36.9452" fill="#150E2E"/>
<path d="M33.6227 56.4171C31.7874 56.4171 30.1189 55.9907 28.6173 55.1379C27.1342 54.2852 25.9662 53.1172 25.1134 51.6341C24.2606 50.151 23.8342 48.4918 23.8342 46.6564C23.8342 44.8396 24.2606 43.1897 25.1134 41.7066C25.9662 40.2235 27.1342 39.0648 28.6173 38.2305C30.1004 37.3778 31.7596 36.9514 33.5949 36.9514C35.078 36.9514 36.4592 37.2387 37.7384 37.8134C39.0175 38.3881 40.1206 39.2131 41.0475 40.2884L37.7105 43.4307C37.2285 42.8745 36.6538 42.4481 35.9864 42.1515C35.319 41.8363 34.596 41.6788 33.8174 41.6788C32.8719 41.6788 32.0191 41.892 31.259 42.3184C30.499 42.7447 29.9057 43.338 29.4793 44.0981C29.0529 44.8582 28.8397 45.711 28.8397 46.6564C28.8397 47.6205 29.0529 48.4918 29.4793 49.2704C29.9057 50.0305 30.499 50.6237 31.259 51.0501C32.0191 51.4765 32.8812 51.6897 33.8452 51.6897C34.6424 51.6897 35.3747 51.5414 36.0421 51.2448C36.7095 50.9296 37.2749 50.494 37.7384 49.9378L41.0753 53.0523C40.1669 54.109 39.0732 54.934 37.794 55.5273C36.5148 56.1205 35.1244 56.4171 33.6227 56.4171ZM49.3077 43.0414C50.661 43.0414 51.866 43.3195 52.9227 43.8756C53.998 44.4318 54.8415 45.2011 55.4533 46.1837C56.0651 47.1663 56.371 48.2786 56.371 49.5207C56.371 50.7442 56.0651 51.8473 55.4533 52.8299C54.86 53.8124 54.0351 54.5911 52.9783 55.1658C51.9402 55.7219 50.7722 56 49.4745 56H43.162V37.3685H47.8894V43.0414H49.3077ZM58.1785 56V37.3685H62.9059V56H58.1785ZM49.3077 51.6897C50.0121 51.6897 50.5776 51.4951 51.004 51.1058C51.4304 50.6979 51.6436 50.1695 51.6436 49.5207C51.6436 48.8718 51.4211 48.3527 50.9762 47.9634C50.5498 47.5556 49.9936 47.3516 49.3077 47.3516H47.8894V51.6897H49.3077ZM71.5221 56H66.7947V37.3685H77.6399V41.8178H71.5221V56ZM85.9993 37.3685C87.3526 37.3685 88.5577 37.6466 89.6144 38.2027C90.6896 38.7589 91.5331 39.5283 92.1449 40.5108C92.7567 41.4934 93.0626 42.6057 93.0626 43.8478C93.0626 45.0714 92.7567 46.1744 92.1449 47.157C91.5517 48.1395 90.7267 48.9182 89.67 49.4929C88.6318 50.049 87.4639 50.3271 86.1662 50.3271H84.7201V56H79.9927V37.3685H85.9993ZM85.9993 46.0168C86.7038 46.0168 87.2692 45.8222 87.6956 45.4329C88.122 45.025 88.3352 44.4967 88.3352 43.8478C88.3352 43.1989 88.1127 42.6799 87.6678 42.2905C87.2414 41.8827 86.6852 41.6788 85.9993 41.6788H84.7201V46.0168H85.9993ZM110.741 56H105.68L104.763 53.247H98.2834L97.3657 56H92.388L99.4513 37.3685H103.845L110.741 56ZM99.5904 49.3538H103.456L101.537 43.5419L99.5904 49.3538ZM119.511 56H114.783V41.8178H109.639V37.3685H124.655V41.8178H119.511V56ZM133.312 43.0414C134.666 43.0414 135.871 43.3195 136.927 43.8756C138.003 44.4318 138.846 45.2011 139.458 46.1837C140.07 47.1663 140.376 48.2786 140.376 49.5207C140.376 50.7442 140.07 51.8473 139.458 52.8299C138.865 53.8124 138.04 54.5911 136.983 55.1658C135.945 55.7219 134.777 56 133.479 56H127.028V37.3685H131.755V43.0414H133.312ZM133.312 51.6897C134.017 51.6897 134.582 51.4951 135.009 51.1058C135.435 50.6979 135.648 50.1695 135.648 49.5207C135.648 48.8718 135.426 48.3527 134.981 47.9634C134.554 47.5556 133.998 47.3516 133.312 47.3516H131.755V51.6897H133.312ZM153.182 48.6308V51.6063H159.577V56H148.454V37.3685H159.438V41.7622H153.182V44.4596H157.687V48.6308H153.182ZM190.71 60.4493H186.26V56H162.901V37.3685H167.629V51.5507H173.19V37.3685H177.918V51.5507H183.479V37.3685H188.207V51.5507H190.71V60.4493ZM197.8 48.6308V51.6063H204.196V56H193.072V37.3685H204.056V41.7622H197.8V44.4596H202.305V48.6308H197.8ZM219.636 37.3685C220.99 37.3685 222.195 37.6466 223.251 38.2027C224.327 38.7589 225.17 39.5283 225.782 40.5108C226.394 41.4934 226.7 42.6057 226.7 43.8478C226.7 45.0714 226.394 46.1744 225.782 47.157C225.189 48.1395 224.364 48.9182 223.307 49.4929C222.269 50.049 221.101 50.3271 219.803 50.3271H218.357V56H213.63V37.3685H219.636ZM219.636 46.0168C220.341 46.0168 220.906 45.8222 221.333 45.4329C221.759 45.025 221.972 44.4967 221.972 43.8478C221.972 43.1989 221.75 42.6799 221.305 42.2905C220.878 41.8827 220.322 41.6788 219.636 41.6788H218.357V46.0168H219.636ZM244.378 56H239.317L238.4 53.247H231.92L231.003 56H226.025L233.088 37.3685H237.482L244.378 56ZM233.227 49.3538H237.093L235.174 43.5419L233.227 49.3538ZM255.478 46.3505C256.331 46.8511 256.989 47.4814 257.453 48.2415C257.916 49.0016 258.148 49.8544 258.148 50.7999C258.148 51.8751 257.851 52.8391 257.258 53.6919C256.665 54.5447 255.849 55.2121 254.811 55.6941C253.773 56.1761 252.605 56.4171 251.307 56.4171C249.787 56.4171 248.433 56.0927 247.247 55.4438C246.079 54.7764 245.217 53.8588 244.661 52.6908L248.165 50.3549C248.814 51.801 249.759 52.524 251.001 52.524C251.706 52.524 252.28 52.3293 252.725 51.94C253.189 51.5507 253.42 51.0501 253.42 50.4384C253.42 49.771 253.152 49.2426 252.614 48.8533C252.095 48.464 251.39 48.2693 250.501 48.2693H248.693V44.8211H250.195C251.029 44.8211 251.678 44.6264 252.141 44.2371C252.623 43.8478 252.864 43.3287 252.864 42.6799C252.864 42.0866 252.67 41.6139 252.28 41.2616C251.891 40.8909 251.381 40.7055 250.751 40.7055C250.232 40.7055 249.768 40.8538 249.36 41.1504C248.953 41.4285 248.545 41.8827 248.137 42.513L245.3 39.9268C246.005 38.9814 246.895 38.2491 247.97 37.73C249.045 37.2109 250.213 36.9514 251.474 36.9514C252.642 36.9514 253.689 37.1831 254.616 37.6466C255.543 38.0915 256.266 38.7126 256.785 39.5097C257.323 40.3069 257.592 41.2153 257.592 42.2349C257.592 43.0692 257.406 43.8385 257.035 44.543C256.665 45.2475 256.146 45.85 255.478 46.3505Z" fill="#FFF200"/>
</svg>
