<svg width="144" height="62" viewBox="0 0 144 62" fill="none" xmlns="http://www.w3.org/2000/svg">
<rect width="143.196" height="62" rx="31" fill="#150E2E"/>
<path d="M39.0297 39.89C37.3137 39.89 35.7537 39.4913 34.3497 38.694C32.963 37.8967 31.871 36.8047 31.0737 35.418C30.2763 34.0313 29.8777 32.48 29.8777 30.764C29.8777 29.0653 30.2763 27.5227 31.0737 26.136C31.871 24.7493 32.963 23.666 34.3497 22.886C35.7363 22.0887 37.2877 21.69 39.0037 21.69C40.3903 21.69 41.6817 21.9587 42.8777 22.496C44.0737 23.0333 45.105 23.8047 45.9717 24.81L42.8517 27.748C42.401 27.228 41.8637 26.8293 41.2397 26.552C40.6157 26.2573 39.9397 26.11 39.2117 26.11C38.3277 26.11 37.5303 26.3093 36.8197 26.708C36.109 27.1067 35.5543 27.6613 35.1557 28.372C34.757 29.0827 34.5577 29.88 34.5577 30.764C34.5577 31.6653 34.757 32.48 35.1557 33.208C35.5543 33.9187 36.109 34.4733 36.8197 34.872C37.5303 35.2707 38.3363 35.47 39.2377 35.47C39.983 35.47 40.6677 35.3313 41.2917 35.054C41.9157 34.7593 42.4443 34.352 42.8777 33.832L45.9977 36.744C45.1483 37.732 44.1257 38.5033 42.9297 39.058C41.7337 39.6127 40.4337 39.89 39.0297 39.89ZM55.5009 39.5H51.0809V26.24H46.2709V22.08H60.3109V26.24H55.5009V39.5ZM76.4502 39.5H71.7182L70.8602 36.926H64.8022L63.9442 39.5H59.2902L65.8942 22.08H70.0022L76.4502 39.5ZM66.0242 33.286H69.6382L67.8442 27.852L66.0242 33.286ZM84.0141 22.08C85.2795 22.08 86.4061 22.34 87.3941 22.86C88.3995 23.38 89.1881 24.0993 89.7601 25.018C90.3321 25.9367 90.6181 26.9767 90.6181 28.138C90.6181 29.282 90.3321 30.3133 89.7601 31.232C89.2055 32.1507 88.4341 32.8787 87.4461 33.416C86.4755 33.936 85.3835 34.196 84.1701 34.196H82.8181V39.5H78.3981V22.08H84.0141ZM84.0141 30.166C84.6728 30.166 85.2015 29.984 85.6001 29.62C85.9988 29.2387 86.1981 28.7447 86.1981 28.138C86.1981 27.5313 85.9901 27.046 85.5741 26.682C85.1755 26.3007 84.6555 26.11 84.0141 26.11H82.8181V30.166H84.0141ZM100.772 39.5H96.3523V26.24H91.5423V22.08H105.582V26.24H100.772V39.5ZM111.31 33.52H108.19L107.67 22.08H111.83L111.31 33.52ZM109.75 39.76C109.109 39.76 108.554 39.5347 108.086 39.084C107.636 38.616 107.41 38.0613 107.41 37.42C107.41 36.7613 107.636 36.2067 108.086 35.756C108.554 35.3053 109.109 35.08 109.75 35.08C110.409 35.08 110.964 35.3053 111.414 35.756C111.865 36.2067 112.09 36.7613 112.09 37.42C112.09 38.0613 111.865 38.616 111.414 39.084C110.964 39.5347 110.409 39.76 109.75 39.76Z" fill="#FFF200"/>
</svg>
