<svg width="143" height="62" viewBox="0 0 143 62" fill="none" xmlns="http://www.w3.org/2000/svg">
<rect width="143" height="62" rx="31" fill="#150E2E"/>
<path d="M42.932 39.89C41.216 39.89 39.656 39.4913 38.252 38.694C36.8653 37.8967 35.7733 36.8047 34.976 35.418C34.1787 34.0313 33.78 32.48 33.78 30.764C33.78 29.0653 34.1787 27.5227 34.976 26.136C35.7733 24.7493 36.8653 23.666 38.252 22.886C39.6387 22.0887 41.19 21.69 42.906 21.69C44.2927 21.69 45.584 21.9587 46.78 22.496C47.976 23.0333 49.0073 23.8047 49.874 24.81L46.754 27.748C46.3033 27.228 45.766 26.8293 45.142 26.552C44.518 26.2573 43.842 26.11 43.114 26.11C42.23 26.11 41.4327 26.3093 40.722 26.708C40.0113 27.1067 39.4567 27.6613 39.058 28.372C38.6593 29.0827 38.46 29.88 38.46 30.764C38.46 31.6653 38.6593 32.48 39.058 33.208C39.4567 33.9187 40.0113 34.4733 40.722 34.872C41.4327 35.2707 42.2387 35.47 43.14 35.47C43.8853 35.47 44.57 35.3313 45.194 35.054C45.818 34.7593 46.3467 34.352 46.78 33.832L49.9 36.744C49.0507 37.732 48.028 38.5033 46.832 39.058C45.636 39.6127 44.336 39.89 42.932 39.89ZM59.4032 39.5H54.9832V26.24H50.1732V22.08H64.2132V26.24H59.4032V39.5ZM73.4503 39.89C71.7343 39.89 70.183 39.5 68.7963 38.72C67.4096 37.9227 66.3176 36.8307 65.5203 35.444C64.7403 34.0573 64.3503 32.506 64.3503 30.79C64.3503 29.074 64.7403 27.5227 65.5203 26.136C66.3176 24.7493 67.4096 23.666 68.7963 22.886C70.183 22.0887 71.7343 21.69 73.4503 21.69C75.1663 21.69 76.7176 22.0887 78.1043 22.886C79.491 23.666 80.5743 24.7493 81.3543 26.136C82.1516 27.5227 82.5503 29.074 82.5503 30.79C82.5503 32.506 82.1516 34.0573 81.3543 35.444C80.5743 36.8307 79.491 37.9227 78.1043 38.72C76.7176 39.5 75.1663 39.89 73.4503 39.89ZM73.4503 35.47C74.2823 35.47 75.0363 35.2707 75.7123 34.872C76.3883 34.456 76.917 33.8927 77.2983 33.182C77.6796 32.4713 77.8703 31.674 77.8703 30.79C77.8703 29.906 77.6796 29.1087 77.2983 28.398C76.917 27.6873 76.3883 27.1327 75.7123 26.734C75.0363 26.318 74.2823 26.11 73.4503 26.11C72.6183 26.11 71.8643 26.318 71.1883 26.734C70.5123 27.1327 69.9836 27.6873 69.6023 28.398C69.221 29.1087 69.0303 29.906 69.0303 30.79C69.0303 31.674 69.221 32.4713 69.6023 33.182C69.9836 33.8927 70.5123 34.456 71.1883 34.872C71.8643 35.2707 72.6183 35.47 73.4503 35.47ZM89.5642 39.5H85.1442V22.08H99.8342V39.5H95.4142V26.24H89.5642V39.5ZM106.986 33.52H103.866L103.346 22.08H107.506L106.986 33.52ZM105.426 39.76C104.785 39.76 104.23 39.5347 103.762 39.084C103.312 38.616 103.086 38.0613 103.086 37.42C103.086 36.7613 103.312 36.2067 103.762 35.756C104.23 35.3053 104.785 35.08 105.426 35.08C106.085 35.08 106.64 35.3053 107.09 35.756C107.541 36.2067 107.766 36.7613 107.766 37.42C107.766 38.0613 107.541 38.616 107.09 39.084C106.64 39.5347 106.085 39.76 105.426 39.76Z" fill="#FFF200"/>
</svg>
