<svg width="929" height="135" viewBox="0 0 929 135" fill="none" xmlns="http://www.w3.org/2000/svg">
<rect width="929" height="135" rx="56.0897" fill="#150E2E"/>
<path d="M45.8 39.7V29.7H52.6V56.5H45.8V46.1H36.6V56.5H29.8V29.7H36.6V39.7H45.8ZM65.7184 37.5C67.4518 37.5 68.9851 37.8733 70.3184 38.62C71.6784 39.34 72.7318 40.3533 73.4784 41.66C74.2251 42.9667 74.5984 44.4467 74.5984 46.1V56.5H68.3584V54.62C67.5584 55.58 66.7318 56.2333 65.8784 56.58C65.0251 56.9267 63.9584 57.1 62.6784 57.1C61.4784 57.1 60.3984 56.8467 59.4384 56.34C58.4784 55.8333 57.7318 55.14 57.1984 54.26C56.6651 53.38 56.3984 52.3933 56.3984 51.3C56.3984 50.1 56.7184 49.0333 57.3584 48.1C57.9984 47.14 58.8918 46.3933 60.0384 45.86C61.1851 45.3267 62.4918 45.06 63.9584 45.06C65.5318 45.06 66.9984 45.42 68.3584 46.14V45.9C68.3584 44.94 68.0118 44.1667 67.3184 43.58C66.6518 42.9667 65.8118 42.66 64.7984 42.66C64.1051 42.66 63.4384 42.8333 62.7984 43.18C62.1584 43.5 61.6118 43.9667 61.1584 44.58L57.5584 40.34C58.7051 39.3533 59.9184 38.6333 61.1984 38.18C62.5051 37.7267 64.0118 37.5 65.7184 37.5ZM65.0784 52.74C65.9584 52.74 66.7051 52.4867 67.3184 51.98C67.9318 51.4467 68.2784 50.78 68.3584 49.98C67.2651 49.34 66.1851 49.02 65.1184 49.02C64.3451 49.02 63.7318 49.1933 63.2784 49.54C62.8251 49.86 62.5984 50.3133 62.5984 50.9C62.5984 51.46 62.8118 51.9133 63.2384 52.26C63.6918 52.58 64.3051 52.74 65.0784 52.74ZM100.663 47.1L107.223 56.5H100.023L94.4234 47.9V56.5H88.4234V47.9L82.8234 56.5H75.6234L82.1834 47.1L76.1034 38.1H82.9434L88.4234 46.66V38.1H94.4234V46.66L99.9034 38.1H106.743L100.663 47.1ZM119.805 46.46L126.805 37.7H130.805V56.5H124.565V48.74L121.205 52.9H118.405L115.045 48.74V56.5H108.805V37.7H112.805L119.805 46.46ZM141.06 47.22L149.22 37.7H153.22V56.5H146.98V47.38L138.82 56.9H134.82V38.1H141.06V47.22ZM166.512 56.9C165.819 56.9 165.312 56.86 164.992 56.78V50.5C165.312 50.6067 165.646 50.66 165.992 50.66C166.526 50.66 166.912 50.4733 167.152 50.1C167.392 49.7 167.526 49.06 167.552 48.18L167.872 38.1H184.192V56.5H177.952V43.7H173.872L173.712 48.18C173.606 51.22 172.979 53.4333 171.832 54.82C170.686 56.2067 168.912 56.9 166.512 56.9ZM205.38 37.5C207.193 37.5 208.846 37.94 210.34 38.82C211.833 39.6733 213.006 40.8467 213.86 42.34C214.74 43.8333 215.18 45.4867 215.18 47.3C215.18 49.1133 214.74 50.7667 213.86 52.26C213.006 53.7533 211.833 54.94 210.34 55.82C208.846 56.6733 207.193 57.1 205.38 57.1C203.113 57.1 201.1 56.4333 199.34 55.1C197.606 53.7667 196.46 52.0333 195.9 49.9H194.42V56.5H188.18V38.1H194.42V44.3H196.02C196.633 42.2733 197.793 40.6333 199.5 39.38C201.233 38.1267 203.193 37.5 205.38 37.5ZM205.38 51.18C206.42 51.18 207.26 50.82 207.9 50.1C208.54 49.38 208.86 48.4467 208.86 47.3C208.86 46.1533 208.54 45.22 207.9 44.5C207.26 43.78 206.42 43.42 205.38 43.42C204.34 43.42 203.5 43.78 202.86 44.5C202.22 45.22 201.9 46.1533 201.9 47.3C201.9 48.4467 202.22 49.38 202.86 50.1C203.5 50.82 204.34 51.18 205.38 51.18ZM229.295 38.82C230.948 38.82 232.428 39.2067 233.735 39.98C235.068 40.7533 236.108 41.82 236.855 43.18C237.602 44.54 237.975 46.06 237.975 47.74C237.975 49.5267 237.548 51.14 236.695 52.58C235.842 53.9933 234.655 55.1 233.135 55.9C231.642 56.7 229.948 57.1 228.055 57.1C226.082 57.1 224.322 56.66 222.775 55.78C221.255 54.9 220.068 53.66 219.215 52.06C218.388 50.46 217.975 48.6067 217.975 46.5V44.3C217.975 39.6867 218.788 36.22 220.415 33.9C222.042 31.58 224.602 30.2467 228.095 29.9C229.642 29.74 230.802 29.5133 231.575 29.22C232.375 28.9267 233.095 28.46 233.735 27.82L236.575 32.3C235.988 33.26 235.122 33.9933 233.975 34.5C232.828 35.0067 231.322 35.3533 229.455 35.54C227.722 35.7 226.428 36.2067 225.575 37.06C224.748 37.8867 224.242 39.14 224.055 40.82C225.468 39.4867 227.215 38.82 229.295 38.82ZM227.975 51.18C229.068 51.18 229.948 50.8733 230.615 50.26C231.308 49.6467 231.655 48.8467 231.655 47.86C231.655 46.8467 231.308 46.0333 230.615 45.42C229.948 44.78 229.068 44.46 227.975 44.46C226.882 44.46 225.988 44.78 225.295 45.42C224.628 46.0333 224.295 46.8467 224.295 47.86C224.295 48.8467 224.628 49.6467 225.295 50.26C225.988 50.8733 226.882 51.18 227.975 51.18ZM248.806 48.98L252.006 38.1H258.406L247.886 66.5H241.566L245.126 56.94L238.406 38.1H245.046L248.806 48.98ZM277.411 37.5C279.224 37.5 280.878 37.94 282.371 38.82C283.864 39.6733 285.038 40.8467 285.891 42.34C286.771 43.8333 287.211 45.4867 287.211 47.3C287.211 49.1133 286.771 50.7667 285.891 52.26C285.038 53.7533 283.864 54.94 282.371 55.82C280.878 56.6733 279.224 57.1 277.411 57.1C275.144 57.1 273.131 56.4333 271.371 55.1C269.638 53.7667 268.491 52.0333 267.931 49.9H266.451V56.5H260.211V38.1H266.451V44.3H268.051C268.664 42.2733 269.824 40.6333 271.531 39.38C273.264 38.1267 275.224 37.5 277.411 37.5ZM277.411 51.18C278.451 51.18 279.291 50.82 279.931 50.1C280.571 49.38 280.891 48.4467 280.891 47.3C280.891 46.1533 280.571 45.22 279.931 44.5C279.291 43.78 278.451 43.42 277.411 43.42C276.371 43.42 275.531 43.78 274.891 44.5C274.251 45.22 273.931 46.1533 273.931 47.3C273.931 48.4467 274.251 49.38 274.891 50.1C275.531 50.82 276.371 51.18 277.411 51.18ZM309.974 44.3V38.1H316.214V56.5H309.974V49.9H304.654V56.5H298.414V38.1H304.654V44.3H309.974ZM329.491 57.1C327.624 57.1 325.918 56.6733 324.371 55.82C322.851 54.94 321.638 53.7533 320.731 52.26C319.851 50.7667 319.411 49.1133 319.411 47.3C319.411 45.4867 319.851 43.8333 320.731 42.34C321.638 40.8467 322.851 39.6733 324.371 38.82C325.918 37.94 327.624 37.5 329.491 37.5C331.358 37.5 333.051 37.94 334.571 38.82C336.118 39.6733 337.331 40.8467 338.211 42.34C339.118 43.8333 339.571 45.4867 339.571 47.3C339.571 49.1133 339.118 50.7667 338.211 52.26C337.331 53.7533 336.118 54.94 334.571 55.82C333.051 56.6733 331.358 57.1 329.491 57.1ZM329.491 51.18C330.584 51.18 331.464 50.8333 332.131 50.14C332.824 49.42 333.171 48.4733 333.171 47.3C333.171 46.1267 332.824 45.1933 332.131 44.5C331.464 43.78 330.584 43.42 329.491 43.42C328.398 43.42 327.504 43.78 326.811 44.5C326.144 45.1933 325.811 46.1267 325.811 47.3C325.811 48.4733 326.144 49.42 326.811 50.14C327.504 50.8333 328.398 51.18 329.491 51.18ZM352.128 56.5H345.888V43.7H340.808V38.1H357.208V43.7H352.128V56.5ZM368.416 48.98L371.616 38.1H378.016L367.496 66.5H361.176L364.736 56.94L358.016 38.1H364.656L368.416 48.98ZM394.068 47.22L402.228 37.7H406.228V56.5H399.988V47.38L391.828 56.9H387.828V38.1H394.068V47.22ZM428.4 57.1C426.533 57.1 424.813 56.6733 423.24 55.82C421.693 54.94 420.467 53.7533 419.56 52.26C418.653 50.74 418.2 49.0867 418.2 47.3C418.2 45.4867 418.64 43.8333 419.52 42.34C420.427 40.8467 421.667 39.6733 423.24 38.82C424.813 37.94 426.547 37.5 428.44 37.5C430.04 37.5 431.547 37.82 432.96 38.46C434.4 39.1 435.613 40.02 436.6 41.22L432.28 45.46C431.72 44.7133 431.133 44.18 430.52 43.86C429.907 43.5133 429.213 43.34 428.44 43.34C427.293 43.34 426.347 43.7 425.6 44.42C424.88 45.14 424.52 46.0867 424.52 47.26C424.52 48.46 424.88 49.4333 425.6 50.18C426.32 50.9 427.267 51.26 428.44 51.26C429.213 51.26 429.92 51.0867 430.56 50.74C431.227 50.3667 431.867 49.7933 432.48 49.02L436.8 53.34C435.813 54.5133 434.573 55.4333 433.08 56.1C431.613 56.7667 430.053 57.1 428.4 57.1ZM448.231 43.38C450.764 43.38 452.684 43.98 453.991 45.18C455.324 46.3533 455.991 47.94 455.991 49.94C455.991 51.9133 455.324 53.5 453.991 54.7C452.657 55.9 450.737 56.5 448.231 56.5H439.391V38.1H445.631V43.38H448.231ZM457.751 56.5V38.1H463.991V56.5H457.751ZM447.551 51.5C448.217 51.5 448.751 51.34 449.151 51.02C449.551 50.7 449.751 50.2733 449.751 49.74C449.751 49.2067 449.551 48.78 449.151 48.46C448.751 48.14 448.217 47.98 447.551 47.98H445.631V51.5H447.551ZM474.224 56.5H467.984V38.1H480.984V43.7H474.224V56.5ZM495.206 37.5C496.832 37.5 498.312 37.9267 499.646 38.78C500.979 39.6333 502.032 40.82 502.806 42.34C503.579 43.8333 503.966 45.4867 503.966 47.3C503.966 49.1133 503.579 50.78 502.806 52.3C502.032 53.7933 500.979 54.9667 499.646 55.82C498.312 56.6733 496.832 57.1 495.206 57.1C493.179 57.1 491.446 56.42 490.006 55.06V66.5H483.766V38.1H489.766V39.78C491.232 38.26 493.046 37.5 495.206 37.5ZM493.766 51.26C494.886 51.26 495.806 50.8867 496.526 50.14C497.272 49.3933 497.646 48.4467 497.646 47.3C497.646 46.1533 497.272 45.2067 496.526 44.46C495.806 43.7133 494.886 43.34 493.766 43.34C492.619 43.34 491.672 43.7133 490.926 44.46C490.206 45.2067 489.846 46.1533 489.846 47.3C489.846 48.4467 490.206 49.3933 490.926 50.14C491.672 50.8867 492.619 51.26 493.766 51.26ZM515.484 37.5C517.217 37.5 518.751 37.8733 520.084 38.62C521.444 39.34 522.497 40.3533 523.244 41.66C523.991 42.9667 524.364 44.4467 524.364 46.1V56.5H518.124V54.62C517.324 55.58 516.497 56.2333 515.644 56.58C514.791 56.9267 513.724 57.1 512.444 57.1C511.244 57.1 510.164 56.8467 509.204 56.34C508.244 55.8333 507.497 55.14 506.964 54.26C506.431 53.38 506.164 52.3933 506.164 51.3C506.164 50.1 506.484 49.0333 507.124 48.1C507.764 47.14 508.657 46.3933 509.804 45.86C510.951 45.3267 512.257 45.06 513.724 45.06C515.297 45.06 516.764 45.42 518.124 46.14V45.9C518.124 44.94 517.777 44.1667 517.084 43.58C516.417 42.9667 515.577 42.66 514.564 42.66C513.871 42.66 513.204 42.8333 512.564 43.18C511.924 43.5 511.377 43.9667 510.924 44.58L507.324 40.34C508.471 39.3533 509.684 38.6333 510.964 38.18C512.271 37.7267 513.777 37.5 515.484 37.5ZM514.844 52.74C515.724 52.74 516.471 52.4867 517.084 51.98C517.697 51.4467 518.044 50.78 518.124 49.98C517.031 49.34 515.951 49.02 514.884 49.02C514.111 49.02 513.497 49.1933 513.044 49.54C512.591 49.86 512.364 50.3133 512.364 50.9C512.364 51.46 512.577 51.9133 513.004 52.26C513.457 52.58 514.071 52.74 514.844 52.74ZM534.42 47.22L542.58 37.7H546.58V56.5H540.34V47.38L532.18 56.9H528.18V38.1H534.42V47.22ZM537.7 35.94C535.753 35.94 534.18 35.34 532.98 34.14C531.78 32.9133 531.18 31.3 531.18 29.3H535.9C535.9 30.0467 536.06 30.6333 536.38 31.06C536.7 31.4867 537.14 31.7 537.7 31.7C538.26 31.7 538.7 31.4867 539.02 31.06C539.34 30.6333 539.5 30.0467 539.5 29.3H544.22C544.22 31.3 543.62 32.9133 542.42 34.14C541.22 35.34 539.646 35.94 537.7 35.94ZM559.872 56.9C559.178 56.9 558.672 56.86 558.352 56.78V50.5C558.672 50.6067 559.005 50.66 559.352 50.66C559.885 50.66 560.272 50.4733 560.512 50.1C560.752 49.7 560.885 49.06 560.912 48.18L561.232 38.1H577.552V56.5H571.312V43.7H567.232L567.072 48.18C566.965 51.22 566.338 53.4333 565.192 54.82C564.045 56.2067 562.272 56.9 559.872 56.9ZM598.739 37.5C600.552 37.5 602.206 37.94 603.699 38.82C605.192 39.6733 606.366 40.8467 607.219 42.34C608.099 43.8333 608.539 45.4867 608.539 47.3C608.539 49.1133 608.099 50.7667 607.219 52.26C606.366 53.7533 605.192 54.94 603.699 55.82C602.206 56.6733 600.552 57.1 598.739 57.1C596.472 57.1 594.459 56.4333 592.699 55.1C590.966 53.7667 589.819 52.0333 589.259 49.9H587.779V56.5H581.539V38.1H587.779V44.3H589.379C589.992 42.2733 591.152 40.6333 592.859 39.38C594.592 38.1267 596.552 37.5 598.739 37.5ZM598.739 51.18C599.779 51.18 600.619 50.82 601.259 50.1C601.899 49.38 602.219 48.4467 602.219 47.3C602.219 46.1533 601.899 45.22 601.259 44.5C600.619 43.78 599.779 43.42 598.739 43.42C597.699 43.42 596.859 43.78 596.219 44.5C595.579 45.22 595.259 46.1533 595.259 47.3C595.259 48.4467 595.579 49.38 596.219 50.1C596.859 50.82 597.699 51.18 598.739 51.18ZM622.654 38.82C624.308 38.82 625.788 39.2067 627.094 39.98C628.428 40.7533 629.468 41.82 630.214 43.18C630.961 44.54 631.334 46.06 631.334 47.74C631.334 49.5267 630.908 51.14 630.054 52.58C629.201 53.9933 628.014 55.1 626.494 55.9C625.001 56.7 623.308 57.1 621.414 57.1C619.441 57.1 617.681 56.66 616.134 55.78C614.614 54.9 613.428 53.66 612.574 52.06C611.748 50.46 611.334 48.6067 611.334 46.5V44.3C611.334 39.6867 612.148 36.22 613.774 33.9C615.401 31.58 617.961 30.2467 621.454 29.9C623.001 29.74 624.161 29.5133 624.934 29.22C625.734 28.9267 626.454 28.46 627.094 27.82L629.934 32.3C629.348 33.26 628.481 33.9933 627.334 34.5C626.188 35.0067 624.681 35.3533 622.814 35.54C621.081 35.7 619.788 36.2067 618.934 37.06C618.108 37.8867 617.601 39.14 617.414 40.82C618.828 39.4867 620.574 38.82 622.654 38.82ZM621.334 51.18C622.428 51.18 623.308 50.8733 623.974 50.26C624.668 49.6467 625.014 48.8467 625.014 47.86C625.014 46.8467 624.668 46.0333 623.974 45.42C623.308 44.78 622.428 44.46 621.334 44.46C620.241 44.46 619.348 44.78 618.654 45.42C617.988 46.0333 617.654 46.8467 617.654 47.86C617.654 48.8467 617.988 49.6467 618.654 50.26C619.348 50.8733 620.241 51.18 621.334 51.18ZM640.787 47.22L648.947 37.7H652.947V56.5H646.707V47.38L638.547 56.9H634.547V38.1H640.787V47.22ZM667.93 46.46L674.93 37.7H678.93V56.5H672.69V48.74L669.33 52.9H666.53L663.17 48.74V56.5H656.93V37.7H660.93L667.93 46.46ZM691.345 48.98L694.545 38.1H700.945L690.425 66.5H684.105L687.665 56.94L680.945 38.1H687.585L691.345 48.98ZM719.95 37.5C721.763 37.5 723.417 37.94 724.91 38.82C726.403 39.6733 727.577 40.8467 728.43 42.34C729.31 43.8333 729.75 45.4867 729.75 47.3C729.75 49.1133 729.31 50.7667 728.43 52.26C727.577 53.7533 726.403 54.94 724.91 55.82C723.417 56.6733 721.763 57.1 719.95 57.1C717.683 57.1 715.67 56.4333 713.91 55.1C712.177 53.7667 711.03 52.0333 710.47 49.9H708.99V56.5H702.75V38.1H708.99V44.3H710.59C711.203 42.2733 712.363 40.6333 714.07 39.38C715.803 38.1267 717.763 37.5 719.95 37.5ZM719.95 51.18C720.99 51.18 721.83 50.82 722.47 50.1C723.11 49.38 723.43 48.4467 723.43 47.3C723.43 46.1533 723.11 45.22 722.47 44.5C721.83 43.78 720.99 43.42 719.95 43.42C718.91 43.42 718.07 43.78 717.43 44.5C716.79 45.22 716.47 46.1533 716.47 47.3C716.47 48.4467 716.79 49.38 717.43 50.1C718.07 50.82 718.91 51.18 719.95 51.18ZM751.953 46.46L758.953 37.7H762.953V56.5H756.713V48.74L753.353 52.9H750.553L747.193 48.74V56.5H740.953V37.7H744.953L751.953 46.46ZM785.369 46.26C785.369 47.3 785.302 48.26 785.169 49.14H772.729C773.049 50.0733 773.569 50.8067 774.289 51.34C775.009 51.8467 775.929 52.1 777.049 52.1C778.809 52.1 780.355 51.4467 781.689 50.14L784.689 53.7C783.595 54.7933 782.315 55.6333 780.849 56.22C779.409 56.8067 777.875 57.1 776.249 57.1C774.275 57.1 772.529 56.6867 771.009 55.86C769.489 55.0333 768.302 53.8867 767.449 52.42C766.595 50.9533 766.169 49.2733 766.169 47.38C766.169 45.5133 766.582 43.8333 767.409 42.34C768.262 40.82 769.422 39.6333 770.889 38.78C772.382 37.9267 774.062 37.5 775.929 37.5C777.689 37.5 779.289 37.8867 780.729 38.66C782.169 39.4333 783.302 40.4867 784.129 41.82C784.955 43.1533 785.369 44.6333 785.369 46.26ZM775.889 42.1C775.062 42.1 774.342 42.3533 773.729 42.86C773.142 43.3667 772.742 44.1267 772.529 45.14H779.009C778.875 44.2067 778.529 43.4733 777.969 42.94C777.435 42.38 776.742 42.1 775.889 42.1ZM788.309 56.9C787.616 56.9 787.109 56.86 786.789 56.78V50.5C787.109 50.6067 787.442 50.66 787.789 50.66C788.322 50.66 788.709 50.4733 788.949 50.1C789.189 49.7 789.322 49.06 789.349 48.18L789.669 38.1H805.989V56.5H799.749V43.7H795.669L795.509 48.18C795.402 51.22 794.776 53.4333 793.629 54.82C792.482 56.2067 790.709 56.9 788.309 56.9ZM819.257 57.1C817.39 57.1 815.683 56.6733 814.137 55.82C812.617 54.94 811.403 53.7533 810.497 52.26C809.617 50.7667 809.177 49.1133 809.177 47.3C809.177 45.4867 809.617 43.8333 810.497 42.34C811.403 40.8467 812.617 39.6733 814.137 38.82C815.683 37.94 817.39 37.5 819.257 37.5C821.123 37.5 822.817 37.94 824.337 38.82C825.883 39.6733 827.097 40.8467 827.977 42.34C828.883 43.8333 829.337 45.4867 829.337 47.3C829.337 49.1133 828.883 50.7667 827.977 52.26C827.097 53.7533 825.883 54.94 824.337 55.82C822.817 56.6733 821.123 57.1 819.257 57.1ZM819.257 51.18C820.35 51.18 821.23 50.8333 821.897 50.14C822.59 49.42 822.937 48.4733 822.937 47.3C822.937 46.1267 822.59 45.1933 821.897 44.5C821.23 43.78 820.35 43.42 819.257 43.42C818.163 43.42 817.27 43.78 816.577 44.5C815.91 45.1933 815.577 46.1267 815.577 47.3C815.577 48.4733 815.91 49.42 816.577 50.14C817.27 50.8333 818.163 51.18 819.257 51.18ZM849.973 51.1H852.773V61.7H846.773V56.5H836.373V61.7H830.373V51.1C831.387 51.1 832.2 50.5667 832.813 49.5C833.427 48.4333 833.733 47.0067 833.733 45.22V38.1H849.973V51.1ZM843.973 51.1V43.5H839.733V45.18C839.733 47.3933 839.24 49.3667 838.253 51.1H843.973ZM861.412 47.22L869.572 37.7H873.572V56.5H867.332V47.38L859.172 56.9H855.172V38.1H861.412V47.22ZM894.755 37.5C896.568 37.5 898.221 37.94 899.715 38.82C901.208 39.6733 902.381 40.8467 903.235 42.34C904.115 43.8333 904.555 45.4867 904.555 47.3C904.555 49.1133 904.115 50.7667 903.235 52.26C902.381 53.7533 901.208 54.94 899.715 55.82C898.221 56.6733 896.568 57.1 894.755 57.1C892.488 57.1 890.475 56.4333 888.715 55.1C886.981 53.7667 885.835 52.0333 885.275 49.9H883.795V56.5H877.555V38.1H883.795V44.3H885.395C886.008 42.2733 887.168 40.6333 888.875 39.38C890.608 38.1267 892.568 37.5 894.755 37.5ZM894.755 51.18C895.795 51.18 896.635 50.82 897.275 50.1C897.915 49.38 898.235 48.4467 898.235 47.3C898.235 46.1533 897.915 45.22 897.275 44.5C896.635 43.78 895.795 43.42 894.755 43.42C893.715 43.42 892.875 43.78 892.235 44.5C891.595 45.22 891.275 46.1533 891.275 47.3C891.275 48.4467 891.595 49.38 892.235 50.1C892.875 50.82 893.715 51.18 894.755 51.18ZM40.56 92.3V86.1H46.8V104.5H40.56V97.9H35.24V104.5H29V86.1H35.24V92.3H40.56ZM59.1169 85.5C60.8502 85.5 62.3835 85.8733 63.7169 86.62C65.0769 87.34 66.1302 88.3533 66.8769 89.66C67.6235 90.9667 67.9969 92.4467 67.9969 94.1V104.5H61.7569V102.62C60.9569 103.58 60.1302 104.233 59.2769 104.58C58.4235 104.927 57.3569 105.1 56.0769 105.1C54.8769 105.1 53.7969 104.847 52.8369 104.34C51.8769 103.833 51.1302 103.14 50.5969 102.26C50.0635 101.38 49.7969 100.393 49.7969 99.3C49.7969 98.1 50.1169 97.0333 50.7569 96.1C51.3969 95.14 52.2902 94.3933 53.4369 93.86C54.5835 93.3267 55.8902 93.06 57.3569 93.06C58.9302 93.06 60.3969 93.42 61.7569 94.14V93.9C61.7569 92.94 61.4102 92.1667 60.7169 91.58C60.0502 90.9667 59.2102 90.66 58.1969 90.66C57.5035 90.66 56.8369 90.8333 56.1969 91.18C55.5569 91.5 55.0102 91.9667 54.5569 92.58L50.9569 88.34C52.1035 87.3533 53.3169 86.6333 54.5969 86.18C55.9035 85.7267 57.4102 85.5 59.1169 85.5ZM58.4769 100.74C59.3569 100.74 60.1035 100.487 60.7169 99.98C61.3302 99.4467 61.6769 98.78 61.7569 97.98C60.6635 97.34 59.5835 97.02 58.5169 97.02C57.7435 97.02 57.1302 97.1933 56.6769 97.54C56.2235 97.86 55.9969 98.3133 55.9969 98.9C55.9969 99.46 56.2102 99.9133 56.6369 100.26C57.0902 100.58 57.7035 100.74 58.4769 100.74ZM98.8016 99.1H101.602V109.7H95.6016V104.5H85.2016V109.7H79.2016V99.1C80.2149 99.1 81.0282 98.5667 81.6416 97.5C82.2549 96.4333 82.5616 95.0067 82.5616 93.22V86.1H98.8016V99.1ZM92.8016 99.1V91.5H88.5616V93.18C88.5616 95.3933 88.0682 97.3667 87.0816 99.1H92.8016ZM110.24 95.22L118.4 85.7H122.4V104.5H116.16V95.38L108 104.9H104V86.1H110.24V95.22ZM135.783 105.1C133.916 105.1 132.196 104.673 130.623 103.82C129.076 102.94 127.849 101.753 126.943 100.26C126.036 98.74 125.583 97.0867 125.583 95.3C125.583 93.4867 126.023 91.8333 126.903 90.34C127.809 88.8467 129.049 87.6733 130.623 86.82C132.196 85.94 133.929 85.5 135.823 85.5C137.423 85.5 138.929 85.82 140.343 86.46C141.783 87.1 142.996 88.02 143.983 89.22L139.663 93.46C139.103 92.7133 138.516 92.18 137.903 91.86C137.289 91.5133 136.596 91.34 135.823 91.34C134.676 91.34 133.729 91.7 132.983 92.42C132.263 93.14 131.903 94.0867 131.903 95.26C131.903 96.46 132.263 97.4333 132.983 98.18C133.703 98.9 134.649 99.26 135.823 99.26C136.596 99.26 137.303 99.0867 137.943 98.74C138.609 98.3667 139.249 97.7933 139.863 97.02L144.183 101.34C143.196 102.513 141.956 103.433 140.463 104.1C138.996 104.767 137.436 105.1 135.783 105.1ZM159.253 95.06L165.773 104.5H158.573L153.013 95.9V104.5H146.773V86.1H153.013V94.66L158.453 86.1H165.293L159.253 95.06ZM175.428 105.1C173.562 105.1 171.855 104.673 170.308 103.82C168.788 102.94 167.575 101.753 166.668 100.26C165.788 98.7667 165.348 97.1133 165.348 95.3C165.348 93.4867 165.788 91.8333 166.668 90.34C167.575 88.8467 168.788 87.6733 170.308 86.82C171.855 85.94 173.562 85.5 175.428 85.5C177.295 85.5 178.988 85.94 180.508 86.82C182.055 87.6733 183.268 88.8467 184.148 90.34C185.055 91.8333 185.508 93.4867 185.508 95.3C185.508 97.1133 185.055 98.7667 184.148 100.26C183.268 101.753 182.055 102.94 180.508 103.82C178.988 104.673 177.295 105.1 175.428 105.1ZM175.428 99.18C176.522 99.18 177.402 98.8333 178.068 98.14C178.762 97.42 179.108 96.4733 179.108 95.3C179.108 94.1267 178.762 93.1933 178.068 92.5C177.402 91.78 176.522 91.42 175.428 91.42C174.335 91.42 173.442 91.78 172.748 92.5C172.082 93.1933 171.748 94.1267 171.748 95.3C171.748 96.4733 172.082 97.42 172.748 98.14C173.442 98.8333 174.335 99.18 175.428 99.18ZM198.065 104.5H191.825V91.7H186.745V86.1H203.145V91.7H198.065V104.5ZM223.572 94.26C223.572 95.3 223.505 96.26 223.372 97.14H210.932C211.252 98.0733 211.772 98.8067 212.492 99.34C213.212 99.8467 214.132 100.1 215.252 100.1C217.012 100.1 218.559 99.4467 219.892 98.14L222.892 101.7C221.799 102.793 220.519 103.633 219.052 104.22C217.612 104.807 216.079 105.1 214.452 105.1C212.479 105.1 210.732 104.687 209.212 103.86C207.692 103.033 206.505 101.887 205.652 100.42C204.799 98.9533 204.372 97.2733 204.372 95.38C204.372 93.5133 204.785 91.8333 205.612 90.34C206.465 88.82 207.625 87.6333 209.092 86.78C210.585 85.9267 212.265 85.5 214.132 85.5C215.892 85.5 217.492 85.8867 218.932 86.66C220.372 87.4333 221.505 88.4867 222.332 89.82C223.159 91.1533 223.572 92.6333 223.572 94.26ZM214.092 90.1C213.265 90.1 212.545 90.3533 211.932 90.86C211.345 91.3667 210.945 92.1267 210.732 93.14H217.212C217.079 92.2067 216.732 91.4733 216.172 90.94C215.639 90.38 214.945 90.1 214.092 90.1ZM239.253 95.06L245.773 104.5H238.573L233.013 95.9V104.5H226.773V86.1H233.013V94.66L238.453 86.1H245.293L239.253 95.06ZM264.548 94.26C264.548 95.3 264.482 96.26 264.348 97.14H251.908C252.228 98.0733 252.748 98.8067 253.468 99.34C254.188 99.8467 255.108 100.1 256.228 100.1C257.988 100.1 259.535 99.4467 260.868 98.14L263.868 101.7C262.775 102.793 261.495 103.633 260.028 104.22C258.588 104.807 257.055 105.1 255.428 105.1C253.455 105.1 251.708 104.687 250.188 103.86C248.668 103.033 247.482 101.887 246.628 100.42C245.775 98.9533 245.348 97.2733 245.348 95.38C245.348 93.5133 245.762 91.8333 246.588 90.34C247.442 88.82 248.602 87.6333 250.068 86.78C251.562 85.9267 253.242 85.5 255.108 85.5C256.868 85.5 258.468 85.8867 259.908 86.66C261.348 87.4333 262.482 88.4867 263.308 89.82C264.135 91.1533 264.548 92.6333 264.548 94.26ZM255.068 90.1C254.242 90.1 253.522 90.3533 252.908 90.86C252.322 91.3667 251.922 92.1267 251.708 93.14H258.188C258.055 92.2067 257.708 91.4733 257.148 90.94C256.615 90.38 255.922 90.1 255.068 90.1ZM290.078 95.06C292.131 95.9133 293.158 97.3267 293.158 99.3C293.158 100.873 292.478 102.14 291.118 103.1C289.784 104.033 287.984 104.5 285.718 104.5H275.758V86.1H285.118C287.278 86.1 289.024 86.5667 290.358 87.5C291.691 88.4333 292.358 89.6733 292.358 91.22C292.358 92.8467 291.598 94.1267 290.078 95.06ZM281.998 90.38V93.18H284.318C284.851 93.18 285.278 93.06 285.598 92.82C285.944 92.5533 286.118 92.2067 286.118 91.78C286.118 91.3533 285.944 91.02 285.598 90.78C285.278 90.5133 284.851 90.38 284.318 90.38H281.998ZM284.918 100.22C285.504 100.22 285.984 100.087 286.358 99.82C286.731 99.5533 286.918 99.1933 286.918 98.74C286.918 98.2867 286.731 97.9267 286.358 97.66C285.984 97.3933 285.504 97.26 284.918 97.26H281.998V100.22H284.918ZM320.773 91.18L330.493 77.7H335.533V104.5H328.733V89.82L322.133 99.1H319.333L312.733 89.86V104.5H305.933V77.7H311.053L320.773 91.18ZM349.168 91.38C351.701 91.38 353.621 91.98 354.928 93.18C356.261 94.3533 356.928 95.94 356.928 97.94C356.928 99.9133 356.261 101.5 354.928 102.7C353.595 103.9 351.675 104.5 349.168 104.5H340.328V86.1H346.568V91.38H349.168ZM358.688 104.5V86.1H364.928V104.5H358.688ZM348.488 99.5C349.155 99.5 349.688 99.34 350.088 99.02C350.488 98.7 350.688 98.2733 350.688 97.74C350.688 97.2067 350.488 96.78 350.088 96.46C349.688 96.14 349.155 95.98 348.488 95.98H346.568V99.5H348.488ZM397.322 104.5H368.922V86.1H375.162V98.9H380.002V86.1H386.242V98.9H391.082V86.1H397.322V104.5ZM413.785 95.06L420.305 104.5H413.105L407.545 95.9V104.5H401.305V86.1H407.545V94.66L412.985 86.1H419.825L413.785 95.06ZM428.131 95.22L436.291 85.7H440.291V104.5H434.051V95.38L425.891 104.9H421.891V86.1H428.131V95.22ZM455.833 92.3V86.1H462.073V104.5H455.833V97.9H450.513V104.5H444.273V86.1H450.513V92.3H455.833ZM484.47 94.26C484.47 95.3 484.404 96.26 484.27 97.14H471.83C472.15 98.0733 472.67 98.8067 473.39 99.34C474.11 99.8467 475.03 100.1 476.15 100.1C477.91 100.1 479.457 99.4467 480.79 98.14L483.79 101.7C482.697 102.793 481.417 103.633 479.95 104.22C478.51 104.807 476.977 105.1 475.35 105.1C473.377 105.1 471.63 104.687 470.11 103.86C468.59 103.033 467.404 101.887 466.55 100.42C465.697 98.9533 465.27 97.2733 465.27 95.38C465.27 93.5133 465.684 91.8333 466.51 90.34C467.364 88.82 468.524 87.6333 469.99 86.78C471.484 85.9267 473.164 85.5 475.03 85.5C476.79 85.5 478.39 85.8867 479.83 86.66C481.27 87.4333 482.404 88.4867 483.23 89.82C484.057 91.1533 484.47 92.6333 484.47 94.26ZM474.99 90.1C474.164 90.1 473.444 90.3533 472.83 90.86C472.244 91.3667 471.844 92.1267 471.63 93.14H478.11C477.977 92.2067 477.63 91.4733 477.07 90.94C476.537 90.38 475.844 90.1 474.99 90.1ZM490.691 104.9C489.704 104.9 488.851 104.553 488.131 103.86C487.437 103.14 487.091 102.287 487.091 101.3C487.091 100.287 487.437 99.4333 488.131 98.74C488.851 98.0467 489.704 97.7 490.691 97.7C491.704 97.7 492.557 98.0467 493.251 98.74C493.944 99.4333 494.291 100.287 494.291 101.3C494.291 102.287 493.944 103.14 493.251 103.86C492.557 104.553 491.704 104.9 490.691 104.9Z" fill="#FFF200"/>
</svg>
