<svg width="93" height="133" viewBox="0 0 93 133" fill="none" xmlns="http://www.w3.org/2000/svg">
<rect x="9.54248" width="73.9153" height="98" fill="#213A1A"/>
<rect x="9.54248" width="73.9153" height="24.9153" fill="#3B6334"/>
<path d="M7.41 126.39C6.19667 126.39 5.07867 126.113 4.056 125.558C3.05067 124.986 2.25333 124.215 1.664 123.244C1.07467 122.256 0.78 121.181 0.78 120.02C0.78 118.841 1.066 117.767 1.638 116.796C2.22733 115.825 3.03333 115.063 4.056 114.508C5.07867 113.936 6.20533 113.65 7.436 113.65C8.476 113.65 9.45533 113.858 10.374 114.274C11.31 114.69 12.0987 115.288 12.74 116.068L9.932 118.824C9.568 118.339 9.18667 117.992 8.788 117.784C8.38933 117.559 7.93867 117.446 7.436 117.446C6.69067 117.446 6.07533 117.68 5.59 118.148C5.122 118.616 4.888 119.231 4.888 119.994C4.888 120.774 5.122 121.407 5.59 121.892C6.058 122.36 6.67333 122.594 7.436 122.594C7.93867 122.594 8.398 122.481 8.814 122.256C9.24733 122.013 9.66333 121.641 10.062 121.138L12.87 123.946C12.2287 124.709 11.4227 125.307 10.452 125.74C9.49867 126.173 8.48467 126.39 7.41 126.39ZM18.6099 126H14.5539V114.04H25.9939V126H21.9379V117.68H18.6099V126ZM40.5549 119.344C40.5549 120.02 40.5116 120.644 40.4249 121.216H32.3389C32.5469 121.823 32.8849 122.299 33.3529 122.646C33.8209 122.975 34.4189 123.14 35.1469 123.14C36.2909 123.14 37.2963 122.715 38.1629 121.866L40.1129 124.18C39.4023 124.891 38.5703 125.437 37.6169 125.818C36.6809 126.199 35.6843 126.39 34.6269 126.39C33.3443 126.39 32.2089 126.121 31.2209 125.584C30.2329 125.047 29.4616 124.301 28.9069 123.348C28.3523 122.395 28.0749 121.303 28.0749 120.072C28.0749 118.859 28.3436 117.767 28.8809 116.796C29.4356 115.808 30.1896 115.037 31.1429 114.482C32.1136 113.927 33.2056 113.65 34.4189 113.65C35.5629 113.65 36.6029 113.901 37.5389 114.404C38.4749 114.907 39.2116 115.591 39.7489 116.458C40.2863 117.325 40.5549 118.287 40.5549 119.344ZM34.3929 116.64C33.8556 116.64 33.3876 116.805 32.9889 117.134C32.6076 117.463 32.3476 117.957 32.2089 118.616H36.4209C36.3343 118.009 36.1089 117.533 35.7449 117.186C35.3983 116.822 34.9476 116.64 34.3929 116.64ZM55.7659 129.38H51.8659V126H42.6359V114.04H46.6919V122.36H49.8899V114.04H53.9459V122.36H55.7659V129.38ZM61.3931 119.968L66.6971 113.78H69.2971V126H65.2411V120.072L59.9371 126.26H57.3371V114.04H61.3931V119.968ZM75.9419 119.968L81.2459 113.78H83.8459V126H79.7899V120.072L74.4859 126.26H71.8859V114.04H75.9419V119.968Z" fill="#150E2E"/>
</svg>
