<svg width="1183" height="660" viewBox="0 0 1183 660" fill="none" xmlns="http://www.w3.org/2000/svg">
<rect width="1182.38" height="659.538" rx="110.65" fill="#150E2E"/>
<path d="M114.12 328.4H110.4V301.6H130.88V328.4H127.16V305.08H114.12V328.4ZM145.426 328.84C143.692 328.84 142.092 328.414 140.626 327.56C139.159 326.707 137.999 325.547 137.146 324.08C136.292 322.587 135.866 320.96 135.866 319.2C135.866 317.44 136.292 315.827 137.146 314.36C137.999 312.867 139.159 311.694 140.626 310.84C142.092 309.987 143.692 309.56 145.426 309.56C147.159 309.56 148.759 309.987 150.226 310.84C151.692 311.694 152.852 312.867 153.706 314.36C154.559 315.827 154.986 317.44 154.986 319.2C154.986 320.96 154.559 322.587 153.706 324.08C152.852 325.547 151.692 326.707 150.226 327.56C148.759 328.414 147.159 328.84 145.426 328.84ZM145.426 325.6C147.159 325.6 148.586 325 149.706 323.8C150.852 322.6 151.426 321.067 151.426 319.2C151.426 317.334 150.852 315.8 149.706 314.6C148.586 313.4 147.159 312.8 145.426 312.8C143.692 312.8 142.252 313.4 141.106 314.6C139.986 315.8 139.426 317.334 139.426 319.2C139.426 321.067 139.986 322.6 141.106 323.8C142.252 325 143.692 325.6 145.426 325.6ZM168.93 320.04L177.33 309.6H178.57V328.4H175.13V317.2L169.41 324.32H168.33L162.61 317.28V328.4H159.17V309.6H160.45L168.93 320.04ZM192.34 328.84C190.606 328.84 189.006 328.414 187.54 327.56C186.073 326.707 184.913 325.547 184.06 324.08C183.206 322.587 182.78 320.96 182.78 319.2C182.78 317.44 183.206 315.827 184.06 314.36C184.913 312.867 186.073 311.694 187.54 310.84C189.006 309.987 190.606 309.56 192.34 309.56C194.073 309.56 195.673 309.987 197.14 310.84C198.606 311.694 199.766 312.867 200.62 314.36C201.473 315.827 201.9 317.44 201.9 319.2C201.9 320.96 201.473 322.587 200.62 324.08C199.766 325.547 198.606 326.707 197.14 327.56C195.673 328.414 194.073 328.84 192.34 328.84ZM192.34 325.6C194.073 325.6 195.5 325 196.62 323.8C197.766 322.6 198.34 321.067 198.34 319.2C198.34 317.334 197.766 315.8 196.62 314.6C195.5 313.4 194.073 312.8 192.34 312.8C190.606 312.8 189.166 313.4 188.02 314.6C186.9 315.8 186.34 317.334 186.34 319.2C186.34 321.067 186.9 322.6 188.02 323.8C189.166 325 190.606 325.6 192.34 325.6ZM209.524 328.4H206.084V310H217.404V313.12H209.524V328.4ZM224.563 321.88L235.643 309.6H236.883V328.4H233.443V316.48L222.403 328.8H221.123V310H224.563V321.88ZM249.66 328.4H246.22V313.12H240.62V310H255.26V313.12H249.66V328.4ZM274.844 318.56C274.844 319.04 274.804 319.587 274.724 320.2H260.364C260.577 321.854 261.231 323.174 262.324 324.16C263.444 325.12 264.857 325.6 266.564 325.6C268.884 325.6 270.777 324.707 272.244 322.92L274.404 324.96C273.444 326.214 272.257 327.174 270.844 327.84C269.457 328.507 267.964 328.84 266.364 328.84C264.524 328.84 262.871 328.427 261.404 327.6C259.937 326.774 258.791 325.627 257.964 324.16C257.164 322.694 256.764 321.04 256.764 319.2C256.764 317.387 257.164 315.747 257.964 314.28C258.764 312.814 259.857 311.667 261.244 310.84C262.657 309.987 264.244 309.56 266.004 309.56C267.684 309.56 269.191 309.947 270.524 310.72C271.857 311.467 272.911 312.534 273.684 313.92C274.457 315.28 274.844 316.827 274.844 318.56ZM265.884 312.56C264.417 312.56 263.204 312.987 262.244 313.84C261.311 314.694 260.711 315.867 260.444 317.36H271.204C271.017 315.92 270.457 314.76 269.524 313.88C268.591 313 267.377 312.56 265.884 312.56ZM302.583 319L310.263 328.4H305.943L298.983 319.68V328.4H295.583V319.68L288.623 328.4H284.303L291.983 319L284.823 310H288.743L295.583 318.68V310H298.983V318.68L305.823 310H309.743L302.583 319ZM316.204 321.88L327.284 309.6H328.524V328.4H325.084V316.48L314.044 328.8H312.764V310H316.204V321.88ZM341.301 328.4H337.861V313.12H332.261V310H346.901V313.12H341.301V328.4ZM366.485 318.56C366.485 319.04 366.445 319.587 366.365 320.2H352.005C352.218 321.854 352.871 323.174 353.965 324.16C355.085 325.12 356.498 325.6 358.205 325.6C360.525 325.6 362.418 324.707 363.885 322.92L366.045 324.96C365.085 326.214 363.898 327.174 362.485 327.84C361.098 328.507 359.605 328.84 358.005 328.84C356.165 328.84 354.511 328.427 353.045 327.6C351.578 326.774 350.431 325.627 349.605 324.16C348.805 322.694 348.405 321.04 348.405 319.2C348.405 317.387 348.805 315.747 349.605 314.28C350.405 312.814 351.498 311.667 352.885 310.84C354.298 309.987 355.885 309.56 357.645 309.56C359.325 309.56 360.831 309.947 362.165 310.72C363.498 311.467 364.551 312.534 365.325 313.92C366.098 315.28 366.485 316.827 366.485 318.56ZM357.525 312.56C356.058 312.56 354.845 312.987 353.885 313.84C352.951 314.694 352.351 315.867 352.085 317.36H362.845C362.658 315.92 362.098 314.76 361.165 313.88C360.231 313 359.018 312.56 357.525 312.56ZM369.514 328.64C368.981 328.64 368.554 328.6 368.234 328.52V325.08C368.608 325.187 368.954 325.24 369.274 325.24C369.994 325.24 370.514 324.96 370.834 324.4C371.181 323.814 371.368 322.854 371.394 321.52L371.594 310H385.074V328.4H381.634V313.12H374.994L374.834 321.48C374.808 323.934 374.354 325.747 373.474 326.92C372.594 328.067 371.274 328.64 369.514 328.64ZM403.824 310V328.4H400.384V321.96H397.304L393.224 328.4H389.184L393.664 321.48C392.437 321.027 391.477 320.307 390.784 319.32C390.091 318.334 389.744 317.214 389.744 315.96C389.744 314.2 390.371 312.774 391.624 311.68C392.904 310.56 394.584 310 396.664 310H403.824ZM400.384 318.92V313.04H396.744C395.651 313.04 394.784 313.307 394.144 313.84C393.504 314.374 393.184 315.094 393.184 316C393.184 316.88 393.504 317.587 394.144 318.12C394.811 318.654 395.677 318.92 396.744 318.92H400.384ZM418.774 320.04L427.174 309.6H428.414V328.4H424.974V317.2L419.254 324.32H418.174L412.454 317.28V328.4H409.014V309.6H410.294L418.774 320.04ZM450.973 328.84C449.213 328.84 447.599 328.414 446.133 327.56C444.666 326.707 443.506 325.547 442.653 324.08C441.826 322.614 441.413 321 441.413 319.24C441.413 317.48 441.839 315.867 442.693 314.4C443.546 312.907 444.706 311.734 446.173 310.88C447.639 310 449.239 309.56 450.973 309.56C452.493 309.56 453.919 309.894 455.253 310.56C456.613 311.227 457.746 312.16 458.653 313.36L456.213 315.52C455.546 314.64 454.759 313.974 453.853 313.52C452.973 313.04 452.013 312.8 450.973 312.8C449.826 312.8 448.799 313.08 447.893 313.64C446.986 314.174 446.266 314.934 445.733 315.92C445.226 316.88 444.973 317.96 444.973 319.16C444.973 321.027 445.546 322.574 446.693 323.8C447.839 325 449.306 325.6 451.093 325.6C453.253 325.6 455.039 324.694 456.453 322.88L458.773 324.96C457.866 326.16 456.733 327.107 455.373 327.8C454.013 328.494 452.546 328.84 450.973 328.84ZM474.798 321.88L485.878 309.6H487.118V328.4H483.678V316.48L472.638 328.8H471.358V310H474.798V321.88ZM500.574 318.92L506.614 328.4H502.574L498.374 321.64L494.174 328.4H490.334L496.334 319.08L490.494 310H494.574L498.574 316.44L502.574 310H506.414L500.574 318.92ZM528.304 309.56C529.931 309.56 531.411 309.987 532.744 310.84C534.104 311.694 535.171 312.867 535.944 314.36C536.744 315.827 537.144 317.44 537.144 319.2C537.144 320.96 536.744 322.587 535.944 324.08C535.171 325.547 534.091 326.707 532.704 327.56C531.344 328.414 529.851 328.84 528.224 328.84C526.998 328.84 525.838 328.587 524.744 328.08C523.678 327.574 522.771 326.867 522.024 325.96V338.4H518.584V310H521.944V312.76C522.664 311.774 523.571 311 524.664 310.44C525.784 309.854 526.998 309.56 528.304 309.56ZM527.664 325.68C528.784 325.68 529.798 325.4 530.704 324.84C531.611 324.28 532.318 323.507 532.824 322.52C533.358 321.534 533.624 320.427 533.624 319.2C533.624 317.974 533.358 316.867 532.824 315.88C532.318 314.894 531.611 314.12 530.704 313.56C529.798 313 528.784 312.72 527.664 312.72C526.544 312.72 525.531 313 524.624 313.56C523.718 314.12 522.998 314.907 522.464 315.92C521.958 316.907 521.704 318 521.704 319.2C521.704 320.427 521.958 321.534 522.464 322.52C522.998 323.507 523.718 324.28 524.624 324.84C525.531 325.4 526.544 325.68 527.664 325.68ZM548.117 309.56C549.61 309.56 550.944 309.894 552.117 310.56C553.317 311.227 554.237 312.147 554.877 313.32C555.544 314.494 555.877 315.814 555.877 317.28V328.4H552.437V325.92C550.97 327.867 548.93 328.84 546.317 328.84C544.557 328.84 543.077 328.307 541.877 327.24C540.704 326.147 540.117 324.76 540.117 323.08C540.117 321.934 540.424 320.907 541.037 320C541.65 319.067 542.504 318.347 543.597 317.84C544.69 317.307 545.917 317.04 547.277 317.04C549.144 317.04 550.864 317.494 552.437 318.4V317.44C552.437 316.027 552.01 314.88 551.157 314C550.33 313.12 549.25 312.68 547.917 312.68C546.157 312.68 544.717 313.44 543.597 314.96L541.277 312.68C543.117 310.6 545.397 309.56 548.117 309.56ZM547.197 325.92C548.797 325.92 550.05 325.48 550.957 324.6C551.864 323.694 552.357 322.627 552.437 321.4C551.69 320.84 550.917 320.427 550.117 320.16C549.317 319.894 548.437 319.76 547.477 319.76C546.277 319.76 545.317 320.054 544.597 320.64C543.877 321.2 543.517 321.947 543.517 322.88C543.517 323.814 543.85 324.56 544.517 325.12C545.184 325.654 546.077 325.92 547.197 325.92ZM569.978 310.44C571.578 310.44 573.032 310.84 574.338 311.64C575.645 312.44 576.672 313.534 577.418 314.92C578.192 316.307 578.578 317.84 578.578 319.52C578.578 321.254 578.165 322.84 577.338 324.28C576.512 325.694 575.378 326.814 573.938 327.64C572.498 328.44 570.898 328.84 569.138 328.84C567.298 328.84 565.672 328.387 564.258 327.48C562.872 326.547 561.792 325.24 561.018 323.56C560.272 321.88 559.898 319.934 559.898 317.72V315.36C559.898 311.04 560.632 307.787 562.098 305.6C563.592 303.414 565.938 302.16 569.138 301.84C570.925 301.654 572.245 301.4 573.098 301.08C573.978 300.76 574.712 300.307 575.298 299.72L577.098 302.52C576.405 303.24 575.565 303.8 574.578 304.2C573.592 304.574 572.072 304.867 570.018 305.08C567.672 305.32 565.992 306.147 564.978 307.56C563.965 308.947 563.445 311.094 563.418 314C564.138 312.88 565.058 312.014 566.178 311.4C567.325 310.76 568.592 310.44 569.978 310.44ZM569.338 325.6C570.992 325.6 572.352 325.04 573.418 323.92C574.512 322.774 575.058 321.347 575.058 319.64C575.058 317.934 574.512 316.52 573.418 315.4C572.352 314.254 570.992 313.68 569.338 313.68C567.685 313.68 566.312 314.24 565.218 315.36C564.152 316.48 563.618 317.907 563.618 319.64C563.618 321.374 564.152 322.8 565.218 323.92C566.312 325.04 567.685 325.6 569.338 325.6ZM591.324 328.84C589.591 328.84 587.991 328.414 586.524 327.56C585.057 326.707 583.897 325.547 583.044 324.08C582.191 322.587 581.764 320.96 581.764 319.2C581.764 317.44 582.191 315.827 583.044 314.36C583.897 312.867 585.057 311.694 586.524 310.84C587.991 309.987 589.591 309.56 591.324 309.56C593.057 309.56 594.657 309.987 596.124 310.84C597.591 311.694 598.751 312.867 599.604 314.36C600.457 315.827 600.884 317.44 600.884 319.2C600.884 320.96 600.457 322.587 599.604 324.08C598.751 325.547 597.591 326.707 596.124 327.56C594.657 328.414 593.057 328.84 591.324 328.84ZM591.324 325.6C593.057 325.6 594.484 325 595.604 323.8C596.751 322.6 597.324 321.067 597.324 319.2C597.324 317.334 596.751 315.8 595.604 314.6C594.484 313.4 593.057 312.8 591.324 312.8C589.591 312.8 588.151 313.4 587.004 314.6C585.884 315.8 585.324 317.334 585.324 319.2C585.324 321.067 585.884 322.6 587.004 323.8C588.151 325 589.591 325.6 591.324 325.6ZM611.418 328.4H607.978V313.12H602.378V310H617.018V313.12H611.418V328.4ZM628.082 328.84C626.349 328.84 624.749 328.414 623.282 327.56C621.815 326.707 620.655 325.547 619.802 324.08C618.949 322.587 618.522 320.96 618.522 319.2C618.522 317.44 618.949 315.827 619.802 314.36C620.655 312.867 621.815 311.694 623.282 310.84C624.749 309.987 626.349 309.56 628.082 309.56C629.815 309.56 631.415 309.987 632.882 310.84C634.349 311.694 635.509 312.867 636.362 314.36C637.215 315.827 637.642 317.44 637.642 319.2C637.642 320.96 637.215 322.587 636.362 324.08C635.509 325.547 634.349 326.707 632.882 327.56C631.415 328.414 629.815 328.84 628.082 328.84ZM628.082 325.6C629.815 325.6 631.242 325 632.362 323.8C633.509 322.6 634.082 321.067 634.082 319.2C634.082 317.334 633.509 315.8 632.362 314.6C631.242 313.4 629.815 312.8 628.082 312.8C626.349 312.8 624.909 313.4 623.762 314.6C622.642 315.8 622.082 317.334 622.082 319.2C622.082 321.067 622.642 322.6 623.762 323.8C624.909 325 626.349 325.6 628.082 325.6ZM645.267 321.88L656.347 309.6H657.587V328.4H654.147V316.48L643.107 328.8H641.827V310H645.267V321.88ZM650.027 307.6C648.48 307.6 647.227 307.107 646.267 306.12C645.333 305.107 644.867 303.76 644.867 302.08H647.827C647.827 302.96 648.027 303.667 648.427 304.2C648.853 304.734 649.387 305 650.027 305C650.693 305 651.227 304.734 651.627 304.2C652.053 303.667 652.267 302.96 652.267 302.08H655.227C655.227 303.76 654.747 305.107 653.787 306.12C652.853 307.107 651.6 307.6 650.027 307.6ZM675.032 321.88L686.112 309.6H687.352V328.4H683.912V316.48L672.872 328.8H671.592V310H675.032V321.88ZM710.838 310.44C712.438 310.44 713.891 310.84 715.198 311.64C716.504 312.44 717.531 313.534 718.278 314.92C719.051 316.307 719.438 317.84 719.438 319.52C719.438 321.254 719.024 322.84 718.198 324.28C717.371 325.694 716.238 326.814 714.798 327.64C713.358 328.44 711.758 328.84 709.998 328.84C708.158 328.84 706.531 328.387 705.118 327.48C703.731 326.547 702.651 325.24 701.878 323.56C701.131 321.88 700.758 319.934 700.758 317.72V315.36C700.758 311.04 701.491 307.787 702.958 305.6C704.451 303.414 706.798 302.16 709.998 301.84C711.784 301.654 713.104 301.4 713.958 301.08C714.838 300.76 715.571 300.307 716.158 299.72L717.958 302.52C717.264 303.24 716.424 303.8 715.438 304.2C714.451 304.574 712.931 304.867 710.878 305.08C708.531 305.32 706.851 306.147 705.838 307.56C704.824 308.947 704.304 311.094 704.278 314C704.998 312.88 705.918 312.014 707.038 311.4C708.184 310.76 709.451 310.44 710.838 310.44ZM710.198 325.6C711.851 325.6 713.211 325.04 714.278 323.92C715.371 322.774 715.918 321.347 715.918 319.64C715.918 317.934 715.371 316.52 714.278 315.4C713.211 314.254 711.851 313.68 710.198 313.68C708.544 313.68 707.171 314.24 706.078 315.36C705.011 316.48 704.478 317.907 704.478 319.64C704.478 321.374 705.011 322.8 706.078 323.92C707.171 325.04 708.544 325.6 710.198 325.6ZM730.103 316.24C732.157 316.24 733.81 316.814 735.063 317.96C736.343 319.08 736.983 320.534 736.983 322.32C736.983 324.107 736.357 325.574 735.103 326.72C733.85 327.84 732.21 328.4 730.183 328.4H723.623V310H727.063V316.24H730.103ZM739.583 328.4V310H743.023V328.4H739.583ZM730.103 325.36C731.117 325.36 731.943 325.08 732.583 324.52C733.223 323.96 733.543 323.227 733.543 322.32C733.543 321.414 733.223 320.68 732.583 320.12C731.943 319.56 731.117 319.28 730.103 319.28H727.063V325.36H730.103ZM755.793 328.4H752.353V313.12H746.753V310H761.393V313.12H755.793V328.4ZM772.457 328.84C770.724 328.84 769.124 328.414 767.657 327.56C766.19 326.707 765.03 325.547 764.177 324.08C763.324 322.587 762.897 320.96 762.897 319.2C762.897 317.44 763.324 315.827 764.177 314.36C765.03 312.867 766.19 311.694 767.657 310.84C769.124 309.987 770.724 309.56 772.457 309.56C774.19 309.56 775.79 309.987 777.257 310.84C778.724 311.694 779.884 312.867 780.737 314.36C781.59 315.827 782.017 317.44 782.017 319.2C782.017 320.96 781.59 322.587 780.737 324.08C779.884 325.547 778.724 326.707 777.257 327.56C775.79 328.414 774.19 328.84 772.457 328.84ZM772.457 325.6C774.19 325.6 775.617 325 776.737 323.8C777.884 322.6 778.457 321.067 778.457 319.2C778.457 317.334 777.884 315.8 776.737 314.6C775.617 313.4 774.19 312.8 772.457 312.8C770.724 312.8 769.284 313.4 768.137 314.6C767.017 315.8 766.457 317.334 766.457 319.2C766.457 321.067 767.017 322.6 768.137 323.8C769.284 325 770.724 325.6 772.457 325.6ZM795.962 320.04L804.362 309.6H805.602V328.4H802.162V317.2L796.442 324.32H795.362L789.642 317.28V328.4H786.202V309.6H787.482L795.962 320.04ZM113.04 369.88L124.12 357.6H125.36V376.4H121.92V364.48L110.88 376.8H109.6V358H113.04V369.88ZM150.726 366.8C151.659 367.2 152.379 367.787 152.886 368.56C153.419 369.307 153.686 370.174 153.686 371.16C153.686 372.68 153.072 373.934 151.846 374.92C150.619 375.907 149.059 376.4 147.166 376.4H139.366V358H146.406C148.299 358 149.846 358.48 151.046 359.44C152.272 360.374 152.886 361.574 152.886 363.04C152.886 363.84 152.699 364.56 152.326 365.2C151.952 365.84 151.419 366.374 150.726 366.8ZM142.806 360.92V365.6H146.366C147.299 365.6 148.046 365.387 148.606 364.96C149.192 364.507 149.486 363.92 149.486 363.2C149.486 362.507 149.192 361.96 148.606 361.56C148.046 361.134 147.299 360.92 146.366 360.92H142.806ZM147.086 373.48C148.046 373.48 148.819 373.254 149.406 372.8C149.992 372.32 150.286 371.694 150.286 370.92C150.286 370.174 149.992 369.574 149.406 369.12C148.819 368.64 148.046 368.4 147.086 368.4H142.806V373.48H147.086ZM164.478 364.24C166.532 364.24 168.185 364.814 169.438 365.96C170.718 367.08 171.358 368.534 171.358 370.32C171.358 372.107 170.732 373.574 169.478 374.72C168.225 375.84 166.585 376.4 164.558 376.4H157.998V358H161.438V364.24H164.478ZM173.958 376.4V358H177.398V376.4H173.958ZM164.478 373.36C165.492 373.36 166.318 373.08 166.958 372.52C167.598 371.96 167.918 371.227 167.918 370.32C167.918 369.414 167.598 368.68 166.958 368.12C166.318 367.56 165.492 367.28 164.478 367.28H161.438V373.36H164.478ZM186.048 369.88L197.128 357.6H198.368V376.4H194.928V364.48L183.888 376.8H182.608V358H186.048V369.88ZM207.024 376.4H203.584V358H214.904V361.12H207.024V376.4ZM228.343 357.56C229.97 357.56 231.45 357.987 232.783 358.84C234.143 359.694 235.21 360.867 235.983 362.36C236.783 363.827 237.183 365.44 237.183 367.2C237.183 368.96 236.783 370.587 235.983 372.08C235.21 373.547 234.13 374.707 232.743 375.56C231.383 376.414 229.89 376.84 228.263 376.84C227.037 376.84 225.877 376.587 224.783 376.08C223.717 375.574 222.81 374.867 222.063 373.96V386.4H218.623V358H221.983V360.76C222.703 359.774 223.61 359 224.703 358.44C225.823 357.854 227.037 357.56 228.343 357.56ZM227.703 373.68C228.823 373.68 229.837 373.4 230.743 372.84C231.65 372.28 232.357 371.507 232.863 370.52C233.397 369.534 233.663 368.427 233.663 367.2C233.663 365.974 233.397 364.867 232.863 363.88C232.357 362.894 231.65 362.12 230.743 361.56C229.837 361 228.823 360.72 227.703 360.72C226.583 360.72 225.57 361 224.663 361.56C223.757 362.12 223.037 362.907 222.503 363.92C221.997 364.907 221.743 366 221.743 367.2C221.743 368.427 221.997 369.534 222.503 370.52C223.037 371.507 223.757 372.28 224.663 372.84C225.57 373.4 226.583 373.68 227.703 373.68ZM248.156 357.56C249.649 357.56 250.983 357.894 252.156 358.56C253.356 359.227 254.276 360.147 254.916 361.32C255.583 362.494 255.916 363.814 255.916 365.28V376.4H252.476V373.92C251.009 375.867 248.969 376.84 246.356 376.84C244.596 376.84 243.116 376.307 241.916 375.24C240.743 374.147 240.156 372.76 240.156 371.08C240.156 369.934 240.463 368.907 241.076 368C241.689 367.067 242.543 366.347 243.636 365.84C244.729 365.307 245.956 365.04 247.316 365.04C249.183 365.04 250.903 365.494 252.476 366.4V365.44C252.476 364.027 252.049 362.88 251.196 362C250.369 361.12 249.289 360.68 247.956 360.68C246.196 360.68 244.756 361.44 243.636 362.96L241.316 360.68C243.156 358.6 245.436 357.56 248.156 357.56ZM247.236 373.92C248.836 373.92 250.089 373.48 250.996 372.6C251.903 371.694 252.396 370.627 252.476 369.4C251.729 368.84 250.956 368.427 250.156 368.16C249.356 367.894 248.476 367.76 247.516 367.76C246.316 367.76 245.356 368.054 244.636 368.64C243.916 369.2 243.556 369.947 243.556 370.88C243.556 371.814 243.889 372.56 244.556 373.12C245.223 373.654 246.116 373.92 247.236 373.92ZM264.368 369.88L275.448 357.6H276.688V376.4H273.248V364.48L262.208 376.8H260.928V358H264.368V369.88ZM269.128 355.6C267.581 355.6 266.328 355.107 265.368 354.12C264.435 353.107 263.968 351.76 263.968 350.08H266.928C266.928 350.96 267.128 351.667 267.528 352.2C267.955 352.734 268.488 353 269.128 353C269.795 353 270.328 352.734 270.728 352.2C271.155 351.667 271.368 350.96 271.368 350.08H274.328C274.328 351.76 273.848 353.107 272.888 354.12C271.955 355.107 270.701 355.6 269.128 355.6ZM289.465 376.4H286.025V361.12H280.425V358H295.065V361.12H289.465V376.4ZM314.649 366.56C314.649 367.04 314.609 367.587 314.529 368.2H300.169C300.382 369.854 301.035 371.174 302.129 372.16C303.249 373.12 304.662 373.6 306.369 373.6C308.689 373.6 310.582 372.707 312.049 370.92L314.209 372.96C313.249 374.214 312.062 375.174 310.649 375.84C309.262 376.507 307.769 376.84 306.169 376.84C304.329 376.84 302.675 376.427 301.209 375.6C299.742 374.774 298.595 373.627 297.769 372.16C296.969 370.694 296.569 369.04 296.569 367.2C296.569 365.387 296.969 363.747 297.769 362.28C298.569 360.814 299.662 359.667 301.049 358.84C302.462 357.987 304.049 357.56 305.809 357.56C307.489 357.56 308.995 357.947 310.329 358.72C311.662 359.467 312.715 360.534 313.489 361.92C314.262 363.28 314.649 364.827 314.649 366.56ZM305.689 360.56C304.222 360.56 303.009 360.987 302.049 361.84C301.115 362.694 300.515 363.867 300.249 365.36H311.009C310.822 363.92 310.262 362.76 309.329 361.88C308.395 361 307.182 360.56 305.689 360.56ZM333.566 376.4H330.126V361.12H324.526V358H339.166V361.12H333.566V376.4ZM349.361 364.24C351.415 364.24 353.068 364.814 354.321 365.96C355.601 367.08 356.241 368.534 356.241 370.32C356.241 372.107 355.615 373.574 354.361 374.72C353.108 375.84 351.468 376.4 349.441 376.4H342.881V358H346.321V364.24H349.361ZM358.841 376.4V358H362.281V376.4H358.841ZM349.361 373.36C350.375 373.36 351.201 373.08 351.841 372.52C352.481 371.96 352.801 371.227 352.801 370.32C352.801 369.414 352.481 368.68 351.841 368.12C351.201 367.56 350.375 367.28 349.361 367.28H346.321V373.36H349.361ZM376.051 376.84C374.291 376.84 372.677 376.414 371.211 375.56C369.744 374.707 368.584 373.547 367.731 372.08C366.904 370.614 366.491 369 366.491 367.24C366.491 365.48 366.917 363.867 367.771 362.4C368.624 360.907 369.784 359.734 371.251 358.88C372.717 358 374.317 357.56 376.051 357.56C377.571 357.56 378.997 357.894 380.331 358.56C381.691 359.227 382.824 360.16 383.731 361.36L381.291 363.52C380.624 362.64 379.837 361.974 378.931 361.52C378.051 361.04 377.091 360.8 376.051 360.8C374.904 360.8 373.877 361.08 372.971 361.64C372.064 362.174 371.344 362.934 370.811 363.92C370.304 364.88 370.051 365.96 370.051 367.16C370.051 369.027 370.624 370.574 371.771 371.8C372.917 373 374.384 373.6 376.171 373.6C378.331 373.6 380.117 372.694 381.531 370.88L383.851 372.96C382.944 374.16 381.811 375.107 380.451 375.8C379.091 376.494 377.624 376.84 376.051 376.84ZM400.816 358V376.4H397.376V369.96H394.296L390.216 376.4H386.176L390.656 369.48C389.43 369.027 388.47 368.307 387.776 367.32C387.083 366.334 386.736 365.214 386.736 363.96C386.736 362.2 387.363 360.774 388.616 359.68C389.896 358.56 391.576 358 393.656 358H400.816ZM397.376 366.92V361.04H393.736C392.643 361.04 391.776 361.307 391.136 361.84C390.496 362.374 390.176 363.094 390.176 364C390.176 364.88 390.496 365.587 391.136 366.12C391.803 366.654 392.67 366.92 393.736 366.92H397.376ZM416.206 358H419.646V376.4H416.206V370.64C415.006 371.04 413.633 371.24 412.086 371.24C410.033 371.24 408.393 370.654 407.166 369.48C405.94 368.307 405.326 366.747 405.326 364.8V358H408.766V364.76C408.766 365.8 409.1 366.627 409.766 367.24C410.46 367.827 411.406 368.12 412.606 368.12C413.726 368.12 414.926 367.934 416.206 367.56V358ZM441.953 366.56C441.953 367.04 441.913 367.587 441.833 368.2H427.473C427.687 369.854 428.34 371.174 429.433 372.16C430.553 373.12 431.967 373.6 433.673 373.6C435.993 373.6 437.887 372.707 439.353 370.92L441.513 372.96C440.553 374.214 439.367 375.174 437.953 375.84C436.567 376.507 435.073 376.84 433.473 376.84C431.633 376.84 429.98 376.427 428.513 375.6C427.047 374.774 425.9 373.627 425.073 372.16C424.273 370.694 423.873 369.04 423.873 367.2C423.873 365.387 424.273 363.747 425.073 362.28C425.873 360.814 426.967 359.667 428.353 358.84C429.767 357.987 431.353 357.56 433.113 357.56C434.793 357.56 436.3 357.947 437.633 358.72C438.967 359.467 440.02 360.534 440.793 361.92C441.567 363.28 441.953 364.827 441.953 366.56ZM432.993 360.56C431.527 360.56 430.313 360.987 429.353 361.84C428.42 362.694 427.82 363.867 427.553 365.36H438.313C438.127 363.92 437.567 362.76 436.633 361.88C435.7 361 434.487 360.56 432.993 360.56ZM444.983 376.64C444.45 376.64 444.023 376.6 443.703 376.52V373.08C444.076 373.187 444.423 373.24 444.743 373.24C445.463 373.24 445.983 372.96 446.303 372.4C446.65 371.814 446.836 370.854 446.863 369.52L447.063 358H460.543V376.4H457.103V361.12H450.463L450.303 369.48C450.276 371.934 449.823 373.747 448.943 374.92C448.063 376.067 446.743 376.64 444.983 376.64ZM482.813 366.56C482.813 367.04 482.773 367.587 482.693 368.2H468.333C468.546 369.854 469.199 371.174 470.293 372.16C471.413 373.12 472.826 373.6 474.533 373.6C476.853 373.6 478.746 372.707 480.213 370.92L482.373 372.96C481.413 374.214 480.226 375.174 478.813 375.84C477.426 376.507 475.933 376.84 474.333 376.84C472.493 376.84 470.839 376.427 469.373 375.6C467.906 374.774 466.759 373.627 465.933 372.16C465.133 370.694 464.733 369.04 464.733 367.2C464.733 365.387 465.133 363.747 465.933 362.28C466.733 360.814 467.826 359.667 469.213 358.84C470.626 357.987 472.213 357.56 473.973 357.56C475.653 357.56 477.159 357.947 478.493 358.72C479.826 359.467 480.879 360.534 481.653 361.92C482.426 363.28 482.813 364.827 482.813 366.56ZM473.853 360.56C472.386 360.56 471.173 360.987 470.213 361.84C469.279 362.694 468.679 363.867 468.413 365.36H479.173C478.986 363.92 478.426 362.76 477.493 361.88C476.559 361 475.346 360.56 473.853 360.56ZM493.293 376.4H489.853V361.12H484.253V358H498.893V361.12H493.293V376.4ZM514.728 365.56V358H518.168V376.4H514.728V368.68H506.048V376.4H502.608V358H506.048V365.56H514.728ZM526.79 369.88L537.87 357.6H539.11V376.4H535.67V364.48L524.63 376.8H523.35V358H526.79V369.88ZM547.767 369.88L558.847 357.6H560.087V376.4H556.647V364.48L545.607 376.8H544.327V358H547.767V369.88ZM552.527 355.6C550.98 355.6 549.727 355.107 548.767 354.12C547.833 353.107 547.367 351.76 547.367 350.08H550.327C550.327 350.96 550.527 351.667 550.927 352.2C551.353 352.734 551.887 353 552.527 353C553.193 353 553.727 352.734 554.127 352.2C554.553 351.667 554.767 350.96 554.767 350.08H557.727C557.727 351.76 557.247 353.107 556.287 354.12C555.353 355.107 554.1 355.6 552.527 355.6ZM582.652 376.84C580.892 376.84 579.279 376.414 577.812 375.56C576.346 374.707 575.186 373.547 574.332 372.08C573.506 370.614 573.092 369 573.092 367.24C573.092 365.48 573.519 363.867 574.372 362.4C575.226 360.907 576.386 359.734 577.852 358.88C579.319 358 580.919 357.56 582.652 357.56C584.172 357.56 585.599 357.894 586.932 358.56C588.292 359.227 589.426 360.16 590.332 361.36L587.892 363.52C587.226 362.64 586.439 361.974 585.532 361.52C584.652 361.04 583.692 360.8 582.652 360.8C581.506 360.8 580.479 361.08 579.572 361.64C578.666 362.174 577.946 362.934 577.412 363.92C576.906 364.88 576.652 365.96 576.652 367.16C576.652 369.027 577.226 370.574 578.372 371.8C579.519 373 580.986 373.6 582.772 373.6C584.932 373.6 586.719 372.694 588.132 370.88L590.452 372.96C589.546 374.16 588.412 375.107 587.052 375.8C585.692 376.494 584.226 376.84 582.652 376.84ZM600.728 364.24C602.782 364.24 604.435 364.814 605.688 365.96C606.968 367.08 607.608 368.534 607.608 370.32C607.608 372.107 606.982 373.574 605.728 374.72C604.475 375.84 602.835 376.4 600.808 376.4H594.248V358H597.688V364.24H600.728ZM610.208 376.4V358H613.648V376.4H610.208ZM600.728 373.36C601.742 373.36 602.568 373.08 603.208 372.52C603.848 371.96 604.168 371.227 604.168 370.32C604.168 369.414 603.848 368.68 603.208 368.12C602.568 367.56 601.742 367.28 600.728 367.28H597.688V373.36H600.728ZM628.578 357.56C630.204 357.56 631.684 357.987 633.018 358.84C634.378 359.694 635.444 360.867 636.218 362.36C637.018 363.827 637.418 365.44 637.418 367.2C637.418 368.96 637.018 370.587 636.218 372.08C635.444 373.547 634.364 374.707 632.978 375.56C631.618 376.414 630.124 376.84 628.498 376.84C627.271 376.84 626.111 376.587 625.018 376.08C623.951 375.574 623.044 374.867 622.298 373.96V386.4H618.858V358H622.218V360.76C622.938 359.774 623.844 359 624.938 358.44C626.058 357.854 627.271 357.56 628.578 357.56ZM627.938 373.68C629.058 373.68 630.071 373.4 630.978 372.84C631.884 372.28 632.591 371.507 633.098 370.52C633.631 369.534 633.898 368.427 633.898 367.2C633.898 365.974 633.631 364.867 633.098 363.88C632.591 362.894 631.884 362.12 630.978 361.56C630.071 361 629.058 360.72 627.938 360.72C626.818 360.72 625.804 361 624.898 361.56C623.991 362.12 623.271 362.907 622.738 363.92C622.231 364.907 621.978 366 621.978 367.2C621.978 368.427 622.231 369.534 622.738 370.52C623.271 371.507 623.991 372.28 624.898 372.84C625.804 373.4 626.818 373.68 627.938 373.68ZM643.289 376.64C642.622 376.64 642.049 376.414 641.569 375.96C641.116 375.48 640.889 374.907 640.889 374.24C640.889 373.547 641.116 372.974 641.569 372.52C642.049 372.067 642.622 371.84 643.289 371.84C643.956 371.84 644.516 372.067 644.969 372.52C645.422 372.974 645.649 373.547 645.649 374.24C645.649 374.934 645.422 375.507 644.969 375.96C644.516 376.414 643.956 376.64 643.289 376.64Z" fill="#F64A22"/>
<path d="M141.824 168.481H146.696V185.113H138.968V176.153H116.456V185.113H108.672V168.481C112.853 168.481 115.075 163.665 115.336 154.033L115.784 138.633H141.824V168.481ZM133.648 168.481V146.305H123.344L123.064 153.977C122.952 157.412 122.635 160.287 122.112 162.601C121.627 164.879 120.88 166.839 119.872 168.481H133.648ZM162.289 176.937C159.751 176.937 157.417 176.34 155.289 175.145C153.161 173.913 151.481 172.252 150.249 170.161C149.017 168.071 148.401 165.775 148.401 163.273C148.401 160.772 149.017 158.476 150.249 156.385C151.481 154.295 153.161 152.652 155.289 151.457C157.417 150.225 159.751 149.609 162.289 149.609C164.828 149.609 167.161 150.225 169.289 151.457C171.417 152.652 173.097 154.295 174.329 156.385C175.561 158.476 176.177 160.772 176.177 163.273C176.177 165.775 175.561 168.071 174.329 170.161C173.097 172.252 171.417 173.913 169.289 175.145C167.161 176.34 164.828 176.937 162.289 176.937ZM162.289 169.825C164.119 169.825 165.593 169.228 166.713 168.033C167.871 166.801 168.449 165.215 168.449 163.273C168.449 161.332 167.871 159.764 166.713 158.569C165.593 157.337 164.119 156.721 162.289 156.721C160.46 156.721 158.967 157.337 157.809 158.569C156.689 159.764 156.129 161.332 156.129 163.273C156.129 165.215 156.689 166.801 157.809 168.033C158.967 169.228 160.46 169.825 162.289 169.825ZM195.585 151.289C197.9 151.289 199.972 151.849 201.801 152.969C203.668 154.052 205.124 155.545 206.169 157.449C207.215 159.353 207.737 161.481 207.737 163.833C207.737 166.335 207.14 168.593 205.945 170.609C204.788 172.588 203.164 174.137 201.073 175.257C198.983 176.377 196.649 176.937 194.073 176.937C191.348 176.937 188.94 176.321 186.849 175.089C184.796 173.82 183.191 172.047 182.033 169.769C180.876 167.492 180.297 164.86 180.297 161.873V158.681C180.297 152.372 181.399 147.631 183.601 144.457C185.841 141.247 189.332 139.399 194.073 138.913C196.313 138.689 197.993 138.372 199.113 137.961C200.271 137.551 201.316 136.897 202.249 136.001L205.777 141.601C204.881 142.833 203.668 143.785 202.137 144.457C200.644 145.092 198.535 145.54 195.809 145.801C193.121 146.063 191.143 146.903 189.873 148.321C188.604 149.74 187.876 151.831 187.689 154.593C188.66 153.548 189.817 152.745 191.161 152.185C192.543 151.588 194.017 151.289 195.585 151.289ZM194.073 169.825C195.828 169.825 197.265 169.284 198.385 168.201C199.543 167.119 200.121 165.719 200.121 164.001C200.121 162.284 199.543 160.884 198.385 159.801C197.265 158.719 195.828 158.177 194.073 158.177C192.281 158.177 190.825 158.719 189.705 159.801C188.585 160.884 188.025 162.284 188.025 164.001C188.025 165.719 188.585 167.119 189.705 168.201C190.825 169.284 192.281 169.825 194.073 169.825ZM227.923 149.609C230.2 149.609 232.272 150.207 234.139 151.401C236.005 152.596 237.48 154.239 238.563 156.329C239.683 158.42 240.243 160.735 240.243 163.273C240.243 165.812 239.683 168.127 238.563 170.217C237.48 172.271 235.987 173.913 234.083 175.145C232.179 176.34 230.069 176.937 227.755 176.937C226.299 176.937 224.917 176.676 223.611 176.153C222.304 175.631 221.147 174.884 220.139 173.913V190.153H212.635V150.393H219.859V153.137C220.867 152.017 222.043 151.159 223.387 150.561C224.768 149.927 226.28 149.609 227.923 149.609ZM226.243 169.937C228.072 169.937 229.584 169.321 230.779 168.089C232.011 166.82 232.627 165.215 232.627 163.273C232.627 161.332 232.011 159.745 230.779 158.513C229.584 157.244 228.072 156.609 226.243 156.609C224.376 156.609 222.845 157.244 221.651 158.513C220.456 159.745 219.859 161.332 219.859 163.273C219.859 165.215 220.456 166.82 221.651 168.089C222.845 169.321 224.376 169.937 226.243 169.937ZM257.719 176.937C255.18 176.937 252.847 176.34 250.719 175.145C248.591 173.913 246.911 172.252 245.679 170.161C244.447 168.071 243.831 165.775 243.831 163.273C243.831 160.772 244.447 158.476 245.679 156.385C246.911 154.295 248.591 152.652 250.719 151.457C252.847 150.225 255.18 149.609 257.719 149.609C260.258 149.609 262.591 150.225 264.719 151.457C266.847 152.652 268.527 154.295 269.759 156.385C270.991 158.476 271.607 160.772 271.607 163.273C271.607 165.775 270.991 168.071 269.759 170.161C268.527 172.252 266.847 173.913 264.719 175.145C262.591 176.34 260.258 176.937 257.719 176.937ZM257.719 169.825C259.548 169.825 261.023 169.228 262.143 168.033C263.3 166.801 263.879 165.215 263.879 163.273C263.879 161.332 263.3 159.764 262.143 158.569C261.023 157.337 259.548 156.721 257.719 156.721C255.89 156.721 254.396 157.337 253.239 158.569C252.119 159.764 251.559 161.332 251.559 163.273C251.559 165.215 252.119 166.801 253.239 168.033C254.396 169.228 255.89 169.825 257.719 169.825ZM295.17 176.153H287.666V150.393H311.242V176.153H303.738V157.169H295.17V176.153ZM330.016 176.937C327.477 176.937 325.144 176.34 323.016 175.145C320.888 173.913 319.208 172.252 317.976 170.161C316.744 168.071 316.128 165.775 316.128 163.273C316.128 160.772 316.744 158.476 317.976 156.385C319.208 154.295 320.888 152.652 323.016 151.457C325.144 150.225 327.477 149.609 330.016 149.609C332.555 149.609 334.888 150.225 337.016 151.457C339.144 152.652 340.824 154.295 342.056 156.385C343.288 158.476 343.904 160.772 343.904 163.273C343.904 165.775 343.288 168.071 342.056 170.161C340.824 172.252 339.144 173.913 337.016 175.145C334.888 176.34 332.555 176.937 330.016 176.937ZM330.016 169.825C331.845 169.825 333.32 169.228 334.44 168.033C335.597 166.801 336.176 165.215 336.176 163.273C336.176 161.332 335.597 159.764 334.44 158.569C333.32 157.337 331.845 156.721 330.016 156.721C328.187 156.721 326.693 157.337 325.536 158.569C324.416 159.764 323.856 161.332 323.856 163.273C323.856 165.215 324.416 166.801 325.536 168.033C326.693 169.228 328.187 169.825 330.016 169.825ZM375.841 162.937L385.529 176.153H376.569L368.113 164.057V176.153H360.833V164.057L352.377 176.153H343.417L353.105 162.937L344.145 150.393H352.601L360.833 162.433V150.393H368.113V162.433L376.401 150.393H384.801L375.841 162.937ZM398.277 149.609C400.629 149.609 402.701 150.113 404.493 151.121C406.323 152.092 407.741 153.473 408.749 155.265C409.757 157.02 410.261 159.017 410.261 161.257V176.153H402.757V173.465C401.712 174.735 400.555 175.631 399.285 176.153C398.016 176.676 396.523 176.937 394.805 176.937C393.125 176.937 391.613 176.583 390.269 175.873C388.925 175.164 387.861 174.193 387.077 172.961C386.331 171.729 385.957 170.348 385.957 168.817C385.957 167.175 386.387 165.7 387.245 164.393C388.141 163.049 389.373 162.004 390.941 161.257C392.547 160.511 394.339 160.137 396.317 160.137C398.595 160.137 400.741 160.66 402.757 161.705V161.145C402.757 159.652 402.253 158.439 401.245 157.505C400.237 156.572 398.949 156.105 397.381 156.105C395.253 156.105 393.48 157.039 392.061 158.905L387.581 153.697C389.112 152.279 390.736 151.252 392.453 150.617C394.208 149.945 396.149 149.609 398.277 149.609ZM397.325 171.337C398.744 171.337 399.939 170.927 400.909 170.105C401.917 169.284 402.515 168.201 402.701 166.857C401.021 165.775 399.304 165.233 397.549 165.233C396.28 165.233 395.272 165.513 394.525 166.073C393.816 166.633 393.461 167.38 393.461 168.313C393.461 169.247 393.797 169.993 394.469 170.553C395.179 171.076 396.131 171.337 397.325 171.337ZM415.916 176.657C415.02 176.657 414.348 176.601 413.9 176.489V168.929C414.348 169.079 414.815 169.153 415.3 169.153C416.121 169.153 416.719 168.836 417.092 168.201C417.503 167.567 417.727 166.521 417.764 165.065L418.156 150.393H439.716V176.153H432.212V157.169H425.436L425.212 165.065C425.1 169.06 424.297 171.991 422.804 173.857C421.311 175.724 419.015 176.657 415.916 176.657ZM458.477 176.937C455.938 176.937 453.605 176.34 451.477 175.145C449.349 173.913 447.669 172.252 446.437 170.161C445.205 168.071 444.589 165.775 444.589 163.273C444.589 160.772 445.205 158.476 446.437 156.385C447.669 154.295 449.349 152.652 451.477 151.457C453.605 150.225 455.938 149.609 458.477 149.609C461.016 149.609 463.349 150.225 465.477 151.457C467.605 152.652 469.285 154.295 470.517 156.385C471.749 158.476 472.365 160.772 472.365 163.273C472.365 165.775 471.749 168.071 470.517 170.161C469.285 172.252 467.605 173.913 465.477 175.145C463.349 176.34 461.016 176.937 458.477 176.937ZM458.477 169.825C460.306 169.825 461.781 169.228 462.901 168.033C464.058 166.801 464.637 165.215 464.637 163.273C464.637 161.332 464.058 159.764 462.901 158.569C461.781 157.337 460.306 156.721 458.477 156.721C456.648 156.721 455.154 157.337 453.997 158.569C452.877 159.764 452.317 161.332 452.317 163.273C452.317 165.215 452.877 166.801 453.997 168.033C455.154 169.228 456.648 169.825 458.477 169.825ZM495.973 162.881C498.81 164.113 500.229 166.092 500.229 168.817C500.229 171.02 499.277 172.793 497.373 174.137C495.506 175.481 493.042 176.153 489.981 176.153H477.213V150.393H489.085C492.071 150.393 494.479 151.065 496.309 152.409C498.175 153.716 499.109 155.433 499.109 157.561C499.109 158.681 498.829 159.689 498.269 160.585C497.746 161.481 496.981 162.247 495.973 162.881ZM484.717 155.937V160.417H488.469C489.402 160.417 490.149 160.212 490.709 159.801C491.306 159.391 491.605 158.849 491.605 158.177C491.605 157.505 491.306 156.964 490.709 156.553C490.149 156.143 489.402 155.937 488.469 155.937H484.717ZM489.365 170.609C490.373 170.609 491.175 170.385 491.773 169.937C492.407 169.489 492.725 168.911 492.725 168.201C492.725 167.492 492.407 166.913 491.773 166.465C491.175 166.017 490.373 165.793 489.365 165.793H484.717V170.609H489.365ZM515.418 149.609C517.77 149.609 519.842 150.113 521.634 151.121C523.463 152.092 524.882 153.473 525.89 155.265C526.898 157.02 527.402 159.017 527.402 161.257V176.153H519.898V173.465C518.853 174.735 517.695 175.631 516.426 176.153C515.157 176.676 513.663 176.937 511.946 176.937C510.266 176.937 508.754 176.583 507.41 175.873C506.066 175.164 505.002 174.193 504.218 172.961C503.471 171.729 503.098 170.348 503.098 168.817C503.098 167.175 503.527 165.7 504.386 164.393C505.282 163.049 506.514 162.004 508.082 161.257C509.687 160.511 511.479 160.137 513.458 160.137C515.735 160.137 517.882 160.66 519.898 161.705V161.145C519.898 159.652 519.394 158.439 518.386 157.505C517.378 156.572 516.09 156.105 514.522 156.105C512.394 156.105 510.621 157.039 509.202 158.905L504.722 153.697C506.253 152.279 507.877 151.252 509.594 150.617C511.349 149.945 513.29 149.609 515.418 149.609ZM514.466 171.337C515.885 171.337 517.079 170.927 518.05 170.105C519.058 169.284 519.655 168.201 519.842 166.857C518.162 165.775 516.445 165.233 514.69 165.233C513.421 165.233 512.413 165.513 511.666 166.073C510.957 166.633 510.602 167.38 510.602 168.313C510.602 169.247 510.938 169.993 511.61 170.553C512.319 171.076 513.271 171.337 514.466 171.337ZM545.166 176.153H537.662V157.169H530.326V150.393H552.502V157.169H545.166V176.153ZM568.653 158.121C572.05 158.121 574.682 158.943 576.549 160.585C578.415 162.228 579.349 164.393 579.349 167.081C579.349 169.807 578.415 172.009 576.549 173.689C574.719 175.332 572.106 176.153 568.709 176.153H556.893V150.393H564.397V158.121H568.653ZM568.149 169.937C569.269 169.937 570.165 169.676 570.837 169.153C571.509 168.593 571.845 167.865 571.845 166.969C571.845 166.073 571.509 165.364 570.837 164.841C570.165 164.319 569.269 164.057 568.149 164.057H564.397V169.937H568.149ZM613.66 162.881C616.498 164.113 617.916 166.092 617.916 168.817C617.916 171.02 616.964 172.793 615.06 174.137C613.194 175.481 610.73 176.153 607.668 176.153H594.9V150.393H606.772C609.759 150.393 612.167 151.065 613.996 152.409C615.863 153.716 616.796 155.433 616.796 157.561C616.796 158.681 616.516 159.689 615.956 160.585C615.434 161.481 614.668 162.247 613.66 162.881ZM602.404 155.937V160.417H606.156C607.09 160.417 607.836 160.212 608.396 159.801C608.994 159.391 609.292 158.849 609.292 158.177C609.292 157.505 608.994 156.964 608.396 156.553C607.836 156.143 607.09 155.937 606.156 155.937H602.404ZM607.052 170.609C608.06 170.609 608.863 170.385 609.46 169.937C610.095 169.489 610.412 168.911 610.412 168.201C610.412 167.492 610.095 166.913 609.46 166.465C608.863 166.017 608.06 165.793 607.052 165.793H602.404V170.609H607.052ZM642.709 176.153H635.205V150.393H652.677V157.169H642.709V176.153ZM668.149 176.937C665.61 176.937 663.277 176.34 661.149 175.145C659.021 173.913 657.341 172.252 656.109 170.161C654.877 168.071 654.261 165.775 654.261 163.273C654.261 160.772 654.877 158.476 656.109 156.385C657.341 154.295 659.021 152.652 661.149 151.457C663.277 150.225 665.61 149.609 668.149 149.609C670.687 149.609 673.021 150.225 675.149 151.457C677.277 152.652 678.957 154.295 680.189 156.385C681.421 158.476 682.037 160.772 682.037 163.273C682.037 165.775 681.421 168.071 680.189 170.161C678.957 172.252 677.277 173.913 675.149 175.145C673.021 176.34 670.687 176.937 668.149 176.937ZM668.149 169.825C669.978 169.825 671.453 169.228 672.573 168.033C673.73 166.801 674.309 165.215 674.309 163.273C674.309 161.332 673.73 159.764 672.573 158.569C671.453 157.337 669.978 156.721 668.149 156.721C666.319 156.721 664.826 157.337 663.669 158.569C662.549 159.764 661.989 161.332 661.989 163.273C661.989 165.215 662.549 166.801 663.669 168.033C664.826 169.228 666.319 169.825 668.149 169.825ZM702.173 149.609C704.45 149.609 706.522 150.207 708.389 151.401C710.255 152.596 711.73 154.239 712.813 156.329C713.933 158.42 714.493 160.735 714.493 163.273C714.493 165.812 713.933 168.127 712.813 170.217C711.73 172.271 710.237 173.913 708.333 175.145C706.429 176.34 704.319 176.937 702.005 176.937C700.549 176.937 699.167 176.676 697.861 176.153C696.554 175.631 695.397 174.884 694.389 173.913V190.153H686.885V150.393H694.109V153.137C695.117 152.017 696.293 151.159 697.637 150.561C699.018 149.927 700.53 149.609 702.173 149.609ZM700.493 169.937C702.322 169.937 703.834 169.321 705.029 168.089C706.261 166.82 706.877 165.215 706.877 163.273C706.877 161.332 706.261 159.745 705.029 158.513C703.834 157.244 702.322 156.609 700.493 156.609C698.626 156.609 697.095 157.244 695.901 158.513C694.706 159.745 694.109 161.332 694.109 163.273C694.109 165.215 694.706 166.82 695.901 168.089C697.095 169.321 698.626 169.937 700.493 169.937ZM731.969 176.937C729.43 176.937 727.097 176.34 724.969 175.145C722.841 173.913 721.161 172.252 719.929 170.161C718.697 168.071 718.081 165.775 718.081 163.273C718.081 160.772 718.697 158.476 719.929 156.385C721.161 154.295 722.841 152.652 724.969 151.457C727.097 150.225 729.43 149.609 731.969 149.609C734.508 149.609 736.841 150.225 738.969 151.457C741.097 152.652 742.777 154.295 744.009 156.385C745.241 158.476 745.857 160.772 745.857 163.273C745.857 165.775 745.241 168.071 744.009 170.161C742.777 172.252 741.097 173.913 738.969 175.145C736.841 176.34 734.508 176.937 731.969 176.937ZM731.969 169.825C733.798 169.825 735.273 169.228 736.393 168.033C737.55 166.801 738.129 165.215 738.129 163.273C738.129 161.332 737.55 159.764 736.393 158.569C735.273 157.337 733.798 156.721 731.969 156.721C730.14 156.721 728.646 157.337 727.489 158.569C726.369 159.764 725.809 161.332 725.809 163.273C725.809 165.215 726.369 166.801 727.489 168.033C728.646 169.228 730.14 169.825 731.969 169.825ZM773.467 169.489H777.275V183.433H769.939V176.153H754.707V183.433H747.371V169.489C748.827 169.489 749.966 168.705 750.787 167.137C751.609 165.532 752.019 163.273 752.019 160.361V150.393H773.467V169.489ZM766.131 169.489V157.057H759.355V160.417C759.355 164.113 758.627 167.137 757.171 169.489H766.131ZM813.326 158.233L827.494 138.633H833.15V176.153H824.974V154.145L814.838 168.201H811.59L801.454 154.145V176.153H793.278V138.633H799.046L813.326 158.233ZM851.535 158.121C854.933 158.121 857.565 158.943 859.431 160.585C861.298 162.228 862.231 164.393 862.231 167.081C862.231 169.807 861.298 172.009 859.431 173.689C857.602 175.332 854.989 176.153 851.591 176.153H840.447V150.393H847.951V158.121H851.535ZM865.087 176.153V150.393H872.647V176.153H865.087ZM851.087 169.937C852.17 169.937 853.047 169.676 853.719 169.153C854.391 168.593 854.727 167.865 854.727 166.969C854.727 166.073 854.391 165.364 853.719 164.841C853.047 164.319 852.17 164.057 851.087 164.057H847.951V169.937H851.087ZM916.864 176.153H878.728V150.393H886.232V169.377H894.016V150.393H901.576V169.377H909.36V150.393H916.864V176.153ZM938.257 162.937L948.001 176.153H939.041L930.529 164.057V176.153H923.025V150.393H930.529V162.489L938.873 150.393H947.329L938.257 162.937ZM958.037 164.169L970.805 149.833H975.117V176.153H967.557V162.377L954.789 176.713H950.533V150.393H958.037V164.169ZM997.677 159.633V150.393H1005.18V176.153H997.677V166.465H988.717V176.153H981.213V150.393H988.717V159.633H997.677ZM1015.99 176.657C1014.72 176.657 1013.64 176.228 1012.75 175.369C1011.89 174.473 1011.46 173.391 1011.46 172.121C1011.46 170.852 1011.89 169.769 1012.75 168.873C1013.64 167.977 1014.72 167.529 1015.99 167.529C1017.26 167.529 1018.33 167.977 1019.19 168.873C1020.08 169.732 1020.53 170.815 1020.53 172.121C1020.53 173.391 1020.08 174.473 1019.19 175.369C1018.33 176.228 1017.26 176.657 1015.99 176.657ZM129.784 223.609C131.613 224.543 133.032 225.812 134.04 227.417C135.085 228.985 135.608 230.759 135.608 232.737C135.608 234.865 135.029 236.788 133.872 238.505C132.715 240.185 131.109 241.511 129.056 242.481C127.04 243.452 124.763 243.937 122.224 243.937C119.275 243.937 116.643 243.284 114.328 241.977C112.051 240.633 110.315 238.767 109.12 236.377L115.28 232.065C116.773 235.313 118.957 236.937 121.832 236.937C123.475 236.937 124.819 236.508 125.864 235.649C126.909 234.753 127.432 233.596 127.432 232.177C127.432 230.647 126.816 229.452 125.584 228.593C124.352 227.697 122.691 227.249 120.6 227.249H117.072V220.753H120.096C121.963 220.753 123.437 220.343 124.52 219.521C125.64 218.663 126.2 217.505 126.2 216.049C126.2 214.78 125.733 213.753 124.8 212.969C123.904 212.148 122.747 211.737 121.328 211.737C120.171 211.737 119.144 212.036 118.248 212.633C117.352 213.231 116.493 214.183 115.672 215.489L110.52 210.897C111.901 208.956 113.619 207.463 115.672 206.417C117.763 205.372 120.04 204.849 122.504 204.849C124.744 204.849 126.76 205.297 128.552 206.193C130.381 207.089 131.8 208.321 132.808 209.889C133.853 211.457 134.376 213.231 134.376 215.209C134.376 216.927 133.965 218.513 133.144 219.969C132.36 221.388 131.24 222.601 129.784 223.609ZM163.209 236.489H167.017V250.433H159.681V243.153H144.449V250.433H137.113V236.489C138.569 236.489 139.708 235.705 140.529 234.137C141.351 232.532 141.761 230.273 141.761 227.361V217.393H163.209V236.489ZM155.873 236.489V224.057H149.097V227.417C149.097 231.113 148.369 234.137 146.913 236.489H155.873ZM195.231 229.153C195.231 230.311 195.137 231.412 194.951 232.457H176.751C177.161 234.063 177.927 235.313 179.047 236.209C180.167 237.068 181.641 237.497 183.471 237.497C186.159 237.497 188.473 236.471 190.415 234.417L194.391 238.841C192.935 240.484 191.199 241.753 189.183 242.649C187.167 243.508 185.02 243.937 182.743 243.937C180.055 243.937 177.647 243.359 175.519 242.201C173.428 241.044 171.785 239.439 170.591 237.385C169.433 235.332 168.855 232.999 168.855 230.385C168.855 227.772 169.433 225.42 170.591 223.329C171.748 221.239 173.335 219.596 175.351 218.401C177.404 217.207 179.719 216.609 182.295 216.609C184.684 216.609 186.868 217.151 188.847 218.233C190.825 219.316 192.375 220.809 193.495 222.713C194.652 224.617 195.231 226.764 195.231 229.153ZM182.183 222.433C180.764 222.433 179.569 222.844 178.599 223.665C177.665 224.487 177.012 225.681 176.639 227.249H187.503C187.204 225.756 186.607 224.58 185.711 223.721C184.815 222.863 183.639 222.433 182.183 222.433ZM212.823 243.937C210.247 243.937 207.877 243.34 205.711 242.145C203.583 240.951 201.903 239.308 200.671 237.217C199.439 235.127 198.823 232.831 198.823 230.329C198.823 227.791 199.439 225.476 200.671 223.385C201.903 221.295 203.583 219.652 205.711 218.457C207.877 217.225 210.266 216.609 212.879 216.609C215.082 216.609 217.154 217.076 219.095 218.009C221.074 218.905 222.735 220.193 224.079 221.873L218.871 226.857C217.266 224.729 215.269 223.665 212.879 223.665C211.013 223.665 209.482 224.281 208.287 225.513C207.093 226.745 206.495 228.313 206.495 230.217C206.495 232.196 207.093 233.801 208.287 235.033C209.482 236.265 211.031 236.881 212.935 236.881C215.325 236.881 217.397 235.78 219.151 233.577L224.359 238.617C222.978 240.26 221.279 241.567 219.263 242.537C217.247 243.471 215.101 243.937 212.823 243.937ZM240.309 225.121C243.706 225.121 246.338 225.943 248.205 227.585C250.071 229.228 251.005 231.393 251.005 234.081C251.005 236.807 250.071 239.009 248.205 240.689C246.375 242.332 243.762 243.153 240.365 243.153H228.549V217.393H236.053V225.121H240.309ZM239.805 236.937C240.925 236.937 241.821 236.676 242.493 236.153C243.165 235.593 243.501 234.865 243.501 233.969C243.501 233.073 243.165 232.364 242.493 231.841C241.821 231.319 240.925 231.057 239.805 231.057H236.053V236.937H239.805ZM285.317 229.881C288.154 231.113 289.573 233.092 289.573 235.817C289.573 238.02 288.621 239.793 286.717 241.137C284.85 242.481 282.386 243.153 279.325 243.153H266.557V217.393H278.429C281.415 217.393 283.823 218.065 285.653 219.409C287.519 220.716 288.453 222.433 288.453 224.561C288.453 225.681 288.173 226.689 287.613 227.585C287.09 228.481 286.325 229.247 285.317 229.881ZM274.061 222.937V227.417H277.813C278.746 227.417 279.493 227.212 280.053 226.801C280.65 226.391 280.949 225.849 280.949 225.177C280.949 224.505 280.65 223.964 280.053 223.553C279.493 223.143 278.746 222.937 277.813 222.937H274.061ZM278.709 237.609C279.717 237.609 280.519 237.385 281.117 236.937C281.751 236.489 282.069 235.911 282.069 235.201C282.069 234.492 281.751 233.913 281.117 233.465C280.519 233.017 279.717 232.793 278.709 232.793H274.061V237.609H278.709ZM306.175 243.937C303.599 243.937 301.228 243.34 299.063 242.145C296.935 240.951 295.255 239.308 294.023 237.217C292.791 235.127 292.175 232.831 292.175 230.329C292.175 227.791 292.791 225.476 294.023 223.385C295.255 221.295 296.935 219.652 299.063 218.457C301.228 217.225 303.617 216.609 306.231 216.609C308.433 216.609 310.505 217.076 312.447 218.009C314.425 218.905 316.087 220.193 317.431 221.873L312.223 226.857C310.617 224.729 308.62 223.665 306.231 223.665C304.364 223.665 302.833 224.281 301.639 225.513C300.444 226.745 299.847 228.313 299.847 230.217C299.847 232.196 300.444 233.801 301.639 235.033C302.833 236.265 304.383 236.881 306.287 236.881C308.676 236.881 310.748 235.78 312.503 233.577L317.711 238.617C316.329 240.26 314.631 241.567 312.615 242.537C310.599 243.471 308.452 243.937 306.175 243.937ZM345.895 229.153C345.895 230.311 345.801 231.412 345.615 232.457H327.415C327.825 234.063 328.591 235.313 329.711 236.209C330.831 237.068 332.305 237.497 334.135 237.497C336.823 237.497 339.137 236.471 341.079 234.417L345.055 238.841C343.599 240.484 341.863 241.753 339.847 242.649C337.831 243.508 335.684 243.937 333.407 243.937C330.719 243.937 328.311 243.359 326.183 242.201C324.092 241.044 322.449 239.439 321.255 237.385C320.097 235.332 319.519 232.999 319.519 230.385C319.519 227.772 320.097 225.42 321.255 223.329C322.412 221.239 323.999 219.596 326.015 218.401C328.068 217.207 330.383 216.609 332.959 216.609C335.348 216.609 337.532 217.151 339.511 218.233C341.489 219.316 343.039 220.809 344.159 222.713C345.316 224.617 345.895 226.764 345.895 229.153ZM332.847 222.433C331.428 222.433 330.233 222.844 329.263 223.665C328.329 224.487 327.676 225.681 327.303 227.249H338.167C337.868 225.756 337.271 224.58 336.375 223.721C335.479 222.863 334.303 222.433 332.847 222.433ZM370.584 231.169L383.352 216.833H387.664V243.153H380.104V229.377L367.336 243.713H363.08V217.393H370.584V231.169ZM410.728 229.713C411.96 230.311 412.912 231.151 413.584 232.233C414.293 233.279 414.648 234.455 414.648 235.761C414.648 237.329 414.144 238.729 413.136 239.961C412.165 241.193 410.821 242.164 409.104 242.873C407.386 243.583 405.482 243.937 403.392 243.937C398.352 243.937 394.338 242.407 391.352 239.345L395.272 234.473C396.504 235.668 397.698 236.545 398.856 237.105C400.05 237.665 401.338 237.945 402.72 237.945C404.026 237.945 405.09 237.721 405.912 237.273C406.733 236.788 407.144 236.135 407.144 235.313C407.144 234.492 406.714 233.857 405.856 233.409C404.997 232.961 403.802 232.737 402.272 232.737H398.856V227.361H401.656C403.037 227.361 404.138 227.137 404.96 226.689C405.781 226.241 406.192 225.625 406.192 224.841C406.192 224.132 405.856 223.572 405.184 223.161C404.512 222.713 403.616 222.489 402.496 222.489C400.293 222.489 398.202 223.423 396.224 225.289L392.584 220.641C394.077 219.335 395.738 218.345 397.568 217.673C399.397 216.964 401.301 216.609 403.28 216.609C405.258 216.609 407.032 216.945 408.6 217.617C410.205 218.289 411.456 219.223 412.352 220.417C413.248 221.575 413.696 222.9 413.696 224.393C413.696 226.596 412.706 228.369 410.728 229.713ZM444.589 243.937C442.013 243.937 439.642 243.34 437.477 242.145C435.349 240.951 433.669 239.308 432.437 237.217C431.205 235.127 430.589 232.831 430.589 230.329C430.589 227.791 431.205 225.476 432.437 223.385C433.669 221.295 435.349 219.652 437.477 218.457C439.642 217.225 442.032 216.609 444.645 216.609C446.848 216.609 448.92 217.076 450.861 218.009C452.84 218.905 454.501 220.193 455.845 221.873L450.637 226.857C449.032 224.729 447.034 223.665 444.645 223.665C442.778 223.665 441.248 224.281 440.053 225.513C438.858 226.745 438.261 228.313 438.261 230.217C438.261 232.196 438.858 233.801 440.053 235.033C441.248 236.265 442.797 236.881 444.701 236.881C447.09 236.881 449.162 235.78 450.917 233.577L456.125 238.617C454.744 240.26 453.045 241.567 451.029 242.537C449.013 243.471 446.866 243.937 444.589 243.937ZM471.402 225.121C474.8 225.121 477.432 225.943 479.298 227.585C481.165 229.228 482.098 231.393 482.098 234.081C482.098 236.807 481.165 239.009 479.298 240.689C477.469 242.332 474.856 243.153 471.458 243.153H460.314V217.393H467.818V225.121H471.402ZM484.954 243.153V217.393H492.514V243.153H484.954ZM470.954 236.937C472.037 236.937 472.914 236.676 473.586 236.153C474.258 235.593 474.594 234.865 474.594 233.969C474.594 233.073 474.258 232.364 473.586 231.841C472.914 231.319 472.037 231.057 470.954 231.057H467.818V236.937H470.954ZM513.884 216.609C516.161 216.609 518.233 217.207 520.1 218.401C521.966 219.596 523.441 221.239 524.524 223.329C525.644 225.42 526.204 227.735 526.204 230.273C526.204 232.812 525.644 235.127 524.524 237.217C523.441 239.271 521.948 240.913 520.044 242.145C518.14 243.34 516.03 243.937 513.716 243.937C512.26 243.937 510.878 243.676 509.572 243.153C508.265 242.631 507.108 241.884 506.1 240.913V257.153H498.596V217.393H505.82V220.137C506.828 219.017 508.004 218.159 509.348 217.561C510.729 216.927 512.241 216.609 513.884 216.609ZM512.204 236.937C514.033 236.937 515.545 236.321 516.74 235.089C517.972 233.82 518.588 232.215 518.588 230.273C518.588 228.332 517.972 226.745 516.74 225.513C515.545 224.244 514.033 223.609 512.204 223.609C510.337 223.609 508.806 224.244 507.612 225.513C506.417 226.745 505.82 228.332 505.82 230.273C505.82 232.215 506.417 233.82 507.612 235.089C508.806 236.321 510.337 236.937 512.204 236.937ZM541.832 216.609C544.184 216.609 546.256 217.113 548.048 218.121C549.877 219.092 551.296 220.473 552.304 222.265C553.312 224.02 553.816 226.017 553.816 228.257V243.153H546.312V240.465C545.267 241.735 544.109 242.631 542.84 243.153C541.571 243.676 540.077 243.937 538.36 243.937C536.68 243.937 535.168 243.583 533.824 242.873C532.48 242.164 531.416 241.193 530.632 239.961C529.885 238.729 529.512 237.348 529.512 235.817C529.512 234.175 529.941 232.7 530.8 231.393C531.696 230.049 532.928 229.004 534.496 228.257C536.101 227.511 537.893 227.137 539.872 227.137C542.149 227.137 544.296 227.66 546.312 228.705V228.145C546.312 226.652 545.808 225.439 544.8 224.505C543.792 223.572 542.504 223.105 540.936 223.105C538.808 223.105 537.035 224.039 535.616 225.905L531.136 220.697C532.667 219.279 534.291 218.252 536.008 217.617C537.763 216.945 539.704 216.609 541.832 216.609ZM540.88 238.337C542.299 238.337 543.493 237.927 544.464 237.105C545.472 236.284 546.069 235.201 546.256 233.857C544.576 232.775 542.859 232.233 541.104 232.233C539.835 232.233 538.827 232.513 538.08 233.073C537.371 233.633 537.016 234.38 537.016 235.313C537.016 236.247 537.352 236.993 538.024 237.553C538.733 238.076 539.685 238.337 540.88 238.337ZM564.33 243.657C563.06 243.657 561.978 243.228 561.082 242.369C560.223 241.473 559.794 240.391 559.794 239.121C559.794 237.852 560.223 236.769 561.082 235.873C561.978 234.977 563.06 234.529 564.33 234.529C565.599 234.529 566.663 234.977 567.522 235.873C568.418 236.732 568.866 237.815 568.866 239.121C568.866 240.391 568.418 241.473 567.522 242.369C566.663 243.228 565.599 243.657 564.33 243.657Z" fill="#FFF422"/>
</svg>
