<svg width="1434" height="1434" viewBox="0 0 1434 1434" fill="none" xmlns="http://www.w3.org/2000/svg">
<g clip-path="url(#clip0_696_1413)">
<path d="M716.916 1.79658e-05C858.708 1.79658e-05 997.317 42.0464 1115.21 120.822C1233.11 199.598 1325 311.565 1379.26 442.564C1433.52 573.563 1447.72 717.711 1420.06 856.779C1392.39 995.847 1324.11 1123.59 1223.85 1223.85C1123.59 1324.11 995.847 1392.39 856.779 1420.06C717.711 1447.72 573.563 1433.52 442.564 1379.26C311.565 1325 199.598 1233.11 120.822 1115.21C42.0464 997.317 1.79658e-05 858.708 1.79658e-05 716.916C-0.0210618 622.763 18.5081 529.529 54.529 442.539C90.55 355.549 143.357 276.509 209.933 209.933C276.509 143.357 355.549 90.55 442.539 54.529C529.529 18.5081 622.763 -0.0210618 716.916 1.79658e-05Z" fill="black"/>
<mask id="mask0_696_1413" style="mask-type:alpha" maskUnits="userSpaceOnUse" x="0" y="0" width="1434" height="1434">
<path d="M716.916 1.79658e-05C858.708 1.79658e-05 997.317 42.0464 1115.21 120.822C1233.11 199.598 1325 311.565 1379.26 442.564C1433.52 573.563 1447.72 717.711 1420.06 856.779C1392.39 995.847 1324.11 1123.59 1223.85 1223.85C1123.59 1324.11 995.847 1392.39 856.779 1420.06C717.711 1447.72 573.563 1433.52 442.564 1379.26C311.565 1325 199.598 1233.11 120.822 1115.21C42.0464 997.317 1.79658e-05 858.708 1.79658e-05 716.916C-0.0210618 622.763 18.5081 529.529 54.529 442.539C90.55 355.549 143.357 276.509 209.933 209.933C276.509 143.357 355.549 90.55 442.539 54.529C529.529 18.5081 622.763 -0.0210618 716.916 1.79658e-05Z" fill="black"/>
</mask>
<g mask="url(#mask0_696_1413)">
<path d="M296.775 282.476L223.461 342.023C183.874 374.176 126.682 372.379 89.1917 337.804C23.4453 277.169 -83 323.802 -83 413.24V1620C-83 1730.46 6.54307 1820 117 1820H1290C1400.46 1820 1490 1730.46 1490 1620V438.069C1490 329.085 1367.22 265.311 1278.06 327.986C1227.61 363.448 1159.51 360.081 1112.81 319.814L1072.23 284.83C1000.67 223.134 895.698 219.932 820.512 277.152L788.165 301.77C714.996 357.454 612.417 352.607 544.825 290.271C475.566 226.396 369.908 223.076 296.775 282.476Z" fill="#0051FF"/>
</g>
<path fill-rule="evenodd" clip-rule="evenodd" d="M1180.24 519.941V512.858C1189.11 512.858 1195.02 508.726 1199.16 504.004C1203.3 498.692 1204.49 493.97 1204.49 489.248H1180.24V482.166H1204.49C1203.9 477.444 1202.12 472.722 1199.16 469.771C1193.84 462.688 1186.15 462.098 1180.83 462.098H1167.23V586.047H1180.83V540.009H1197.98V586.047H1213.36V564.799C1212.77 535.877 1203.9 519.941 1180.24 519.941Z" fill="white"/>
<path fill-rule="evenodd" clip-rule="evenodd" d="M1184.95 423.127C1128.17 423.127 1081.45 469.165 1081.45 526.418C1081.45 583.08 1127.58 629.709 1184.95 629.709C1241.72 629.709 1288.45 583.671 1288.45 526.418C1287.85 469.165 1241.72 423.127 1184.95 423.127ZM1231.67 593.115H1148.28V455H1177.85H1178.44H1185.54C1199.73 455 1205.65 457.361 1212.15 462.673C1221.61 470.346 1223.39 480.97 1223.39 486.872C1223.39 493.955 1221.02 501.038 1216.29 506.94C1213.33 509.891 1209.79 514.613 1202.69 516.974C1223.98 524.647 1232.26 541.764 1232.26 567.144V593.115H1231.67Z" fill="white"/>
<path d="M778.369 870.167V961.052H730.172V823.347H768.729C813.484 750.363 813.484 640.888 813.484 558.953H1031.06V823.347H1075.81V961.052H1027.62V870.167H778.369ZM980.795 823.347V605.773H863.746C863.746 680.134 855.484 754.495 824.5 823.347H980.795Z" fill="white"/>
<path d="M475.757 823.349V558.955H526.02V823.349H643.069V558.955H693.331V870.169H308.445V558.955H358.708V823.349H475.757Z" fill="white"/>
</g>
<defs>
<clipPath id="clip0_696_1413">
<rect width="1433.83" height="1433.83" fill="white"/>
</clipPath>
</defs>
</svg>
